<?xml version="1.0" encoding="UTF-8" standalone="no"?>
<!DOCTYPE svg PUBLIC "-//W3C//DTD SVG 1.1//EN" "http://www.w3.org/Graphics/SVG/1.1/DTD/svg11.dtd">
<svg xmlns="http://www.w3.org/2000/svg" version="1.1" viewBox="0.00 0.00 512.00 522.00">
<g stroke-width="2.00" fill="none" stroke-linecap="butt">
<path stroke="#dcdcde" vector-effect="non-scaling-stroke" d="
  M 509.52 225.43
  Q 508.78 228.69 509.81 232.28
  A 1.49 1.49 0.0 0 1 508.10 234.16
  Q 505.87 233.73 503.79 234.23
  Q 503.19 234.38 503.34 234.98
  Q 504.42 239.21 501.90 239.89"
/>
<path stroke="#f2d876" vector-effect="non-scaling-stroke" d="
  M 501.90 239.89
  L 500.34 225.85"
/>
<path stroke="#76bf96" vector-effect="non-scaling-stroke" d="
  M 500.34 225.85
  C 490.03 153.27 448.57 88.06 386.82 49.15
  C 290.43 -11.60 165.41 1.99 84.30 81.56
  Q 24.30 140.42 11.56 225.98"
/>
<path stroke="#f2d876" vector-effect="non-scaling-stroke" d="
  M 11.56 225.98
  L 9.43 251.00"
/>
<path stroke="#dcdcde" vector-effect="non-scaling-stroke" d="
  M 9.43 251.00
  L 9.24 247.63
  Q 9.24 247.56 9.17 247.56
  Q 9.14 247.56 9.11 247.56
  A 0.13 0.13 0.0 0 0 8.99 247.70
  Q 9.15 251.95 8.86 255.36
  Q 8.36 261.39 8.10 255.34
  Q 8.05 253.94 7.89 251.76
  Q 7.84 251.11 7.19 251.09
  L 3.57 250.96
  Q 2.92 250.94 2.74 251.56
  Q 2.35 252.88 2.13 254.18
  C 1.76 256.34 0.38 258.00 1.13 260.71
  Q 1.17 260.86 1.02 260.91
  Q 0.88 260.95 0.75 261.00
  Q 0.58 261.06 0.55 260.88
  L 0.16 258.24"
/>
<path stroke="#7cab20" vector-effect="non-scaling-stroke" d="
  M 500.34 225.85
  L 490.24 219.43"
/>
<path stroke="#7bb142" vector-effect="non-scaling-stroke" d="
  M 490.24 219.43
  Q 489.64 218.85 489.85 219.24"
/>
<path stroke="#2ca35f" vector-effect="non-scaling-stroke" d="
  M 489.85 219.24
  Q 481.32 169.25 454.26 127.21"
/>
<path stroke="#35a766" vector-effect="non-scaling-stroke" d="
  M 454.26 127.21
  Q 443.97 111.37 432.51 98.71"
/>
<path stroke="#3eaa6d" vector-effect="non-scaling-stroke" d="
  M 432.51 98.71
  Q 430.50 96.24 429.42 95.07
  C 332.76 -9.19 168.86 -7.90 75.20 99.65"
/>
<path stroke="#35a766" vector-effect="non-scaling-stroke" d="
  M 75.20 99.65
  Q 61.25 115.55 50.42 133.63"
/>
<path stroke="#2ca35f" vector-effect="non-scaling-stroke" d="
  M 50.42 133.63
  Q 25.94 174.39 18.39 221.63"
/>
<path stroke="#7bb142" vector-effect="non-scaling-stroke" d="
  M 18.39 221.63
  Q 18.86 221.43 17.92 221.91"
/>
<path stroke="#7cab20" vector-effect="non-scaling-stroke" d="
  M 17.92 221.91
  L 11.56 225.98"
/>
<path stroke="#73bf94" vector-effect="non-scaling-stroke" d="
  M 432.51 98.71
  Q 411.58 99.23 391.75 98.96
  C 389.88 98.94 388.59 100.01 386.70 100.01
  Q 354.22 99.99 321.75 100.00
  C 318.70 100.00 316.08 101.48 312.57 100.91
  A 1.29 1.25 33.6 0 0 311.70 101.07
  L 309.22 102.55"
/>
<path stroke="#b8cc7f" vector-effect="non-scaling-stroke" d="
  M 309.22 102.55
  L 256.30 68.33
  A 0.57 0.57 0.0 0 0 255.68 68.33
  L 209.01 98.50"
/>
<path stroke="#73bf94" vector-effect="non-scaling-stroke" d="
  M 209.01 98.50
  Q 206.94 98.53 205.32 98.32
  C 196.76 97.24 187.01 98.01 178.31 98.00
  C 176.96 98.00 176.04 98.95 174.60 98.96
  Q 141.29 99.17 107.97 99.00
  C 106.31 99.00 104.76 100.11 103.50 100.08
  Q 91.24 99.77 76.44 100.29
  Q 76.16 100.30 75.91 100.42
  Q 75.62 100.56 75.54 100.25
  Q 75.43 99.87 75.20 99.65"
/>
<path stroke="#afc879" vector-effect="non-scaling-stroke" d="
  M 309.22 102.55
  L 354.97 132.12"
/>
<path stroke="#a6c572" vector-effect="non-scaling-stroke" d="
  M 354.97 132.12
  L 448.02 192.25"
/>
<path stroke="#f5d255" vector-effect="non-scaling-stroke" d="
  M 448.02 192.25
  Q 448.01 192.39 448.00 192.53
  Q 447.99 192.81 447.76 192.97
  Q 447.04 193.45 447.01 193.09
  Q 446.96 192.63 446.51 192.68
  Q 440.52 193.24 434.50 192.94
  C 432.47 192.84 430.34 194.00 428.13 194.00
  Q 397.24 194.00 366.35 194.00
  A 0.75 0.70 -60.3 0 0 365.94 194.13
  Q 365.15 194.71 364.46 194.50
  Q 364.16 194.41 363.91 194.62
  L 363.47 195.00"
/>
<path stroke="#b09a7f" vector-effect="non-scaling-stroke" d="
  M 363.47 195.00
  Q 353.98 179.50 342.18 168.46"
/>
<path stroke="#b5a083" vector-effect="non-scaling-stroke" d="
  M 342.18 168.46
  C 293.02 122.52 220.60 122.35 171.09 167.18"
/>
<path stroke="#b09a7f" vector-effect="non-scaling-stroke" d="
  M 171.09 167.18
  Q 153.88 183.28 143.26 204.63"
/>
<path stroke="#f5d255" vector-effect="non-scaling-stroke" d="
  M 143.26 204.63
  Q 142.71 202.13 141.51 202.01
  Q 137.29 201.59 130.50 201.79
  C 113.01 202.29 95.45 201.99 77.95 202.01
  C 76.38 202.01 74.92 202.96 73.20 203.03
  Q 61.02 203.56 48.77 202.11"
/>
<path stroke="#a6c572" vector-effect="non-scaling-stroke" d="
  M 48.77 202.11
  L 153.01 134.73"
/>
<path stroke="#afc879" vector-effect="non-scaling-stroke" d="
  M 153.01 134.73
  L 209.01 98.50"
/>
<path stroke="#61b886" vector-effect="non-scaling-stroke" d="
  M 153.01 134.73
  Q 153.05 134.40 152.97 134.17
  Q 152.89 133.94 152.58 133.84
  Q 148.05 132.33 143.55 133.27
  Q 140.06 134.01 138.35 134.01
  Q 106.10 133.99 73.85 134.00
  C 72.45 134.00 71.34 134.94 69.78 134.96
  Q 60.45 135.11 51.04 134.95
  Q 50.58 134.94 50.63 134.48
  Q 50.73 133.69 50.42 133.63"
/>
<path stroke="#61b886" vector-effect="non-scaling-stroke" d="
  M 454.26 127.21
  L 453.80 127.24
  Q 453.24 127.27 453.70 127.57
  L 453.98 127.76
  A 0.67 0.67 0.0 0 1 453.61 128.99
  Q 442.37 129.00 431.36 129.00
  C 427.74 129.01 424.00 130.39 419.81 129.86
  C 416.81 129.48 414.25 129.72 411.43 129.75
  Q 384.43 130.03 357.41 130.03
  A 1.14 1.11 20.6 0 0 356.58 130.39
  L 354.97 132.12"
/>
<path stroke="#a6c262" vector-effect="non-scaling-stroke" d="
  M 489.85 219.24
  L 448.02 192.25"
/>
<path stroke="#a6c262" vector-effect="non-scaling-stroke" d="
  M 48.77 202.11
  L 18.39 221.63"
/>
<path stroke="#71659e" vector-effect="non-scaling-stroke" d="
  M 342.18 168.46
  Q 314.87 169.39 289.00 169.00
  Q 287.89 168.99 286.71 169.77
  Q 286.29 170.05 285.78 170.05
  Q 251.67 170.34 217.56 170.05
  Q 216.85 170.05 215.81 170.71
  Q 215.33 171.00 214.78 171.00
  L 170.13 170.99
  Q 168.59 170.99 169.38 169.67
  Q 169.99 168.64 170.99 168.09
  Q 171.37 167.89 171.23 167.48
  Q 171.19 167.34 171.09 167.18"
/>
<path stroke="#b09770" vector-effect="non-scaling-stroke" d="
  M 363.47 195.00
  Q 368.43 203.27 372.10 212.23"
/>
<path stroke="#635795" vector-effect="non-scaling-stroke" d="
  M 372.10 212.23
  Q 370.79 214.29 369.50 214.12
  C 364.71 213.50 360.46 215.02 356.22 215.02
  Q 327.31 215.04 298.40 214.98
  Q 297.89 214.98 297.53 215.35
  Q 296.56 216.37 295.58 216.74"
/>
<path stroke="#aca6c3" vector-effect="non-scaling-stroke" d="
  M 295.58 216.74
  Q 294.36 216.15 294.26 218.24
  A 1.62 1.61 1.8 0 1 292.61 219.78
  L 290.77 219.74
  A 0.35 0.35 0.0 0 0 290.57 220.39
  L 292.68 221.78
  Q 293.17 222.10 292.98 222.65
  Q 292.64 223.65 292.03 224.81
  Q 291.82 225.21 292.56 225.59"
/>
<path stroke="#635795" vector-effect="non-scaling-stroke" d="
  M 292.56 225.59
  Q 292.24 225.82 291.83 225.76
  A 0.31 0.31 0.0 0 1 291.65 225.24
  Q 291.74 225.14 291.81 224.98
  A 0.87 0.68 -26.7 0 0 290.28 224.68
  Q 290.15 224.95 290.25 225.76"
/>
<path stroke="#aca6c3" vector-effect="non-scaling-stroke" d="
  M 290.25 225.76
  Q 217.99 198.91 141.12 209.50"
/>
<path stroke="#b09770" vector-effect="non-scaling-stroke" d="
  M 141.12 209.50
  L 143.26 204.63"
/>
<path stroke="#f7c923" vector-effect="non-scaling-stroke" d="
  M 490.24 219.43
  L 490.08 219.73
  Q 489.87 220.10 489.95 220.52
  L 491.02 226.24
  Q 491.13 226.82 490.59 227.08
  Q 439.36 251.52 383.88 263.65
  Q 383.38 263.75 382.90 263.64
  Q 382.07 263.46 381.70 264.02"
/>
<path stroke="#a88f6b" vector-effect="non-scaling-stroke" d="
  M 381.70 264.02
  Q 382.17 237.04 372.10 212.23"
/>
<path stroke="#f1de99" vector-effect="non-scaling-stroke" d="
  M 141.12 209.50
  Q 136.93 218.67 134.30 229.06"
/>
<path stroke="#a88f6b" vector-effect="non-scaling-stroke" d="
  M 134.30 229.06
  Q 129.83 246.55 130.30 265.34"
/>
<path stroke="#f7c923" vector-effect="non-scaling-stroke" d="
  M 130.30 265.34
  Q 128.83 265.39 124.28 264.38
  Q 67.33 251.72 17.90 228.82
  Q 17.27 228.53 17.40 227.86
  L 18.46 222.43
  A 0.38 0.38 0.0 0 0 18.25 222.01
  Q 18.08 221.93 17.92 221.91"
/>
<path stroke="#a49dbe" vector-effect="non-scaling-stroke" d="
  M 290.25 225.76
  Q 331.63 241.42 366.44 267.64"
/>
<path stroke="#8a81ae" vector-effect="non-scaling-stroke" d="
  M 366.44 267.64
  L 380.46 278.93"
/>
<path stroke="#f2d876" vector-effect="non-scaling-stroke" d="
  M 380.46 278.93
  L 376.05 299.06"
/>
<path stroke="#8a81ae" vector-effect="non-scaling-stroke" d="
  M 376.05 299.06
  Q 358.94 283.54 339.83 271.11"
/>
<path stroke="#a49dbe" vector-effect="non-scaling-stroke" d="
  M 339.83 271.11
  C 278.88 231.48 205.98 216.48 134.30 229.06"
/>
<path stroke="#a2d0b6" vector-effect="non-scaling-stroke" d="
  M 173.48 209.89
  L 173.52 221.31
  A 0.38 0.38 0.0 0 0 173.90 221.69
  L 178.61 221.67
  A 5.67 5.46 -0.2 0 0 184.26 216.19
  L 184.26 214.93
  A 5.67 5.46 -0.2 0 0 178.57 209.49
  L 173.86 209.51
  A 0.38 0.38 0.0 0 0 173.48 209.89"
/>
<path stroke="#a2d0b6" vector-effect="non-scaling-stroke" d="
  M 198.89 219.67
  L 191.46 219.44
  Q 191.00 219.42 191.00 218.96
  L 191.00 216.84
  A 0.62 0.62 0.0 0 1 191.66 216.22
  L 197.18 216.57
  Q 197.74 216.60 197.93 216.08
  Q 198.20 215.33 197.89 214.85
  Q 197.66 214.49 196.98 214.42
  Q 194.44 214.17 191.83 214.27
  A 0.56 0.56 0.0 0 1 191.25 213.71
  L 191.25 212.36
  A 0.61 0.61 0.0 0 1 191.89 211.75
  L 198.69 212.07
  Q 199.50 212.11 199.50 211.30
  L 199.50 210.55
  Q 199.50 209.86 198.80 209.83
  L 189.78 209.49
  A 0.50 0.50 0.0 0 0 189.26 209.97
  L 188.85 221.04
  A 0.68 0.68 0.0 0 0 189.53 221.75
  L 199.19 221.75
  Q 199.91 221.75 199.77 221.05
  L 199.63 220.31
  Q 199.51 219.69 198.89 219.67"
/>
<path stroke="#a2d0b6" vector-effect="non-scaling-stroke" d="
  M 161.04 218.04
  C 162.27 217.77 164.67 217.40 165.55 218.52
  C 166.27 219.45 165.90 220.90 166.53 221.61
  Q 167.14 222.32 168.27 221.87
  Q 168.72 221.69 168.59 221.23
  L 167.50 217.11
  Q 167.40 216.73 167.61 216.40
  C 172.40 209.05 161.07 210.27 158.17 210.57
  Q 157.79 210.61 157.80 211.00
  L 158.35 222.06
  Q 158.38 222.50 158.82 222.50
  L 160.01 222.50
  Q 160.51 222.50 160.51 222.00
  L 160.48 218.74
  Q 160.48 218.17 161.04 218.04"
/>
<path stroke="#a2d0b6" vector-effect="non-scaling-stroke" d="
  M 209.56 217.93
  L 208.15 211.18
  A 1.59 1.59 0.0 0 0 205.01 211.37
  L 204.14 221.48
  Q 204.08 222.15 204.74 222.24
  L 205.41 222.33
  A 0.52 0.51 9.0 0 0 205.98 221.92
  Q 206.65 218.41 206.48 214.87
  Q 206.48 214.84 206.51 214.83
  Q 206.64 214.79 206.78 214.74
  Q 207.00 214.67 207.04 214.89
  L 208.28 221.76
  A 1.26 1.26 0.0 0 0 210.71 221.97
  L 213.01 215.63
  A 0.23 0.23 0.0 0 1 213.45 215.73
  L 212.80 222.24
  Q 212.75 222.77 213.25 222.95
  L 213.89 223.19
  A 0.68 0.68 0.0 0 0 214.80 222.61
  L 215.75 211.66
  Q 215.80 211.11 215.24 211.08
  L 213.54 210.97
  Q 212.88 210.93 212.64 211.55
  L 210.12 217.98
  Q 209.76 218.90 209.56 217.93"
/>
<path stroke="#a2d0b6" vector-effect="non-scaling-stroke" d="
  M 148.6102 223.6519
  A 5.92 5.27 83.5 0 0 153.1761 217.1734
  A 5.92 5.27 83.5 0 0 147.2698 211.8881
  A 5.92 5.27 83.5 0 0 142.7039 218.3666
  A 5.92 5.27 83.5 0 0 148.6102 223.6519"
/>
<path stroke="#a2d0b6" vector-effect="non-scaling-stroke" d="
  M 232.03 217.79
  L 232.23 217.25
  Q 232.42 216.73 232.97 216.82
  L 238.05 217.68
  Q 238.70 217.79 239.01 217.21
  L 239.25 216.77
  A 0.69 0.69 0.0 0 0 238.76 215.77
  L 231.34 214.43
  Q 230.73 214.32 230.62 214.94
  L 228.98 224.45
  Q 228.87 225.05 229.47 225.15
  L 237.09 226.48
  Q 237.60 226.57 237.83 226.11
  Q 238.17 225.44 237.84 224.90
  Q 237.53 224.41 236.62 224.28
  Q 234.24 223.94 231.86 223.48
  Q 231.35 223.38 231.40 222.85
  L 231.55 221.35
  Q 231.64 220.51 232.48 220.67
  L 236.56 221.49
  Q 237.04 221.59 237.22 221.13
  L 237.53 220.32
  A 0.63 0.63 0.0 0 0 237.05 219.48
  L 232.55 218.70
  Q 231.75 218.56 232.03 217.79"
/>
<path stroke="#a2d0b6" vector-effect="non-scaling-stroke" d="
  M 255.40 226.07
  C 257.85 226.33 261.43 228.18 263.27 225.78
  C 267.56 220.16 258.27 218.74 255.25 218.08
  Q 254.78 217.98 254.66 218.43
  L 251.78 229.10
  Q 251.65 229.60 252.14 229.75
  L 253.08 230.02
  A 0.65 0.65 0.0 0 0 253.88 229.58
  L 254.76 226.50
  Q 254.90 226.02 255.40 226.07"
/>
<path stroke="#a2d0b6" vector-effect="non-scaling-stroke" d="
  M 270.25 230.08
  L 273.93 231.26
  Q 274.65 231.49 274.57 232.24
  L 274.23 235.53
  A 0.67 0.66 -74.6 0 0 274.60 236.19
  L 275.08 236.42
  Q 275.71 236.72 276.01 236.08
  Q 277.05 233.91 276.52 231.64
  Q 276.41 231.16 276.89 231.03
  C 279.84 230.27 279.80 226.48 277.68 224.76
  Q 276.16 223.52 270.52 222.32
  Q 270.03 222.22 269.87 222.70
  L 266.56 233.00
  Q 266.37 233.59 266.97 233.77
  L 267.89 234.04
  Q 268.52 234.22 268.70 233.59
  L 269.58 230.45
  Q 269.73 229.92 270.25 230.08"
/>
<path stroke="#a2d0b6" vector-effect="non-scaling-stroke" d="
  M 286.0103 240.1133
  A 5.93 5.27 109.4 0 0 292.9508 236.2705
  A 5.93 5.27 109.4 0 0 289.9497 228.9267
  A 5.93 5.27 109.4 0 0 283.0092 232.7695
  A 5.93 5.27 109.4 0 0 286.0103 240.1133"
/>
<path stroke="#a2d0b6" vector-effect="non-scaling-stroke" d="
  M 303.75 246.98
  L 303.75 247.55
  A 0.65 0.65 0.0 0 0 304.99 247.82
  L 307.24 242.94
  A 0.61 0.60 -68.7 0 0 306.88 242.11
  L 303.48 241.00
  A 0.82 0.82 0.0 0 0 302.81 242.48
  L 303.46 242.87
  Q 304.12 243.25 303.46 243.64
  C 302.05 244.49 300.21 243.98 299.64 242.31
  C 298.23 238.17 303.29 233.70 305.84 239.63
  A 0.91 0.91 0.0 0 0 307.57 239.42
  Q 307.96 237.09 305.29 235.51
  C 297.54 230.93 292.46 246.36 303.07 246.30
  Q 303.75 246.30 303.75 246.98"
/>
<path stroke="#a2d0b6" vector-effect="non-scaling-stroke" d="
  M 314.32 239.61
  Q 311.70 244.61 309.48 249.39
  Q 308.97 250.50 310.25 250.82
  A 0.99 0.98 19.3 0 0 311.40 250.27
  L 312.59 247.59
  A 0.63 0.62 25.8 0 1 313.46 247.29
  L 316.87 249.10
  A 0.87 0.86 -68.7 0 1 317.30 250.09
  L 316.45 253.25
  Q 316.37 253.56 316.62 253.75
  L 317.43 254.40
  Q 318.21 255.02 318.45 254.05
  L 319.51 249.79
  Q 319.62 249.33 320.07 249.22
  C 320.91 249.00 321.36 248.80 321.84 248.06
  C 324.96 243.20 317.70 240.86 314.66 239.50
  A 0.27 0.27 0.0 0 0 314.32 239.61"
/>
<path stroke="#a2d0b6" vector-effect="non-scaling-stroke" d="
  M 327.79 253.97
  Q 329.77 254.77 332.20 256.54
  Q 332.75 256.94 333.08 256.35
  L 333.57 255.47
  Q 333.89 254.90 333.32 254.59
  L 328.42 251.93
  Q 327.84 251.62 328.19 251.06
  L 328.89 249.95
  Q 329.22 249.43 329.74 249.74
  L 335.74 253.31
  A 0.62 0.61 28.1 0 0 336.60 253.05
  L 337.06 252.11
  Q 337.33 251.56 336.80 251.26
  L 328.84 246.78
  Q 328.40 246.54 328.15 246.98
  L 322.78 256.53
  A 0.55 0.55 0.0 0 0 322.99 257.28
  L 331.15 261.97
  Q 331.76 262.32 332.16 261.74
  L 332.61 261.08
  Q 333.02 260.47 332.39 260.11
  L 326.46 256.72
  A 1.53 1.53 0.0 0 1 327.79 253.97"
/>
<path stroke="#a2d0b6" vector-effect="non-scaling-stroke" d="
  M 343.71 266.45
  Q 340.53 266.98 339.65 263.38
  Q 339.01 260.73 337.36 262.80
  A 1.17 1.17 0.0 0 0 337.28 264.14
  C 338.93 266.83 344.11 271.24 346.65 267.36
  A 2.80 2.80 0.0 0 0 346.44 264.00
  L 343.08 260.09
  A 0.97 0.97 0.0 0 1 343.88 258.48
  Q 345.39 258.58 346.38 259.75
  A 1.59 1.52 -65.4 0 1 346.74 260.78
  Q 346.71 261.55 347.30 262.20
  A 1.36 1.36 0.0 0 0 349.46 260.55
  C 344.64 253.07 334.85 256.32 344.18 264.84
  A 0.94 0.93 61.5 0 1 343.71 266.45"
/>
<path stroke="#76bf96" vector-effect="non-scaling-stroke" d="
  M 355.89 275.36
  Q 353.05 274.71 352.64 271.77
  Q 352.56 271.17 352.01 270.90
  L 351.10 270.46
  A 1.09 1.09 0.0 0 0 349.65 271.94
  Q 351.73 275.96 355.28 277.35
  C 357.12 278.07 359.15 277.47 359.65 275.49
  C 360.20 273.26 357.40 270.46 355.95 268.94
  A 1.00 1.00 0.0 0 1 356.73 267.25
  Q 359.62 267.39 359.77 270.16
  Q 359.80 270.67 360.16 271.04
  L 360.38 271.25
  A 1.32 1.32 0.0 0 0 362.39 269.56
  C 360.81 267.33 356.98 263.27 354.09 265.85
  C 351.59 268.07 355.43 272.03 356.88 273.74
  A 1.00 1.00 0.0 0 1 355.89 275.36"
/>
<path stroke="#76bf96" vector-effect="non-scaling-stroke" d="
  M 365.3064 285.6077
  A 5.93 5.27 125.5 0 0 373.0404 283.8403
  A 5.93 5.27 125.5 0 0 372.1936 275.9523
  A 5.93 5.27 125.5 0 0 364.4596 277.7197
  A 5.93 5.27 125.5 0 0 365.3064 285.6077"
/>
<path stroke="#a2d0b6" vector-effect="non-scaling-stroke" d="
  M 175.79 212.39
  L 175.68 218.71
  A 0.72 0.72 0.0 0 0 176.38 219.45
  L 177.58 219.47
  A 4.58 3.71 1.0 0 0 182.23 215.84
  L 182.23 215.50
  A 4.58 3.71 1.0 0 0 177.72 211.71
  L 176.52 211.69
  A 0.72 0.72 0.0 0 0 175.79 212.39"
/>
<path stroke="#a2d0b6" vector-effect="non-scaling-stroke" d="
  M 165.8813 213.1458
  A 0.81 0.81 0.0 0 0 165.0327 212.3763
  L 160.7178 212.5873
  A 0.81 0.81 0.0 0 0 159.9484 213.4359
  L 160.0187 214.8742
  A 0.81 0.81 0.0 0 0 160.8673 215.6437
  L 165.1822 215.4327
  A 0.81 0.81 0.0 0 0 165.9516 214.5841
  L 165.8813 213.1458"
/>
<path stroke="#a2d0b6" vector-effect="non-scaling-stroke" d="
  M 148.3430 221.4994
  A 3.76 2.94 84.0 0 0 150.8739 217.4527
  A 3.76 2.94 84.0 0 0 147.5570 214.0206
  A 3.76 2.94 84.0 0 0 145.0261 218.0673
  A 3.76 2.94 84.0 0 0 148.3430 221.4994"
/>
<path stroke="#aa8948" vector-effect="non-scaling-stroke" d="
  M 381.70 264.02
  Q 381.88 264.40 381.53 264.51"
/>
<path stroke="#423280" vector-effect="non-scaling-stroke" d="
  M 381.53 264.51
  L 366.44 267.64"
/>
<path stroke="#a49dbe" vector-effect="non-scaling-stroke" d="
  M 292.56 225.59
  L 294.78 223.84
  Q 295.11 223.57 295.44 223.84
  L 297.37 225.43
  A 0.44 0.44 0.0 0 0 298.05 224.93
  L 297.16 222.69
  Q 296.98 222.23 297.37 221.93
  L 299.41 220.33
  A 0.34 0.34 0.0 0 0 299.18 219.72
  L 296.96 219.84
  Q 296.43 219.86 296.16 219.41
  Q 295.48 218.27 295.58 216.74"
/>
<path stroke="#a2d0b6" vector-effect="non-scaling-stroke" d="
  M 256.09 221.14
  L 255.60 223.08
  A 0.58 0.58 0.0 0 0 256.01 223.78
  L 259.10 224.58
  A 2.27 1.37 14.4 0 0 261.64 223.81
  L 261.75 223.41
  A 2.27 1.37 14.4 0 0 259.89 221.52
  L 256.80 220.72
  A 0.58 0.58 0.0 0 0 256.09 221.14"
/>
<path stroke="#e2c868" vector-effect="non-scaling-stroke" d="
  M 501.90 239.89
  Q 504.19 268.06 500.36 295.96"
/>
<path stroke="#7cab20" vector-effect="non-scaling-stroke" d="
  M 500.36 295.96
  L 274.69 441.77"
/>
<path stroke="#8db22d" vector-effect="non-scaling-stroke" d="
  M 274.69 441.77
  L 256.44 453.53
  Q 255.99 453.82 255.53 453.53
  L 236.37 441.17"
/>
<path stroke="#7cab20" vector-effect="non-scaling-stroke" d="
  M 236.37 441.17
  L 12.08 296.30
  Q 12.00 296.25 11.91 296.25
  Q 11.77 296.26 11.64 296.27"
/>
<path stroke="#e2c868" vector-effect="non-scaling-stroke" d="
  M 11.64 296.27
  Q 8.58 273.73 9.43 251.00"
/>
<path stroke="#aa8948" vector-effect="non-scaling-stroke" d="
  M 130.30 265.34
  Q 130.68 265.91 130.43 265.99"
/>
<path stroke="#906d38" vector-effect="non-scaling-stroke" d="
  M 130.43 265.99
  C 132.29 310.83 156.99 351.41 196.28 372.95
  C 230.12 391.51 272.99 393.40 307.74 377.02
  Q 358.23 353.21 376.05 299.06"
/>
<path stroke="#906d38" vector-effect="non-scaling-stroke" d="
  M 380.46 278.93
  L 381.53 264.51"
/>
<path stroke="#a2d0b6" vector-effect="non-scaling-stroke" d="
  M 271.12 225.42
  L 270.58 227.16
  A 0.69 0.69 0.0 0 0 271.03 228.02
  L 273.68 228.84
  A 2.68 1.43 17.3 0 0 276.66 228.28
  L 276.76 227.95
  A 2.68 1.43 17.3 0 0 274.63 225.79
  L 271.98 224.96
  A 0.69 0.69 0.0 0 0 271.12 225.42"
/>
<path stroke="#423280" vector-effect="non-scaling-stroke" d="
  M 339.83 271.11
  L 338.88 271.65
  Q 338.49 271.87 338.05 271.94
  C 310.02 275.91 285.68 277.19 256.74 277.95"
/>
<path stroke="#a49dbe" vector-effect="non-scaling-stroke" d="
  M 256.74 277.95
  Q 256.37 277.46 256.00 277.45
  Q 255.62 277.43 255.31 277.93"
/>
<path stroke="#423280" vector-effect="non-scaling-stroke" d="
  M 255.31 277.93
  Q 194.26 278.04 134.37 266.59
  C 133.19 266.37 131.92 265.85 130.43 265.99"
/>
<path stroke="#a49dbe" vector-effect="non-scaling-stroke" d="
  M 154.73 236.42
  A 0.35 0.35 0.0 0 1 154.39 236.17
  L 153.59 233.54
  A 0.35 0.35 0.0 0 0 152.92 233.54
  L 152.11 236.17
  A 0.35 0.35 0.0 0 1 151.77 236.42
  L 149.02 236.36
  A 0.35 0.35 0.0 0 0 148.81 237.00
  L 151.06 238.58
  A 0.35 0.35 0.0 0 1 151.19 238.99
  L 150.29 241.59
  A 0.35 0.35 0.0 0 0 150.83 241.98
  L 153.04 240.33
  A 0.35 0.35 0.0 0 1 153.46 240.33
  L 155.65 241.99
  A 0.35 0.35 0.0 0 0 156.20 241.60
  L 155.30 238.99
  A 0.35 0.35 0.0 0 1 155.43 238.59
  L 157.70 237.02
  A 0.35 0.35 0.0 0 0 157.49 236.38
  L 154.73 236.42"
/>
<path stroke="#a49dbe" vector-effect="non-scaling-stroke" d="
  M 288.94 253.25
  L 287.73 253.25
  A 0.40 0.40 0.0 0 0 287.55 254.00
  Q 289.35 254.94 288.33 256.58
  A 0.34 0.34 0.0 0 0 288.81 257.04
  L 289.91 256.30
  A 0.66 0.65 -40.6 0 1 290.72 256.36
  L 291.94 257.52
  A 0.27 0.27 0.0 0 0 292.36 257.18
  Q 291.09 255.20 292.97 253.96
  A 0.38 0.38 0.0 0 0 292.64 253.29
  Q 290.99 253.84 290.77 252.07
  A 0.39 0.39 0.0 0 0 290.04 251.94
  L 289.55 252.88
  Q 289.36 253.25 288.94 253.25"
/>
<path stroke="#a49dbe" vector-effect="non-scaling-stroke" d="
  M 209.36 264.75
  A 0.32 0.32 0.0 0 1 209.05 264.53
  L 208.40 262.40
  A 0.32 0.32 0.0 0 0 207.78 262.40
  L 207.10 264.52
  A 0.32 0.32 0.0 0 1 206.79 264.74
  L 204.57 264.71
  A 0.32 0.32 0.0 0 0 204.37 265.29
  L 206.18 266.59
  A 0.32 0.32 0.0 0 1 206.30 266.96
  L 205.58 269.07
  A 0.32 0.32 0.0 0 0 206.07 269.43
  L 207.87 268.11
  A 0.32 0.32 0.0 0 1 208.25 268.11
  L 210.03 269.45
  A 0.32 0.32 0.0 0 0 210.53 269.09
  L 209.83 266.97
  A 0.32 0.32 0.0 0 1 209.95 266.61
  L 211.77 265.33
  A 0.32 0.32 0.0 0 0 211.59 264.75
  L 209.36 264.75"
/>
<path stroke="#66af87" vector-effect="non-scaling-stroke" d="
  M 11.64 296.27
  C 31.18 431.71 155.30 528.62 291.85 508.12
  C 401.23 491.70 484.86 404.88 500.36 295.96"
/>
<path stroke="#a2d0b6" vector-effect="non-scaling-stroke" d="
  M 286.6803 238.0179
  A 3.70 2.99 110.4 0 0 290.7725 235.5922
  A 3.70 2.99 110.4 0 0 289.2597 231.0821
  A 3.70 2.99 110.4 0 0 285.1675 233.5078
  A 3.70 2.99 110.4 0 0 286.6803 238.0179"
/>
<path stroke="#a2d0b6" vector-effect="non-scaling-stroke" d="
  M 315.09 242.60
  L 314.09 244.60
  A 0.45 0.45 0.0 0 0 314.29 245.21
  L 317.35 246.74
  A 2.15 1.45 26.6 0 0 319.92 246.41
  L 320.03 246.19
  A 2.15 1.45 26.6 0 0 318.75 243.93
  L 315.69 242.40
  A 0.45 0.45 0.0 0 0 315.09 242.60"
/>
<path stroke="#8a81ae" vector-effect="non-scaling-stroke" d="
  M 255.31 277.93
  Q 255.35 278.83 255.00 279.53
  A 0.84 0.83 -76.9 0 1 254.25 280.00
  L 252.72 280.00
  A 0.36 0.36 0.0 0 0 252.49 280.64
  L 254.02 281.94
  A 0.67 0.67 0.0 0 1 254.20 282.72
  L 253.52 284.24
  A 0.37 0.37 0.0 0 0 254.14 284.63
  Q 255.91 282.47 257.71 284.52
  A 0.41 0.41 0.0 0 0 258.40 284.10
  L 257.80 282.61
  Q 257.57 282.04 258.09 281.71
  L 259.47 280.84
  A 0.38 0.38 0.0 0 0 259.33 280.14
  L 257.59 279.88
  Q 257.15 279.81 256.93 279.42
  Q 256.62 278.84 256.74 277.95"
/>
<path stroke="#8a81ae" vector-effect="non-scaling-stroke" d="
  M 175.68 284.95
  Q 175.13 284.97 175.26 285.55
  A 0.27 0.27 0.0 0 0 175.77 285.59
  Q 176.09 284.76 176.84 285.19
  Q 177.38 285.51 177.72 284.98
  L 178.44 283.84
  Q 178.64 283.53 178.32 283.34
  L 176.60 282.31
  Q 176.40 282.19 176.24 282.36
  L 175.19 283.40
  Q 174.88 283.71 175.18 284.04
  L 175.78 284.71
  A 0.15 0.14 68.2 0 1 175.68 284.95"
/>
<path stroke="#8a81ae" vector-effect="non-scaling-stroke" d="
  M 165.89 290.03
  A 0.35 0.35 0.0 0 1 165.55 289.78
  L 164.76 287.21
  A 0.35 0.35 0.0 0 0 164.09 287.21
  L 163.28 289.77
  A 0.35 0.35 0.0 0 1 162.94 290.02
  L 160.26 289.97
  A 0.35 0.35 0.0 0 0 160.05 290.61
  L 162.24 292.17
  A 0.35 0.35 0.0 0 1 162.36 292.57
  L 161.50 295.11
  A 0.35 0.35 0.0 0 0 162.03 295.50
  L 164.19 293.91
  A 0.35 0.35 0.0 0 1 164.61 293.91
  L 166.76 295.52
  A 0.35 0.35 0.0 0 0 167.30 295.13
  L 166.45 292.58
  A 0.35 0.35 0.0 0 1 166.58 292.18
  L 168.78 290.64
  A 0.35 0.35 0.0 0 0 168.57 290.00
  L 165.89 290.03"
/>
<path stroke="#8a81ae" vector-effect="non-scaling-stroke" d="
  M 271.80 291.46
  A 0.32 0.32 0.0 0 1 271.48 291.23
  L 270.85 289.03
  A 0.32 0.32 0.0 0 0 270.23 289.02
  L 269.58 291.22
  A 0.32 0.32 0.0 0 1 269.26 291.45
  L 266.97 291.37
  A 0.32 0.32 0.0 0 0 266.77 291.95
  L 268.66 293.26
  A 0.32 0.32 0.0 0 1 268.78 293.63
  L 268.00 295.79
  A 0.32 0.32 0.0 0 0 268.49 296.15
  L 270.31 294.76
  A 0.32 0.32 0.0 0 1 270.71 294.76
  L 272.51 296.17
  A 0.32 0.32 0.0 0 0 273.01 295.81
  L 272.25 293.65
  A 0.32 0.32 0.0 0 1 272.38 293.28
  L 274.28 291.99
  A 0.32 0.32 0.0 0 0 274.09 291.41
  L 271.80 291.46"
/>
<path stroke="#8a81ae" vector-effect="non-scaling-stroke" d="
  M 244.10 291.25
  L 243.94 290.11
  A 0.39 0.39 0.0 0 0 243.17 290.10
  Q 242.79 292.15 240.78 291.65
  A 0.33 0.33 0.0 0 0 240.52 292.25
  L 241.54 292.93
  Q 242.14 293.34 241.81 293.98
  L 241.27 295.04
  A 0.35 0.35 0.0 0 0 241.79 295.49
  L 243.01 294.64
  A 0.59 0.58 -44.0 0 1 243.68 294.65
  L 244.79 295.45
  Q 245.63 296.05 245.24 295.09
  Q 244.49 293.21 246.15 292.27
  A 0.28 0.28 0.0 0 0 246.02 291.75
  L 244.67 291.75
  Q 244.17 291.75 244.10 291.25"
/>
<path stroke="#8a81ae" vector-effect="non-scaling-stroke" d="
  M 147.48 303.92
  L 147.09 305.11
  A 0.43 0.43 0.0 0 0 147.79 305.56
  Q 149.11 304.32 150.19 305.55
  A 0.37 0.37 0.0 0 0 150.82 305.22
  L 150.48 303.88
  A 0.67 0.65 73.1 0 1 150.89 303.09
  L 151.73 302.78
  A 0.39 0.39 0.0 0 0 151.54 302.03
  Q 149.38 302.35 149.39 300.19
  A 0.39 0.38 47.6 0 0 148.62 300.15
  Q 148.48 302.00 146.77 302.02
  Q 145.69 302.04 146.52 302.72
  L 147.32 303.38
  A 0.50 0.48 29.4 0 1 147.48 303.92"
/>
<path stroke="#8a81ae" vector-effect="non-scaling-stroke" d="
  M 248.53 302.36
  Q 250.73 304.34 251.26 301.66
  Q 251.31 301.41 251.11 301.25
  L 249.73 300.19
  Q 249.40 299.94 249.16 300.26
  L 248.42 301.25
  A 0.83 0.83 0.0 0 0 248.53 302.36"
/>
<path stroke="#8a81ae" vector-effect="non-scaling-stroke" d="
  M 191.84 302.89
  A 0.32 0.32 0.0 0 1 191.53 302.66
  L 190.87 300.54
  A 0.32 0.32 0.0 0 0 190.26 300.55
  L 189.62 302.67
  A 0.32 0.32 0.0 0 1 189.31 302.89
  L 187.09 302.87
  A 0.32 0.32 0.0 0 0 186.90 303.45
  L 188.72 304.72
  A 0.32 0.32 0.0 0 1 188.84 305.08
  L 188.13 307.19
  A 0.32 0.32 0.0 0 0 188.63 307.54
  L 190.39 306.20
  A 0.32 0.32 0.0 0 1 190.78 306.20
  L 192.56 307.53
  A 0.32 0.32 0.0 0 0 193.05 307.17
  L 192.32 305.07
  A 0.32 0.32 0.0 0 1 192.44 304.71
  L 194.25 303.42
  A 0.32 0.32 0.0 0 0 194.06 302.84
  L 191.84 302.89"
/>
<path stroke="#8a81ae" vector-effect="non-scaling-stroke" d="
  M 345.62 304.05
  A 0.30 0.30 0.0 0 1 345.33 303.83
  L 344.47 301.00
  A 0.30 0.30 0.0 0 0 343.89 300.99
  L 343.02 303.83
  A 0.30 0.30 0.0 0 1 342.72 304.04
  L 339.76 303.99
  A 0.30 0.30 0.0 0 0 339.58 304.53
  L 342.01 306.24
  A 0.30 0.30 0.0 0 1 342.12 306.58
  L 341.15 309.39
  A 0.30 0.30 0.0 0 0 341.61 309.72
  L 343.99 307.95
  A 0.30 0.30 0.0 0 1 344.35 307.95
  L 346.71 309.73
  A 0.30 0.30 0.0 0 0 347.18 309.40
  L 346.22 306.59
  A 0.30 0.30 0.0 0 1 346.33 306.25
  L 348.76 304.55
  A 0.30 0.30 0.0 0 0 348.59 304.00
  L 345.62 304.05"
/>
<path stroke="#8a81ae" vector-effect="non-scaling-stroke" d="
  M 362.70 305.81
  A 0.34 0.34 0.0 0 1 362.35 305.56
  L 361.92 304.01
  A 0.34 0.34 0.0 0 0 361.26 304.01
  L 360.84 305.57
  A 0.34 0.34 0.0 0 1 360.50 305.82
  L 358.88 305.75
  A 0.34 0.34 0.0 0 0 358.68 306.38
  L 360.03 307.26
  A 0.34 0.34 0.0 0 1 360.17 307.66
  L 359.60 309.18
  A 0.34 0.34 0.0 0 0 360.13 309.56
  L 361.39 308.55
  A 0.34 0.34 0.0 0 1 361.82 308.55
  L 363.08 309.55
  A 0.34 0.34 0.0 0 0 363.61 309.16
  L 363.04 307.65
  A 0.34 0.34 0.0 0 1 363.17 307.25
  L 364.51 306.36
  A 0.34 0.34 0.0 0 0 364.31 305.73
  L 362.70 305.81"
/>
<path stroke="#8a81ae" vector-effect="non-scaling-stroke" d="
  M 185.64 315.54
  L 183.36 315.36
  Q 183.07 315.34 183.07 315.62
  Q 183.06 315.77 183.14 315.92
  Q 183.24 316.12 183.61 316.32
  Q 184.36 316.74 184.96 317.39
  A 0.68 0.67 -55.8 0 1 185.09 318.10
  L 184.49 319.66
  A 0.35 0.34 83.0 0 0 185.01 320.07
  L 186.56 319.00
  A 0.67 0.67 0.0 0 1 187.41 319.06
  L 188.68 320.26
  A 0.40 0.40 0.0 0 0 189.30 319.76
  Q 187.79 317.34 190.20 316.26
  A 0.40 0.40 0.0 0 0 190.04 315.50
  L 188.46 315.50
  Q 187.89 315.50 187.71 314.97
  L 187.10 313.19
  A 0.42 0.42 0.0 0 0 186.28 313.30
  L 186.21 315.04
  Q 186.19 315.59 185.64 315.54"
/>
<path stroke="#8a81ae" vector-effect="non-scaling-stroke" d="
  M 350.59 315.57
  A 0.32 0.32 0.0 0 1 350.28 315.33
  L 349.65 313.15
  A 0.32 0.32 0.0 0 0 349.04 313.15
  L 348.39 315.33
  A 0.32 0.32 0.0 0 1 348.08 315.56
  L 345.80 315.48
  A 0.32 0.32 0.0 0 0 345.61 316.06
  L 347.49 317.35
  A 0.32 0.32 0.0 0 1 347.61 317.72
  L 346.83 319.86
  A 0.32 0.32 0.0 0 0 347.33 320.22
  L 349.13 318.83
  A 0.32 0.32 0.0 0 1 349.52 318.83
  L 351.31 320.23
  A 0.32 0.32 0.0 0 0 351.81 319.87
  L 351.05 317.73
  A 0.32 0.32 0.0 0 1 351.17 317.36
  L 353.05 316.09
  A 0.32 0.32 0.0 0 0 352.87 315.50
  L 350.59 315.57"
/>
<path stroke="#8a81ae" vector-effect="non-scaling-stroke" d="
  M 257.44 316.48
  A 0.30 0.30 0.0 0 1 257.15 316.27
  L 256.28 313.47
  A 0.30 0.30 0.0 0 0 255.70 313.47
  L 254.83 316.27
  A 0.30 0.30 0.0 0 1 254.54 316.48
  L 251.61 316.45
  A 0.30 0.30 0.0 0 0 251.43 316.99
  L 253.83 318.68
  A 0.30 0.30 0.0 0 1 253.94 319.02
  L 253.00 321.80
  A 0.30 0.30 0.0 0 0 253.46 322.14
  L 255.81 320.38
  A 0.30 0.30 0.0 0 1 256.17 320.38
  L 258.52 322.14
  A 0.30 0.30 0.0 0 0 258.98 321.80
  L 258.04 319.02
  A 0.30 0.30 0.0 0 1 258.15 318.68
  L 260.55 316.99
  A 0.30 0.30 0.0 0 0 260.37 316.45
  L 257.44 316.48"
/>
<path stroke="#8a81ae" vector-effect="non-scaling-stroke" d="
  M 339.90 328.22
  L 339.35 329.62
  A 0.49 0.49 0.0 0 0 340.17 330.12
  Q 341.73 328.33 343.16 330.24
  Q 343.51 330.70 343.91 330.29
  Q 344.25 329.96 343.96 329.56
  Q 342.79 327.89 345.22 326.24
  A 0.32 0.31 19.6 0 0 344.95 325.68
  Q 342.17 326.46 342.03 323.71
  A 0.44 0.44 0.0 0 0 341.15 323.65
  L 340.87 325.13
  A 0.75 0.75 0.0 0 1 340.15 325.73
  L 338.25 325.76
  A 0.37 0.37 0.0 0 0 338.06 326.45
  L 339.64 327.45
  A 0.64 0.63 26.6 0 1 339.90 328.22"
/>
<path stroke="#8a81ae" vector-effect="non-scaling-stroke" d="
  M 206.97 326.97
  A 0.35 0.35 0.0 0 1 206.63 326.72
  L 205.84 323.99
  A 0.35 0.35 0.0 0 0 205.17 323.99
  L 204.37 326.71
  A 0.35 0.35 0.0 0 1 204.02 326.96
  L 201.19 326.86
  A 0.35 0.35 0.0 0 0 200.98 327.50
  L 203.31 329.10
  A 0.35 0.35 0.0 0 1 203.45 329.51
  L 202.48 332.17
  A 0.35 0.35 0.0 0 0 203.02 332.57
  L 205.27 330.85
  A 0.35 0.35 0.0 0 1 205.70 330.85
  L 207.93 332.59
  A 0.35 0.35 0.0 0 0 208.48 332.20
  L 207.53 329.53
  A 0.35 0.35 0.0 0 1 207.66 329.12
  L 210.01 327.53
  A 0.35 0.35 0.0 0 0 209.80 326.89
  L 206.97 326.97"
/>
<path stroke="#8a81ae" vector-effect="non-scaling-stroke" d="
  M 320.35 331.16
  L 321.16 330.93
  A 0.37 0.37 0.0 0 0 321.05 330.20
  Q 319.10 330.29 318.78 328.48
  A 0.39 0.39 0.0 0 0 318.00 328.54
  Q 317.96 330.42 316.05 329.97
  A 0.41 0.41 0.0 0 0 315.74 330.71
  L 316.73 331.33
  A 0.74 0.73 -60.3 0 1 316.99 332.31
  L 316.59 333.05
  Q 316.13 333.90 317.04 333.59
  Q 317.59 333.40 317.93 332.93
  A 0.57 0.57 0.0 0 1 318.74 332.81
  L 319.76 333.59
  A 0.32 0.32 0.0 0 0 320.27 333.26
  L 319.94 331.84
  Q 319.82 331.31 320.35 331.16"
/>
<path stroke="#8a81ae" vector-effect="non-scaling-stroke" d="
  M 283.97 334.19
  L 285.21 334.82
  A 0.34 0.34 0.0 0 0 285.65 334.32
  Q 284.47 332.60 286.34 331.81
  A 0.30 0.30 0.0 0 0 286.19 331.23
  Q 284.28 331.43 283.96 329.72
  A 0.35 0.35 0.0 0 0 283.28 329.71
  Q 282.90 331.56 281.03 331.23
  Q 280.13 331.07 280.81 331.69
  Q 281.11 331.96 281.50 332.14
  Q 282.08 332.40 282.03 333.04
  L 281.91 334.63
  Q 281.84 335.54 282.48 334.90
  L 283.04 334.33
  Q 283.45 333.92 283.97 334.19"
/>
<path stroke="#8a81ae" vector-effect="non-scaling-stroke" d="
  M 332.11 331.77
  L 331.94 330.86
  A 0.39 0.38 -46.3 0 0 331.18 330.88
  Q 330.90 332.79 329.01 332.45
  A 0.29 0.28 -18.3 0 0 328.76 332.94
  L 329.78 333.88
  Q 330.24 334.30 329.95 334.86
  L 329.58 335.56
  Q 329.10 336.50 330.07 336.09
  Q 330.67 335.84 331.06 335.30
  A 0.55 0.55 0.0 0 1 331.94 335.30
  Q 332.33 335.84 332.92 336.08
  Q 333.87 336.48 333.39 335.57
  Q 332.48 333.83 334.36 332.98
  A 0.38 0.38 0.0 0 0 334.20 332.25
  L 332.69 332.25
  Q 332.20 332.25 332.11 331.77"
/>
<path stroke="#8a81ae" vector-effect="non-scaling-stroke" d="
  M 302.93 336.45
  L 302.50 337.68
  A 0.34 0.34 0.0 0 0 303.01 338.07
  L 304.15 337.30
  A 0.66 0.65 -40.6 0 1 304.96 337.36
  L 305.93 338.25
  A 0.34 0.34 0.0 0 0 306.46 337.83
  Q 305.19 335.68 307.35 334.88
  A 0.25 0.25 0.0 0 0 307.29 334.39
  Q 305.02 334.13 304.82 332.87
  Q 304.79 332.68 304.70 332.60
  Q 304.60 332.51 304.48 332.48
  Q 304.15 332.42 304.09 332.75
  L 303.91 333.65
  Q 303.79 334.25 303.18 334.25
  L 301.95 334.25
  Q 301.04 334.25 301.71 334.86
  L 302.76 335.79
  Q 303.06 336.07 302.93 336.45"
/>
<path stroke="#8a81ae" vector-effect="non-scaling-stroke" d="
  M 320.31 342.21
  A 0.32 0.32 0.0 0 1 320.00 341.98
  L 319.34 339.82
  A 0.32 0.32 0.0 0 0 318.72 339.82
  L 318.04 341.97
  A 0.32 0.32 0.0 0 1 317.73 342.19
  L 315.47 342.16
  A 0.32 0.32 0.0 0 0 315.28 342.74
  L 317.11 344.06
  A 0.32 0.32 0.0 0 1 317.23 344.42
  L 316.50 346.55
  A 0.32 0.32 0.0 0 0 316.99 346.92
  L 318.81 345.58
  A 0.32 0.32 0.0 0 1 319.19 345.58
  L 321.00 346.94
  A 0.32 0.32 0.0 0 0 321.49 346.58
  L 320.78 344.44
  A 0.32 0.32 0.0 0 1 320.90 344.08
  L 322.75 342.78
  A 0.32 0.32 0.0 0 0 322.56 342.20
  L 320.31 342.21"
/>
<path stroke="#8a81ae" vector-effect="non-scaling-stroke" d="
  M 294.94 345.27
  A 0.32 0.32 0.0 0 1 294.63 345.05
  L 293.94 342.96
  A 0.32 0.32 0.0 0 0 293.34 342.97
  L 292.67 345.06
  A 0.32 0.32 0.0 0 1 292.37 345.29
  L 290.17 345.29
  A 0.32 0.32 0.0 0 0 289.98 345.88
  L 291.77 347.16
  A 0.32 0.32 0.0 0 1 291.89 347.51
  L 291.22 349.61
  A 0.32 0.32 0.0 0 0 291.71 349.97
  L 293.48 348.66
  A 0.32 0.32 0.0 0 1 293.86 348.66
  L 295.64 349.95
  A 0.32 0.32 0.0 0 0 296.13 349.58
  L 295.44 347.50
  A 0.32 0.32 0.0 0 1 295.55 347.14
  L 297.33 345.84
  A 0.32 0.32 0.0 0 0 297.14 345.26
  L 294.94 345.27"
/>
<path stroke="#8a81ae" vector-effect="non-scaling-stroke" d="
  M 319.44 354.69
  L 319.09 353.64
  A 0.42 0.42 0.0 0 0 318.27 353.78
  Q 318.29 355.69 316.31 355.22
  A 0.26 0.26 0.0 0 0 316.05 355.65
  L 317.30 357.05
  A 0.59 0.58 -40.4 0 1 317.23 357.90
  Q 316.91 358.15 316.99 358.52
  Q 317.12 359.14 317.60 358.74
  Q 318.99 357.57 320.15 358.96
  A 0.37 0.37 0.0 0 0 320.75 358.52
  Q 319.70 356.84 321.42 355.96
  A 0.36 0.35 34.2 0 0 321.29 355.29
  L 320.04 355.16
  Q 319.59 355.12 319.44 354.69"
/>
<path stroke="#8a81ae" vector-effect="non-scaling-stroke" d="
  M 254.84 360.07
  A 0.37 0.36 60.4 0 0 254.70 360.61
  L 255.21 361.38
  A 1.11 1.11 0.0 0 0 257.21 360.52
  Q 256.88 359.09 254.84 360.07"
/>
<path stroke="#76bf96" vector-effect="non-scaling-stroke" d="
  M 366.5432 283.7523
  A 3.71 2.95 126.5 0 0 371.1214 282.5247
  A 3.71 2.95 126.5 0 0 370.9568 277.7877
  A 3.71 2.95 126.5 0 0 366.3786 279.0153
  A 3.71 2.95 126.5 0 0 366.5432 283.7523"
/>
<path stroke="#11994c" vector-effect="non-scaling-stroke" d="
  M 236.37 441.17
  C 232.31 443.80 220.07 442.38 216.49 441.95
  Q 212.66 441.49 206.77 442.79
  Q 190.99 446.27 178.90 452.07
  Q 165.51 458.49 165.73 470.73"
/>
<path stroke="#2ca35f" vector-effect="non-scaling-stroke" d="
  M 165.73 470.73
  Q 171.28 480.56 182.34 485.15
  Q 200.37 492.63 218.79 495.32
  Q 263.82 501.89 308.39 492.96
  C 321.66 490.30 340.53 485.09 348.54 473.25"
/>
<path stroke="#11994c" vector-effect="non-scaling-stroke" d="
  M 348.54 473.25
  C 357.94 454.30 317.49 444.26 306.31 442.31
  C 304.04 441.92 300.86 441.77 299.01 442.00
  Q 285.99 443.62 274.69 441.77"
/>
<path stroke="#3daa6c" vector-effect="non-scaling-stroke" d="
  M 348.54 473.25
  Q 348.13 470.75 346.50 470.75
  Q 256.81 470.77 165.73 470.73"
/>
</g>
<path fill="#ececec" d="
  M 254.28 0.00
  L 258.55 0.00
  C 387.32 2.03 492.36 98.66 509.52 225.43
  Q 508.78 228.69 509.81 232.28
  A 1.49 1.49 0.0 0 1 508.10 234.16
  Q 505.87 233.73 503.79 234.23
  Q 503.19 234.38 503.34 234.98
  Q 504.42 239.21 501.90 239.89
  L 500.34 225.85
  C 490.03 153.27 448.57 88.06 386.82 49.15
  C 290.43 -11.60 165.41 1.99 84.30 81.56
  Q 24.30 140.42 11.56 225.98
  L 9.43 251.00
  L 9.24 247.63
  Q 9.24 247.56 9.17 247.56
  Q 9.14 247.56 9.11 247.56
  A 0.13 0.13 0.0 0 0 8.99 247.70
  Q 9.15 251.95 8.86 255.36
  Q 8.36 261.39 8.10 255.34
  Q 8.05 253.94 7.89 251.76
  Q 7.84 251.11 7.19 251.09
  L 3.57 250.96
  Q 2.92 250.94 2.74 251.56
  Q 2.35 252.88 2.13 254.18
  C 1.76 256.34 0.38 258.00 1.13 260.71
  Q 1.17 260.86 1.02 260.91
  Q 0.88 260.95 0.75 261.00
  Q 0.58 261.06 0.55 260.88
  L 0.16 258.24
  C 0.86 180.14 36.32 105.23 97.37 56.30
  Q 165.45 1.74 254.28 0.00
  Z"
/>
<path fill="#00923f" d="
  M 500.34 225.85
  L 490.24 219.43
  Q 489.64 218.85 489.85 219.24
  Q 481.32 169.25 454.26 127.21
  Q 443.97 111.37 432.51 98.71
  Q 430.50 96.24 429.42 95.07
  C 332.76 -9.19 168.86 -7.90 75.20 99.65
  Q 61.25 115.55 50.42 133.63
  Q 25.94 174.39 18.39 221.63
  Q 18.86 221.43 17.92 221.91
  L 11.56 225.98
  Q 24.30 140.42 84.30 81.56
  C 165.41 1.99 290.43 -11.60 386.82 49.15
  C 448.57 88.06 490.03 153.27 500.34 225.85
  Z"
/>
<path fill="#7cc29a" d="
  M 432.51 98.71
  Q 411.58 99.23 391.75 98.96
  C 389.88 98.94 388.59 100.01 386.70 100.01
  Q 354.22 99.99 321.75 100.00
  C 318.70 100.00 316.08 101.48 312.57 100.91
  A 1.29 1.25 33.6 0 0 311.70 101.07
  L 309.22 102.55
  L 256.30 68.33
  A 0.57 0.57 0.0 0 0 255.68 68.33
  L 209.01 98.50
  Q 206.94 98.53 205.32 98.32
  C 196.76 97.24 187.01 98.01 178.31 98.00
  C 176.96 98.00 176.04 98.95 174.60 98.96
  Q 141.29 99.17 107.97 99.00
  C 106.31 99.00 104.76 100.11 103.50 100.08
  Q 91.24 99.77 76.44 100.29
  Q 76.16 100.30 75.91 100.42
  Q 75.62 100.56 75.54 100.25
  Q 75.43 99.87 75.20 99.65
  C 168.86 -7.90 332.76 -9.19 429.42 95.07
  Q 430.50 96.24 432.51 98.71
  Z"
/>
<path fill="#f4d564" d="
  M 309.22 102.55
  L 354.97 132.12
  L 448.02 192.25
  Q 448.01 192.39 448.00 192.53
  Q 447.99 192.81 447.76 192.97
  Q 447.04 193.45 447.01 193.09
  Q 446.96 192.63 446.51 192.68
  Q 440.52 193.24 434.50 192.94
  C 432.47 192.84 430.34 194.00 428.13 194.00
  Q 397.24 194.00 366.35 194.00
  A 0.75 0.70 -60.3 0 0 365.94 194.13
  Q 365.15 194.71 364.46 194.50
  Q 364.16 194.41 363.91 194.62
  L 363.47 195.00
  Q 353.98 179.50 342.18 168.46
  C 293.02 122.52 220.60 122.35 171.09 167.18
  Q 153.88 183.28 143.26 204.63
  Q 142.71 202.13 141.51 202.01
  Q 137.29 201.59 130.50 201.79
  C 113.01 202.29 95.45 201.99 77.95 202.01
  C 76.38 202.01 74.92 202.96 73.20 203.03
  Q 61.02 203.56 48.77 202.11
  L 153.01 134.73
  L 209.01 98.50
  L 255.68 68.33
  A 0.57 0.57 0.0 0 1 256.30 68.33
  L 309.22 102.55
  Z"
/>
<path fill="#6abb8d" d="
  M 209.01 98.50
  L 153.01 134.73
  Q 153.05 134.40 152.97 134.17
  Q 152.89 133.94 152.58 133.84
  Q 148.05 132.33 143.55 133.27
  Q 140.06 134.01 138.35 134.01
  Q 106.10 133.99 73.85 134.00
  C 72.45 134.00 71.34 134.94 69.78 134.96
  Q 60.45 135.11 51.04 134.95
  Q 50.58 134.94 50.63 134.48
  Q 50.73 133.69 50.42 133.63
  Q 61.25 115.55 75.20 99.65
  Q 75.43 99.87 75.54 100.25
  Q 75.62 100.56 75.91 100.42
  Q 76.16 100.30 76.44 100.29
  Q 91.24 99.77 103.50 100.08
  C 104.76 100.11 106.31 99.00 107.97 99.00
  Q 141.29 99.17 174.60 98.96
  C 176.04 98.95 176.96 98.00 178.31 98.00
  C 187.01 98.01 196.76 97.24 205.32 98.32
  Q 206.94 98.53 209.01 98.50
  Z"
/>
<path fill="#6abb8d" d="
  M 432.51 98.71
  Q 443.97 111.37 454.26 127.21
  L 453.80 127.24
  Q 453.24 127.27 453.70 127.57
  L 453.98 127.76
  A 0.67 0.67 0.0 0 1 453.61 128.99
  Q 442.37 129.00 431.36 129.00
  C 427.74 129.01 424.00 130.39 419.81 129.86
  C 416.81 129.48 414.25 129.72 411.43 129.75
  Q 384.43 130.03 357.41 130.03
  A 1.14 1.11 20.6 0 0 356.58 130.39
  L 354.97 132.12
  L 309.22 102.55
  L 311.70 101.07
  A 1.29 1.25 33.6 0 1 312.57 100.91
  C 316.08 101.48 318.70 100.00 321.75 100.00
  Q 354.22 99.99 386.70 100.01
  C 388.59 100.01 389.88 98.94 391.75 98.96
  Q 411.58 99.23 432.51 98.71
  Z"
/>
<path fill="#57b47f" d="
  M 454.26 127.21
  Q 481.32 169.25 489.85 219.24
  L 448.02 192.25
  L 354.97 132.12
  L 356.58 130.39
  A 1.14 1.11 20.6 0 1 357.41 130.03
  Q 384.43 130.03 411.43 129.75
  C 414.25 129.72 416.81 129.48 419.81 129.86
  C 424.00 130.39 427.74 129.01 431.36 129.00
  Q 442.37 129.00 453.61 128.99
  A 0.67 0.67 0.0 0 0 453.98 127.76
  L 453.70 127.57
  Q 453.24 127.27 453.80 127.24
  L 454.26 127.21
  Z"
/>
<path fill="#57b47f" d="
  M 153.01 134.73
  L 48.77 202.11
  L 18.39 221.63
  Q 25.94 174.39 50.42 133.63
  Q 50.73 133.69 50.63 134.48
  Q 50.58 134.94 51.04 134.95
  Q 60.45 135.11 69.78 134.96
  C 71.34 134.94 72.45 134.00 73.85 134.00
  Q 106.10 133.99 138.35 134.01
  Q 140.06 134.01 143.55 133.27
  Q 148.05 132.33 152.58 133.84
  Q 152.89 133.94 152.97 134.17
  Q 153.05 134.40 153.01 134.73
  Z"
/>
<path fill="#766ba1" d="
  M 342.18 168.46
  Q 314.87 169.39 289.00 169.00
  Q 287.89 168.99 286.71 169.77
  Q 286.29 170.05 285.78 170.05
  Q 251.67 170.34 217.56 170.05
  Q 216.85 170.05 215.81 170.71
  Q 215.33 171.00 214.78 171.00
  L 170.13 170.99
  Q 168.59 170.99 169.38 169.67
  Q 169.99 168.64 170.99 168.09
  Q 171.37 167.89 171.23 167.48
  Q 171.19 167.34 171.09 167.18
  C 220.60 122.35 293.02 122.52 342.18 168.46
  Z"
/>
<path fill="#6b5f9a" d="
  M 171.09 167.18
  Q 171.19 167.34 171.23 167.48
  Q 171.37 167.89 170.99 168.09
  Q 169.99 168.64 169.38 169.67
  Q 168.59 170.99 170.13 170.99
  L 214.78 171.00
  Q 215.33 171.00 215.81 170.71
  Q 216.85 170.05 217.56 170.05
  Q 251.67 170.34 285.78 170.05
  Q 286.29 170.05 286.71 169.77
  Q 287.89 168.99 289.00 169.00
  Q 314.87 169.39 342.18 168.46
  Q 353.98 179.50 363.47 195.00
  Q 368.43 203.27 372.10 212.23
  Q 370.79 214.29 369.50 214.12
  C 364.71 213.50 360.46 215.02 356.22 215.02
  Q 327.31 215.04 298.40 214.98
  Q 297.89 214.98 297.53 215.35
  Q 296.56 216.37 295.58 216.74
  Q 294.36 216.15 294.26 218.24
  A 1.62 1.61 1.8 0 1 292.61 219.78
  L 290.77 219.74
  A 0.35 0.35 0.0 0 0 290.57 220.39
  L 292.68 221.78
  Q 293.17 222.10 292.98 222.65
  Q 292.64 223.65 292.03 224.81
  Q 291.82 225.21 292.56 225.59
  Q 292.24 225.82 291.83 225.76
  A 0.31 0.31 0.0 0 1 291.65 225.24
  Q 291.74 225.14 291.81 224.98
  A 0.87 0.68 -26.7 0 0 290.28 224.68
  Q 290.15 224.95 290.25 225.76
  Q 217.99 198.91 141.12 209.50
  L 143.26 204.63
  Q 153.88 183.28 171.09 167.18
  Z"
/>
<path fill="#f5cf45" d="
  M 448.02 192.25
  L 489.85 219.24
  Q 489.64 218.85 490.24 219.43
  L 490.08 219.73
  Q 489.87 220.10 489.95 220.52
  L 491.02 226.24
  Q 491.13 226.82 490.59 227.08
  Q 439.36 251.52 383.88 263.65
  Q 383.38 263.75 382.90 263.64
  Q 382.07 263.46 381.70 264.02
  Q 382.17 237.04 372.10 212.23
  Q 368.43 203.27 363.47 195.00
  L 363.91 194.62
  Q 364.16 194.41 364.46 194.50
  Q 365.15 194.71 365.94 194.13
  A 0.75 0.70 -60.3 0 1 366.35 194.00
  Q 397.24 194.00 428.13 194.00
  C 430.34 194.00 432.47 192.84 434.50 192.94
  Q 440.52 193.24 446.51 192.68
  Q 446.96 192.63 447.01 193.09
  Q 447.04 193.45 447.76 192.97
  Q 447.99 192.81 448.00 192.53
  Q 448.01 192.39 448.02 192.25
  Z"
/>
<path fill="#f5cf45" d="
  M 143.26 204.63
  L 141.12 209.50
  Q 136.93 218.67 134.30 229.06
  Q 129.83 246.55 130.30 265.34
  Q 128.83 265.39 124.28 264.38
  Q 67.33 251.72 17.90 228.82
  Q 17.27 228.53 17.40 227.86
  L 18.46 222.43
  A 0.38 0.38 0.0 0 0 18.25 222.01
  Q 18.08 221.93 17.92 221.91
  Q 18.86 221.43 18.39 221.63
  L 48.77 202.11
  Q 61.02 203.56 73.20 203.03
  C 74.92 202.96 76.38 202.01 77.95 202.01
  C 95.45 201.99 113.01 202.29 130.50 201.79
  Q 137.29 201.59 141.51 202.01
  Q 142.71 202.13 143.26 204.63
  Z"
/>
<path fill="#ececec" d="
  M 290.25 225.76
  Q 331.63 241.42 366.44 267.64
  L 380.46 278.93
  L 376.05 299.06
  Q 358.94 283.54 339.83 271.11
  C 278.88 231.48 205.98 216.48 134.30 229.06
  Q 136.93 218.67 141.12 209.50
  Q 217.99 198.91 290.25 225.76
  Z
  M 173.48 209.89
  L 173.52 221.31
  A 0.38 0.38 0.0 0 0 173.90 221.69
  L 178.61 221.67
  A 5.67 5.46 -0.2 0 0 184.26 216.19
  L 184.26 214.93
  A 5.67 5.46 -0.2 0 0 178.57 209.49
  L 173.86 209.51
  A 0.38 0.38 0.0 0 0 173.48 209.89
  Z
  M 198.89 219.67
  L 191.46 219.44
  Q 191.00 219.42 191.00 218.96
  L 191.00 216.84
  A 0.62 0.62 0.0 0 1 191.66 216.22
  L 197.18 216.57
  Q 197.74 216.60 197.93 216.08
  Q 198.20 215.33 197.89 214.85
  Q 197.66 214.49 196.98 214.42
  Q 194.44 214.17 191.83 214.27
  A 0.56 0.56 0.0 0 1 191.25 213.71
  L 191.25 212.36
  A 0.61 0.61 0.0 0 1 191.89 211.75
  L 198.69 212.07
  Q 199.50 212.11 199.50 211.30
  L 199.50 210.55
  Q 199.50 209.86 198.80 209.83
  L 189.78 209.49
  A 0.50 0.50 0.0 0 0 189.26 209.97
  L 188.85 221.04
  A 0.68 0.68 0.0 0 0 189.53 221.75
  L 199.19 221.75
  Q 199.91 221.75 199.77 221.05
  L 199.63 220.31
  Q 199.51 219.69 198.89 219.67
  Z
  M 161.04 218.04
  C 162.27 217.77 164.67 217.40 165.55 218.52
  C 166.27 219.45 165.90 220.90 166.53 221.61
  Q 167.14 222.32 168.27 221.87
  Q 168.72 221.69 168.59 221.23
  L 167.50 217.11
  Q 167.40 216.73 167.61 216.40
  C 172.40 209.05 161.07 210.27 158.17 210.57
  Q 157.79 210.61 157.80 211.00
  L 158.35 222.06
  Q 158.38 222.50 158.82 222.50
  L 160.01 222.50
  Q 160.51 222.50 160.51 222.00
  L 160.48 218.74
  Q 160.48 218.17 161.04 218.04
  Z
  M 209.56 217.93
  L 208.15 211.18
  A 1.59 1.59 0.0 0 0 205.01 211.37
  L 204.14 221.48
  Q 204.08 222.15 204.74 222.24
  L 205.41 222.33
  A 0.52 0.51 9.0 0 0 205.98 221.92
  Q 206.65 218.41 206.48 214.87
  Q 206.48 214.84 206.51 214.83
  Q 206.64 214.79 206.78 214.74
  Q 207.00 214.67 207.04 214.89
  L 208.28 221.76
  A 1.26 1.26 0.0 0 0 210.71 221.97
  L 213.01 215.63
  A 0.23 0.23 0.0 0 1 213.45 215.73
  L 212.80 222.24
  Q 212.75 222.77 213.25 222.95
  L 213.89 223.19
  A 0.68 0.68 0.0 0 0 214.80 222.61
  L 215.75 211.66
  Q 215.80 211.11 215.24 211.08
  L 213.54 210.97
  Q 212.88 210.93 212.64 211.55
  L 210.12 217.98
  Q 209.76 218.90 209.56 217.93
  Z
  M 148.6102 223.6519
  A 5.92 5.27 83.5 0 0 153.1761 217.1734
  A 5.92 5.27 83.5 0 0 147.2698 211.8881
  A 5.92 5.27 83.5 0 0 142.7039 218.3666
  A 5.92 5.27 83.5 0 0 148.6102 223.6519
  Z
  M 232.03 217.79
  L 232.23 217.25
  Q 232.42 216.73 232.97 216.82
  L 238.05 217.68
  Q 238.70 217.79 239.01 217.21
  L 239.25 216.77
  A 0.69 0.69 0.0 0 0 238.76 215.77
  L 231.34 214.43
  Q 230.73 214.32 230.62 214.94
  L 228.98 224.45
  Q 228.87 225.05 229.47 225.15
  L 237.09 226.48
  Q 237.60 226.57 237.83 226.11
  Q 238.17 225.44 237.84 224.90
  Q 237.53 224.41 236.62 224.28
  Q 234.24 223.94 231.86 223.48
  Q 231.35 223.38 231.40 222.85
  L 231.55 221.35
  Q 231.64 220.51 232.48 220.67
  L 236.56 221.49
  Q 237.04 221.59 237.22 221.13
  L 237.53 220.32
  A 0.63 0.63 0.0 0 0 237.05 219.48
  L 232.55 218.70
  Q 231.75 218.56 232.03 217.79
  Z
  M 255.40 226.07
  C 257.85 226.33 261.43 228.18 263.27 225.78
  C 267.56 220.16 258.27 218.74 255.25 218.08
  Q 254.78 217.98 254.66 218.43
  L 251.78 229.10
  Q 251.65 229.60 252.14 229.75
  L 253.08 230.02
  A 0.65 0.65 0.0 0 0 253.88 229.58
  L 254.76 226.50
  Q 254.90 226.02 255.40 226.07
  Z
  M 270.25 230.08
  L 273.93 231.26
  Q 274.65 231.49 274.57 232.24
  L 274.23 235.53
  A 0.67 0.66 -74.6 0 0 274.60 236.19
  L 275.08 236.42
  Q 275.71 236.72 276.01 236.08
  Q 277.05 233.91 276.52 231.64
  Q 276.41 231.16 276.89 231.03
  C 279.84 230.27 279.80 226.48 277.68 224.76
  Q 276.16 223.52 270.52 222.32
  Q 270.03 222.22 269.87 222.70
  L 266.56 233.00
  Q 266.37 233.59 266.97 233.77
  L 267.89 234.04
  Q 268.52 234.22 268.70 233.59
  L 269.58 230.45
  Q 269.73 229.92 270.25 230.08
  Z
  M 286.0103 240.1133
  A 5.93 5.27 109.4 0 0 292.9508 236.2705
  A 5.93 5.27 109.4 0 0 289.9497 228.9267
  A 5.93 5.27 109.4 0 0 283.0092 232.7695
  A 5.93 5.27 109.4 0 0 286.0103 240.1133
  Z
  M 303.75 246.98
  L 303.75 247.55
  A 0.65 0.65 0.0 0 0 304.99 247.82
  L 307.24 242.94
  A 0.61 0.60 -68.7 0 0 306.88 242.11
  L 303.48 241.00
  A 0.82 0.82 0.0 0 0 302.81 242.48
  L 303.46 242.87
  Q 304.12 243.25 303.46 243.64
  C 302.05 244.49 300.21 243.98 299.64 242.31
  C 298.23 238.17 303.29 233.70 305.84 239.63
  A 0.91 0.91 0.0 0 0 307.57 239.42
  Q 307.96 237.09 305.29 235.51
  C 297.54 230.93 292.46 246.36 303.07 246.30
  Q 303.75 246.30 303.75 246.98
  Z
  M 314.32 239.61
  Q 311.70 244.61 309.48 249.39
  Q 308.97 250.50 310.25 250.82
  A 0.99 0.98 19.3 0 0 311.40 250.27
  L 312.59 247.59
  A 0.63 0.62 25.8 0 1 313.46 247.29
  L 316.87 249.10
  A 0.87 0.86 -68.7 0 1 317.30 250.09
  L 316.45 253.25
  Q 316.37 253.56 316.62 253.75
  L 317.43 254.40
  Q 318.21 255.02 318.45 254.05
  L 319.51 249.79
  Q 319.62 249.33 320.07 249.22
  C 320.91 249.00 321.36 248.80 321.84 248.06
  C 324.96 243.20 317.70 240.86 314.66 239.50
  A 0.27 0.27 0.0 0 0 314.32 239.61
  Z
  M 327.79 253.97
  Q 329.77 254.77 332.20 256.54
  Q 332.75 256.94 333.08 256.35
  L 333.57 255.47
  Q 333.89 254.90 333.32 254.59
  L 328.42 251.93
  Q 327.84 251.62 328.19 251.06
  L 328.89 249.95
  Q 329.22 249.43 329.74 249.74
  L 335.74 253.31
  A 0.62 0.61 28.1 0 0 336.60 253.05
  L 337.06 252.11
  Q 337.33 251.56 336.80 251.26
  L 328.84 246.78
  Q 328.40 246.54 328.15 246.98
  L 322.78 256.53
  A 0.55 0.55 0.0 0 0 322.99 257.28
  L 331.15 261.97
  Q 331.76 262.32 332.16 261.74
  L 332.61 261.08
  Q 333.02 260.47 332.39 260.11
  L 326.46 256.72
  A 1.53 1.53 0.0 0 1 327.79 253.97
  Z
  M 343.71 266.45
  Q 340.53 266.98 339.65 263.38
  Q 339.01 260.73 337.36 262.80
  A 1.17 1.17 0.0 0 0 337.28 264.14
  C 338.93 266.83 344.11 271.24 346.65 267.36
  A 2.80 2.80 0.0 0 0 346.44 264.00
  L 343.08 260.09
  A 0.97 0.97 0.0 0 1 343.88 258.48
  Q 345.39 258.58 346.38 259.75
  A 1.59 1.52 -65.4 0 1 346.74 260.78
  Q 346.71 261.55 347.30 262.20
  A 1.36 1.36 0.0 0 0 349.46 260.55
  C 344.64 253.07 334.85 256.32 344.18 264.84
  A 0.94 0.93 61.5 0 1 343.71 266.45
  Z
  M 355.89 275.36
  Q 353.05 274.71 352.64 271.77
  Q 352.56 271.17 352.01 270.90
  L 351.10 270.46
  A 1.09 1.09 0.0 0 0 349.65 271.94
  Q 351.73 275.96 355.28 277.35
  C 357.12 278.07 359.15 277.47 359.65 275.49
  C 360.20 273.26 357.40 270.46 355.95 268.94
  A 1.00 1.00 0.0 0 1 356.73 267.25
  Q 359.62 267.39 359.77 270.16
  Q 359.80 270.67 360.16 271.04
  L 360.38 271.25
  A 1.32 1.32 0.0 0 0 362.39 269.56
  C 360.81 267.33 356.98 263.27 354.09 265.85
  C 351.59 268.07 355.43 272.03 356.88 273.74
  A 1.00 1.00 0.0 0 1 355.89 275.36
  Z
  M 365.3064 285.6077
  A 5.93 5.27 125.5 0 0 373.0404 283.8403
  A 5.93 5.27 125.5 0 0 372.1936 275.9523
  A 5.93 5.27 125.5 0 0 364.4596 277.7197
  A 5.93 5.27 125.5 0 0 365.3064 285.6077
  Z"
/>
<path fill="#57b47f" d="
  M 173.48 209.89
  A 0.38 0.38 0.0 0 1 173.86 209.51
  L 178.57 209.49
  A 5.67 5.46 -0.2 0 1 184.26 214.93
  L 184.26 216.19
  A 5.67 5.46 -0.2 0 1 178.61 221.67
  L 173.90 221.69
  A 0.38 0.38 0.0 0 1 173.52 221.31
  L 173.48 209.89
  Z
  M 175.79 212.39
  L 175.68 218.71
  A 0.72 0.72 0.0 0 0 176.38 219.45
  L 177.58 219.47
  A 4.58 3.71 1.0 0 0 182.23 215.84
  L 182.23 215.50
  A 4.58 3.71 1.0 0 0 177.72 211.71
  L 176.52 211.69
  A 0.72 0.72 0.0 0 0 175.79 212.39
  Z"
/>
<path fill="#57b47f" d="
  M 191.46 219.44
  L 198.89 219.67
  Q 199.51 219.69 199.63 220.31
  L 199.77 221.05
  Q 199.91 221.75 199.19 221.75
  L 189.53 221.75
  A 0.68 0.68 0.0 0 1 188.85 221.04
  L 189.26 209.97
  A 0.50 0.50 0.0 0 1 189.78 209.49
  L 198.80 209.83
  Q 199.50 209.86 199.50 210.55
  L 199.50 211.30
  Q 199.50 212.11 198.69 212.07
  L 191.89 211.75
  A 0.61 0.61 0.0 0 0 191.25 212.36
  L 191.25 213.71
  A 0.56 0.56 0.0 0 0 191.83 214.27
  Q 194.44 214.17 196.98 214.42
  Q 197.66 214.49 197.89 214.85
  Q 198.20 215.33 197.93 216.08
  Q 197.74 216.60 197.18 216.57
  L 191.66 216.22
  A 0.62 0.62 0.0 0 0 191.00 216.84
  L 191.00 218.96
  Q 191.00 219.42 191.46 219.44
  Z"
/>
<path fill="#57b47f" d="
  M 160.48 218.74
  L 160.51 222.00
  Q 160.51 222.50 160.01 222.50
  L 158.82 222.50
  Q 158.38 222.50 158.35 222.06
  L 157.80 211.00
  Q 157.79 210.61 158.17 210.57
  C 161.07 210.27 172.40 209.05 167.61 216.40
  Q 167.40 216.73 167.50 217.11
  L 168.59 221.23
  Q 168.72 221.69 168.27 221.87
  Q 167.14 222.32 166.53 221.61
  C 165.90 220.90 166.27 219.45 165.55 218.52
  C 164.67 217.40 162.27 217.77 161.04 218.04
  Q 160.48 218.17 160.48 218.74
  Z
  M 165.8813 213.1458
  A 0.81 0.81 0.0 0 0 165.0327 212.3763
  L 160.7178 212.5873
  A 0.81 0.81 0.0 0 0 159.9484 213.4359
  L 160.0187 214.8742
  A 0.81 0.81 0.0 0 0 160.8673 215.6437
  L 165.1822 215.4327
  A 0.81 0.81 0.0 0 0 165.9516 214.5841
  L 165.8813 213.1458
  Z"
/>
<path fill="#57b47f" d="
  M 210.12 217.98
  L 212.64 211.55
  Q 212.88 210.93 213.54 210.97
  L 215.24 211.08
  Q 215.80 211.11 215.75 211.66
  L 214.80 222.61
  A 0.68 0.68 0.0 0 1 213.89 223.19
  L 213.25 222.95
  Q 212.75 222.77 212.80 222.24
  L 213.45 215.73
  A 0.23 0.23 0.0 0 0 213.01 215.63
  L 210.71 221.97
  A 1.26 1.26 0.0 0 1 208.28 221.76
  L 207.04 214.89
  Q 207.00 214.67 206.78 214.74
  Q 206.64 214.79 206.51 214.83
  Q 206.48 214.84 206.48 214.87
  Q 206.65 218.41 205.98 221.92
  A 0.52 0.51 9.0 0 1 205.41 222.33
  L 204.74 222.24
  Q 204.08 222.15 204.14 221.48
  L 205.01 211.37
  A 1.59 1.59 0.0 0 1 208.15 211.18
  L 209.56 217.93
  Q 209.76 218.90 210.12 217.98
  Z"
/>
<path fill="#ececec" d="
  M 175.79 212.39
  A 0.72 0.72 0.0 0 1 176.52 211.69
  L 177.72 211.71
  A 4.58 3.71 1.0 0 1 182.23 215.50
  L 182.23 215.84
  A 4.58 3.71 1.0 0 1 177.58 219.47
  L 176.38 219.45
  A 0.72 0.72 0.0 0 1 175.68 218.71
  L 175.79 212.39
  Z"
/>
<path fill="#57b47f" d="
  M 148.6102 223.6519
  A 5.92 5.27 83.5 0 1 142.7039 218.3666
  A 5.92 5.27 83.5 0 1 147.2698 211.8881
  A 5.92 5.27 83.5 0 1 153.1761 217.1734
  A 5.92 5.27 83.5 0 1 148.6102 223.6519
  Z
  M 148.3430 221.4994
  A 3.76 2.94 84.0 0 0 150.8739 217.4527
  A 3.76 2.94 84.0 0 0 147.5570 214.0206
  A 3.76 2.94 84.0 0 0 145.0261 218.0673
  A 3.76 2.94 84.0 0 0 148.3430 221.4994
  Z"
/>
<path fill="#5b4e90" d="
  M 372.10 212.23
  Q 382.17 237.04 381.70 264.02
  Q 381.88 264.40 381.53 264.51
  L 366.44 267.64
  Q 331.63 241.42 290.25 225.76
  Q 290.15 224.95 290.28 224.68
  A 0.87 0.68 -26.7 0 1 291.81 224.98
  Q 291.74 225.14 291.65 225.24
  A 0.31 0.31 0.0 0 0 291.83 225.76
  Q 292.24 225.82 292.56 225.59
  L 294.78 223.84
  Q 295.11 223.57 295.44 223.84
  L 297.37 225.43
  A 0.44 0.44 0.0 0 0 298.05 224.93
  L 297.16 222.69
  Q 296.98 222.23 297.37 221.93
  L 299.41 220.33
  A 0.34 0.34 0.0 0 0 299.18 219.72
  L 296.96 219.84
  Q 296.43 219.86 296.16 219.41
  Q 295.48 218.27 295.58 216.74
  Q 296.56 216.37 297.53 215.35
  Q 297.89 214.98 298.40 214.98
  Q 327.31 215.04 356.22 215.02
  C 360.46 215.02 364.71 213.50 369.50 214.12
  Q 370.79 214.29 372.10 212.23
  Z"
/>
<rect fill="#ececec" x="-2.97" y="-1.53" transform="translate(162.95,214.01) rotate(-2.8)" width="5.94" height="3.06" rx="0.81"/>
<ellipse fill="#ececec" cx="0.00" cy="0.00" transform="translate(147.95,217.76) rotate(84.0)" rx="3.76" ry="2.94"/>
<path fill="#57b47f" d="
  M 232.55 218.70
  L 237.05 219.48
  A 0.63 0.63 0.0 0 1 237.53 220.32
  L 237.22 221.13
  Q 237.04 221.59 236.56 221.49
  L 232.48 220.67
  Q 231.64 220.51 231.55 221.35
  L 231.40 222.85
  Q 231.35 223.38 231.86 223.48
  Q 234.24 223.94 236.62 224.28
  Q 237.53 224.41 237.84 224.90
  Q 238.17 225.44 237.83 226.11
  Q 237.60 226.57 237.09 226.48
  L 229.47 225.15
  Q 228.87 225.05 228.98 224.45
  L 230.62 214.94
  Q 230.73 214.32 231.34 214.43
  L 238.76 215.77
  A 0.69 0.69 0.0 0 1 239.25 216.77
  L 239.01 217.21
  Q 238.70 217.79 238.05 217.68
  L 232.97 216.82
  Q 232.42 216.73 232.23 217.25
  L 232.03 217.79
  Q 231.75 218.56 232.55 218.70
  Z"
/>
<path fill="#ececec" d="
  M 295.58 216.74
  Q 295.48 218.27 296.16 219.41
  Q 296.43 219.86 296.96 219.84
  L 299.18 219.72
  A 0.34 0.34 0.0 0 1 299.41 220.33
  L 297.37 221.93
  Q 296.98 222.23 297.16 222.69
  L 298.05 224.93
  A 0.44 0.44 0.0 0 1 297.37 225.43
  L 295.44 223.84
  Q 295.11 223.57 294.78 223.84
  L 292.56 225.59
  Q 291.82 225.21 292.03 224.81
  Q 292.64 223.65 292.98 222.65
  Q 293.17 222.10 292.68 221.78
  L 290.57 220.39
  A 0.35 0.35 0.0 0 1 290.77 219.74
  L 292.61 219.78
  A 1.62 1.61 1.8 0 0 294.26 218.24
  Q 294.36 216.15 295.58 216.74
  Z"
/>
<path fill="#57b47f" d="
  M 254.76 226.50
  L 253.88 229.58
  A 0.65 0.65 0.0 0 1 253.08 230.02
  L 252.14 229.75
  Q 251.65 229.60 251.78 229.10
  L 254.66 218.43
  Q 254.78 217.98 255.25 218.08
  C 258.27 218.74 267.56 220.16 263.27 225.78
  C 261.43 228.18 257.85 226.33 255.40 226.07
  Q 254.90 226.02 254.76 226.50
  Z
  M 256.09 221.14
  L 255.60 223.08
  A 0.58 0.58 0.0 0 0 256.01 223.78
  L 259.10 224.58
  A 2.27 1.37 14.4 0 0 261.64 223.81
  L 261.75 223.41
  A 2.27 1.37 14.4 0 0 259.89 221.52
  L 256.80 220.72
  A 0.58 0.58 0.0 0 0 256.09 221.14
  Z"
/>
<path fill="#f8c300" d="
  M 490.24 219.43
  L 500.34 225.85
  L 501.90 239.89
  Q 504.19 268.06 500.36 295.96
  L 274.69 441.77
  L 256.44 453.53
  Q 255.99 453.82 255.53 453.53
  L 236.37 441.17
  L 12.08 296.30
  Q 12.00 296.25 11.91 296.25
  Q 11.77 296.26 11.64 296.27
  Q 8.58 273.73 9.43 251.00
  L 11.56 225.98
  L 17.92 221.91
  Q 18.08 221.93 18.25 222.01
  A 0.38 0.38 0.0 0 1 18.46 222.43
  L 17.40 227.86
  Q 17.27 228.53 17.90 228.82
  Q 67.33 251.72 124.28 264.38
  Q 128.83 265.39 130.30 265.34
  Q 130.68 265.91 130.43 265.99
  C 132.29 310.83 156.99 351.41 196.28 372.95
  C 230.12 391.51 272.99 393.40 307.74 377.02
  Q 358.23 353.21 376.05 299.06
  L 380.46 278.93
  L 381.53 264.51
  Q 381.88 264.40 381.70 264.02
  Q 382.07 263.46 382.90 263.64
  Q 383.38 263.75 383.88 263.65
  Q 439.36 251.52 490.59 227.08
  Q 491.13 226.82 491.02 226.24
  L 489.95 220.52
  Q 489.87 220.10 490.08 219.73
  L 490.24 219.43
  Z"
/>
<path fill="#ececec" d="
  M 256.09 221.14
  A 0.58 0.58 0.0 0 1 256.80 220.72
  L 259.89 221.52
  A 2.27 1.37 14.4 0 1 261.75 223.41
  L 261.64 223.81
  A 2.27 1.37 14.4 0 1 259.10 224.58
  L 256.01 223.78
  A 0.58 0.58 0.0 0 1 255.60 223.08
  L 256.09 221.14
  Z"
/>
<path fill="#57b47f" d="
  M 269.58 230.45
  L 268.70 233.59
  Q 268.52 234.22 267.89 234.04
  L 266.97 233.77
  Q 266.37 233.59 266.56 233.00
  L 269.87 222.70
  Q 270.03 222.22 270.52 222.32
  Q 276.16 223.52 277.68 224.76
  C 279.80 226.48 279.84 230.27 276.89 231.03
  Q 276.41 231.16 276.52 231.64
  Q 277.05 233.91 276.01 236.08
  Q 275.71 236.72 275.08 236.42
  L 274.60 236.19
  A 0.67 0.66 -74.6 0 1 274.23 235.53
  L 274.57 232.24
  Q 274.65 231.49 273.93 231.26
  L 270.25 230.08
  Q 269.73 229.92 269.58 230.45
  Z
  M 271.12 225.42
  L 270.58 227.16
  A 0.69 0.69 0.0 0 0 271.03 228.02
  L 273.68 228.84
  A 2.68 1.43 17.3 0 0 276.66 228.28
  L 276.76 227.95
  A 2.68 1.43 17.3 0 0 274.63 225.79
  L 271.98 224.96
  A 0.69 0.69 0.0 0 0 271.12 225.42
  Z"
/>
<path fill="#5b4e90" d="
  M 339.83 271.11
  L 338.88 271.65
  Q 338.49 271.87 338.05 271.94
  C 310.02 275.91 285.68 277.19 256.74 277.95
  Q 256.37 277.46 256.00 277.45
  Q 255.62 277.43 255.31 277.93
  Q 194.26 278.04 134.37 266.59
  C 133.19 266.37 131.92 265.85 130.43 265.99
  Q 130.68 265.91 130.30 265.34
  Q 129.83 246.55 134.30 229.06
  C 205.98 216.48 278.88 231.48 339.83 271.11
  Z
  M 154.73 236.42
  A 0.35 0.35 0.0 0 1 154.39 236.17
  L 153.59 233.54
  A 0.35 0.35 0.0 0 0 152.92 233.54
  L 152.11 236.17
  A 0.35 0.35 0.0 0 1 151.77 236.42
  L 149.02 236.36
  A 0.35 0.35 0.0 0 0 148.81 237.00
  L 151.06 238.58
  A 0.35 0.35 0.0 0 1 151.19 238.99
  L 150.29 241.59
  A 0.35 0.35 0.0 0 0 150.83 241.98
  L 153.04 240.33
  A 0.35 0.35 0.0 0 1 153.46 240.33
  L 155.65 241.99
  A 0.35 0.35 0.0 0 0 156.20 241.60
  L 155.30 238.99
  A 0.35 0.35 0.0 0 1 155.43 238.59
  L 157.70 237.02
  A 0.35 0.35 0.0 0 0 157.49 236.38
  L 154.73 236.42
  Z
  M 288.94 253.25
  L 287.73 253.25
  A 0.40 0.40 0.0 0 0 287.55 254.00
  Q 289.35 254.94 288.33 256.58
  A 0.34 0.34 0.0 0 0 288.81 257.04
  L 289.91 256.30
  A 0.66 0.65 -40.6 0 1 290.72 256.36
  L 291.94 257.52
  A 0.27 0.27 0.0 0 0 292.36 257.18
  Q 291.09 255.20 292.97 253.96
  A 0.38 0.38 0.0 0 0 292.64 253.29
  Q 290.99 253.84 290.77 252.07
  A 0.39 0.39 0.0 0 0 290.04 251.94
  L 289.55 252.88
  Q 289.36 253.25 288.94 253.25
  Z
  M 209.36 264.75
  A 0.32 0.32 0.0 0 1 209.05 264.53
  L 208.40 262.40
  A 0.32 0.32 0.0 0 0 207.78 262.40
  L 207.10 264.52
  A 0.32 0.32 0.0 0 1 206.79 264.74
  L 204.57 264.71
  A 0.32 0.32 0.0 0 0 204.37 265.29
  L 206.18 266.59
  A 0.32 0.32 0.0 0 1 206.30 266.96
  L 205.58 269.07
  A 0.32 0.32 0.0 0 0 206.07 269.43
  L 207.87 268.11
  A 0.32 0.32 0.0 0 1 208.25 268.11
  L 210.03 269.45
  A 0.32 0.32 0.0 0 0 210.53 269.09
  L 209.83 266.97
  A 0.32 0.32 0.0 0 1 209.95 266.61
  L 211.77 265.33
  A 0.32 0.32 0.0 0 0 211.59 264.75
  L 209.36 264.75
  Z"
/>
<path fill="#ececec" d="
  M 271.12 225.42
  A 0.69 0.69 0.0 0 1 271.98 224.96
  L 274.63 225.79
  A 2.68 1.43 17.3 0 1 276.76 227.95
  L 276.66 228.28
  A 2.68 1.43 17.3 0 1 273.68 228.84
  L 271.03 228.02
  A 0.69 0.69 0.0 0 1 270.58 227.16
  L 271.12 225.42
  Z"
/>
<path fill="#cccccf" d="
  M 509.52 225.43
  Q 511.58 241.48 512.00 257.57
  L 512.00 263.79
  C 509.80 404.86 400.41 519.22 258.44 522.00
  L 253.20 522.00
  C 182.54 520.79 115.19 490.53 68.54 438.71
  Q 2.29 365.12 0.00 263.93
  L 0.00 258.19
  Q 0.08 258.21 0.16 258.24
  L 0.55 260.88
  Q 0.58 261.06 0.75 261.00
  Q 0.88 260.95 1.02 260.91
  Q 1.17 260.86 1.13 260.71
  C 0.38 258.00 1.76 256.34 2.13 254.18
  Q 2.35 252.88 2.74 251.56
  Q 2.92 250.94 3.57 250.96
  L 7.19 251.09
  Q 7.84 251.11 7.89 251.76
  Q 8.05 253.94 8.10 255.34
  Q 8.36 261.39 8.86 255.36
  Q 9.15 251.95 8.99 247.70
  A 0.13 0.13 0.0 0 1 9.11 247.56
  Q 9.14 247.56 9.17 247.56
  Q 9.24 247.56 9.24 247.63
  L 9.43 251.00
  Q 8.58 273.73 11.64 296.27
  C 31.18 431.71 155.30 528.62 291.85 508.12
  C 401.23 491.70 484.86 404.88 500.36 295.96
  Q 504.19 268.06 501.90 239.89
  Q 504.42 239.21 503.34 234.98
  Q 503.19 234.38 503.79 234.23
  Q 505.87 233.73 508.10 234.16
  A 1.49 1.49 0.0 0 0 509.81 232.28
  Q 508.78 228.69 509.52 225.43
  Z"
/>
<path fill="#57b47f" d="
  M 286.0103 240.1133
  A 5.93 5.27 109.4 0 1 283.0092 232.7695
  A 5.93 5.27 109.4 0 1 289.9497 228.9267
  A 5.93 5.27 109.4 0 1 292.9508 236.2705
  A 5.93 5.27 109.4 0 1 286.0103 240.1133
  Z
  M 286.6803 238.0179
  A 3.70 2.99 110.4 0 0 290.7725 235.5922
  A 3.70 2.99 110.4 0 0 289.2597 231.0821
  A 3.70 2.99 110.4 0 0 285.1675 233.5078
  A 3.70 2.99 110.4 0 0 286.6803 238.0179
  Z"
/>
<ellipse fill="#ececec" cx="0.00" cy="0.00" transform="translate(287.97,234.55) rotate(110.4)" rx="3.70" ry="2.99"/>
<path fill="#ececec" d="
  M 154.73 236.42
  L 157.49 236.38
  A 0.35 0.35 0.0 0 1 157.70 237.02
  L 155.43 238.59
  A 0.35 0.35 0.0 0 0 155.30 238.99
  L 156.20 241.60
  A 0.35 0.35 0.0 0 1 155.65 241.99
  L 153.46 240.33
  A 0.35 0.35 0.0 0 0 153.04 240.33
  L 150.83 241.98
  A 0.35 0.35 0.0 0 1 150.29 241.59
  L 151.19 238.99
  A 0.35 0.35 0.0 0 0 151.06 238.58
  L 148.81 237.00
  A 0.35 0.35 0.0 0 1 149.02 236.36
  L 151.77 236.42
  A 0.35 0.35 0.0 0 0 152.11 236.17
  L 152.92 233.54
  A 0.35 0.35 0.0 0 1 153.59 233.54
  L 154.39 236.17
  A 0.35 0.35 0.0 0 0 154.73 236.42
  Z"
/>
<path fill="#57b47f" d="
  M 303.75 246.98
  Q 303.75 246.30 303.07 246.30
  C 292.46 246.36 297.54 230.93 305.29 235.51
  Q 307.96 237.09 307.57 239.42
  A 0.91 0.91 0.0 0 1 305.84 239.63
  C 303.29 233.70 298.23 238.17 299.64 242.31
  C 300.21 243.98 302.05 244.49 303.46 243.64
  Q 304.12 243.25 303.46 242.87
  L 302.81 242.48
  A 0.82 0.82 0.0 0 1 303.48 241.00
  L 306.88 242.11
  A 0.61 0.60 -68.7 0 1 307.24 242.94
  L 304.99 247.82
  A 0.65 0.65 0.0 0 1 303.75 247.55
  L 303.75 246.98
  Z"
/>
<path fill="#57b47f" d="
  M 314.32 239.61
  A 0.27 0.27 0.0 0 1 314.66 239.50
  C 317.70 240.86 324.96 243.20 321.84 248.06
  C 321.36 248.80 320.91 249.00 320.07 249.22
  Q 319.62 249.33 319.51 249.79
  L 318.45 254.05
  Q 318.21 255.02 317.43 254.40
  L 316.62 253.75
  Q 316.37 253.56 316.45 253.25
  L 317.30 250.09
  A 0.87 0.86 -68.7 0 0 316.87 249.10
  L 313.46 247.29
  A 0.63 0.62 25.8 0 0 312.59 247.59
  L 311.40 250.27
  A 0.99 0.98 19.3 0 1 310.25 250.82
  Q 308.97 250.50 309.48 249.39
  Q 311.70 244.61 314.32 239.61
  Z
  M 315.09 242.60
  L 314.09 244.60
  A 0.45 0.45 0.0 0 0 314.29 245.21
  L 317.35 246.74
  A 2.15 1.45 26.6 0 0 319.92 246.41
  L 320.03 246.19
  A 2.15 1.45 26.6 0 0 318.75 243.93
  L 315.69 242.40
  A 0.45 0.45 0.0 0 0 315.09 242.60
  Z"
/>
<path fill="#ececec" d="
  M 315.09 242.60
  A 0.45 0.45 0.0 0 1 315.69 242.40
  L 318.75 243.93
  A 2.15 1.45 26.6 0 1 320.03 246.19
  L 319.92 246.41
  A 2.15 1.45 26.6 0 1 317.35 246.74
  L 314.29 245.21
  A 0.45 0.45 0.0 0 1 314.09 244.60
  L 315.09 242.60
  Z"
/>
<path fill="#57b47f" d="
  M 327.79 253.97
  A 1.53 1.53 0.0 0 0 326.46 256.72
  L 332.39 260.11
  Q 333.02 260.47 332.61 261.08
  L 332.16 261.74
  Q 331.76 262.32 331.15 261.97
  L 322.99 257.28
  A 0.55 0.55 0.0 0 1 322.78 256.53
  L 328.15 246.98
  Q 328.40 246.54 328.84 246.78
  L 336.80 251.26
  Q 337.33 251.56 337.06 252.11
  L 336.60 253.05
  A 0.62 0.61 28.1 0 1 335.74 253.31
  L 329.74 249.74
  Q 329.22 249.43 328.89 249.95
  L 328.19 251.06
  Q 327.84 251.62 328.42 251.93
  L 333.32 254.59
  Q 333.89 254.90 333.57 255.47
  L 333.08 256.35
  Q 332.75 256.94 332.20 256.54
  Q 329.77 254.77 327.79 253.97
  Z"
/>
<path fill="#ececec" d="
  M 289.55 252.88
  L 290.04 251.94
  A 0.39 0.39 0.0 0 1 290.77 252.07
  Q 290.99 253.84 292.64 253.29
  A 0.38 0.38 0.0 0 1 292.97 253.96
  Q 291.09 255.20 292.36 257.18
  A 0.27 0.27 0.0 0 1 291.94 257.52
  L 290.72 256.36
  A 0.66 0.65 -40.6 0 0 289.91 256.30
  L 288.81 257.04
  A 0.34 0.34 0.0 0 1 288.33 256.58
  Q 289.35 254.94 287.55 254.00
  A 0.40 0.40 0.0 0 1 287.73 253.25
  L 288.94 253.25
  Q 289.36 253.25 289.55 252.88
  Z"
/>
<path fill="#57b47f" d="
  M 343.71 266.45
  A 0.94 0.93 61.5 0 0 344.18 264.84
  C 334.85 256.32 344.64 253.07 349.46 260.55
  A 1.36 1.36 0.0 0 1 347.30 262.20
  Q 346.71 261.55 346.74 260.78
  A 1.59 1.52 -65.4 0 0 346.38 259.75
  Q 345.39 258.58 343.88 258.48
  A 0.97 0.97 0.0 0 0 343.08 260.09
  L 346.44 264.00
  A 2.80 2.80 0.0 0 1 346.65 267.36
  C 344.11 271.24 338.93 266.83 337.28 264.14
  A 1.17 1.17 0.0 0 1 337.36 262.80
  Q 339.01 260.73 339.65 263.38
  Q 340.53 266.98 343.71 266.45
  Z"
/>
<path fill="#ececec" d="
  M 209.36 264.75
  L 211.59 264.75
  A 0.32 0.32 0.0 0 1 211.77 265.33
  L 209.95 266.61
  A 0.32 0.32 0.0 0 0 209.83 266.97
  L 210.53 269.09
  A 0.32 0.32 0.0 0 1 210.03 269.45
  L 208.25 268.11
  A 0.32 0.32 0.0 0 0 207.87 268.11
  L 206.07 269.43
  A 0.32 0.32 0.0 0 1 205.58 269.07
  L 206.30 266.96
  A 0.32 0.32 0.0 0 0 206.18 266.59
  L 204.37 265.29
  A 0.32 0.32 0.0 0 1 204.57 264.71
  L 206.79 264.74
  A 0.32 0.32 0.0 0 0 207.10 264.52
  L 207.78 262.40
  A 0.32 0.32 0.0 0 1 208.40 262.40
  L 209.05 264.53
  A 0.32 0.32 0.0 0 0 209.36 264.75
  Z"
/>
<path fill="#28166f" d="
  M 381.53 264.51
  L 380.46 278.93
  L 366.44 267.64
  L 381.53 264.51
  Z"
/>
<path fill="#00923f" d="
  M 355.89 275.36
  A 1.00 1.00 0.0 0 0 356.88 273.74
  C 355.43 272.03 351.59 268.07 354.09 265.85
  C 356.98 263.27 360.81 267.33 362.39 269.56
  A 1.32 1.32 0.0 0 1 360.38 271.25
  L 360.16 271.04
  Q 359.80 270.67 359.77 270.16
  Q 359.62 267.39 356.73 267.25
  A 1.00 1.00 0.0 0 0 355.95 268.94
  C 357.40 270.46 360.20 273.26 359.65 275.49
  C 359.15 277.47 357.12 278.07 355.28 277.35
  Q 351.73 275.96 349.65 271.94
  A 1.09 1.09 0.0 0 1 351.10 270.46
  L 352.01 270.90
  Q 352.56 271.17 352.64 271.77
  Q 353.05 274.71 355.89 275.36
  Z"
/>
<path fill="#28166f" d="
  M 255.31 277.93
  Q 255.35 278.83 255.00 279.53
  A 0.84 0.83 -76.9 0 1 254.25 280.00
  L 252.72 280.00
  A 0.36 0.36 0.0 0 0 252.49 280.64
  L 254.02 281.94
  A 0.67 0.67 0.0 0 1 254.20 282.72
  L 253.52 284.24
  A 0.37 0.37 0.0 0 0 254.14 284.63
  Q 255.91 282.47 257.71 284.52
  A 0.41 0.41 0.0 0 0 258.40 284.10
  L 257.80 282.61
  Q 257.57 282.04 258.09 281.71
  L 259.47 280.84
  A 0.38 0.38 0.0 0 0 259.33 280.14
  L 257.59 279.88
  Q 257.15 279.81 256.93 279.42
  Q 256.62 278.84 256.74 277.95
  C 285.68 277.19 310.02 275.91 338.05 271.94
  Q 338.49 271.87 338.88 271.65
  L 339.83 271.11
  Q 358.94 283.54 376.05 299.06
  Q 358.23 353.21 307.74 377.02
  C 272.99 393.40 230.12 391.51 196.28 372.95
  C 156.99 351.41 132.29 310.83 130.43 265.99
  C 131.92 265.85 133.19 266.37 134.37 266.59
  Q 194.26 278.04 255.31 277.93
  Z
  M 175.68 284.95
  Q 175.13 284.97 175.26 285.55
  A 0.27 0.27 0.0 0 0 175.77 285.59
  Q 176.09 284.76 176.84 285.19
  Q 177.38 285.51 177.72 284.98
  L 178.44 283.84
  Q 178.64 283.53 178.32 283.34
  L 176.60 282.31
  Q 176.40 282.19 176.24 282.36
  L 175.19 283.40
  Q 174.88 283.71 175.18 284.04
  L 175.78 284.71
  A 0.15 0.14 68.2 0 1 175.68 284.95
  Z
  M 165.89 290.03
  A 0.35 0.35 0.0 0 1 165.55 289.78
  L 164.76 287.21
  A 0.35 0.35 0.0 0 0 164.09 287.21
  L 163.28 289.77
  A 0.35 0.35 0.0 0 1 162.94 290.02
  L 160.26 289.97
  A 0.35 0.35 0.0 0 0 160.05 290.61
  L 162.24 292.17
  A 0.35 0.35 0.0 0 1 162.36 292.57
  L 161.50 295.11
  A 0.35 0.35 0.0 0 0 162.03 295.50
  L 164.19 293.91
  A 0.35 0.35 0.0 0 1 164.61 293.91
  L 166.76 295.52
  A 0.35 0.35 0.0 0 0 167.30 295.13
  L 166.45 292.58
  A 0.35 0.35 0.0 0 1 166.58 292.18
  L 168.78 290.64
  A 0.35 0.35 0.0 0 0 168.57 290.00
  L 165.89 290.03
  Z
  M 271.80 291.46
  A 0.32 0.32 0.0 0 1 271.48 291.23
  L 270.85 289.03
  A 0.32 0.32 0.0 0 0 270.23 289.02
  L 269.58 291.22
  A 0.32 0.32 0.0 0 1 269.26 291.45
  L 266.97 291.37
  A 0.32 0.32 0.0 0 0 266.77 291.95
  L 268.66 293.26
  A 0.32 0.32 0.0 0 1 268.78 293.63
  L 268.00 295.79
  A 0.32 0.32 0.0 0 0 268.49 296.15
  L 270.31 294.76
  A 0.32 0.32 0.0 0 1 270.71 294.76
  L 272.51 296.17
  A 0.32 0.32 0.0 0 0 273.01 295.81
  L 272.25 293.65
  A 0.32 0.32 0.0 0 1 272.38 293.28
  L 274.28 291.99
  A 0.32 0.32 0.0 0 0 274.09 291.41
  L 271.80 291.46
  Z
  M 244.10 291.25
  L 243.94 290.11
  A 0.39 0.39 0.0 0 0 243.17 290.10
  Q 242.79 292.15 240.78 291.65
  A 0.33 0.33 0.0 0 0 240.52 292.25
  L 241.54 292.93
  Q 242.14 293.34 241.81 293.98
  L 241.27 295.04
  A 0.35 0.35 0.0 0 0 241.79 295.49
  L 243.01 294.64
  A 0.59 0.58 -44.0 0 1 243.68 294.65
  L 244.79 295.45
  Q 245.63 296.05 245.24 295.09
  Q 244.49 293.21 246.15 292.27
  A 0.28 0.28 0.0 0 0 246.02 291.75
  L 244.67 291.75
  Q 244.17 291.75 244.10 291.25
  Z
  M 147.48 303.92
  L 147.09 305.11
  A 0.43 0.43 0.0 0 0 147.79 305.56
  Q 149.11 304.32 150.19 305.55
  A 0.37 0.37 0.0 0 0 150.82 305.22
  L 150.48 303.88
  A 0.67 0.65 73.1 0 1 150.89 303.09
  L 151.73 302.78
  A 0.39 0.39 0.0 0 0 151.54 302.03
  Q 149.38 302.35 149.39 300.19
  A 0.39 0.38 47.6 0 0 148.62 300.15
  Q 148.48 302.00 146.77 302.02
  Q 145.69 302.04 146.52 302.72
  L 147.32 303.38
  A 0.50 0.48 29.4 0 1 147.48 303.92
  Z
  M 248.53 302.36
  Q 250.73 304.34 251.26 301.66
  Q 251.31 301.41 251.11 301.25
  L 249.73 300.19
  Q 249.40 299.94 249.16 300.26
  L 248.42 301.25
  A 0.83 0.83 0.0 0 0 248.53 302.36
  Z
  M 191.84 302.89
  A 0.32 0.32 0.0 0 1 191.53 302.66
  L 190.87 300.54
  A 0.32 0.32 0.0 0 0 190.26 300.55
  L 189.62 302.67
  A 0.32 0.32 0.0 0 1 189.31 302.89
  L 187.09 302.87
  A 0.32 0.32 0.0 0 0 186.90 303.45
  L 188.72 304.72
  A 0.32 0.32 0.0 0 1 188.84 305.08
  L 188.13 307.19
  A 0.32 0.32 0.0 0 0 188.63 307.54
  L 190.39 306.20
  A 0.32 0.32 0.0 0 1 190.78 306.20
  L 192.56 307.53
  A 0.32 0.32 0.0 0 0 193.05 307.17
  L 192.32 305.07
  A 0.32 0.32 0.0 0 1 192.44 304.71
  L 194.25 303.42
  A 0.32 0.32 0.0 0 0 194.06 302.84
  L 191.84 302.89
  Z
  M 345.62 304.05
  A 0.30 0.30 0.0 0 1 345.33 303.83
  L 344.47 301.00
  A 0.30 0.30 0.0 0 0 343.89 300.99
  L 343.02 303.83
  A 0.30 0.30 0.0 0 1 342.72 304.04
  L 339.76 303.99
  A 0.30 0.30 0.0 0 0 339.58 304.53
  L 342.01 306.24
  A 0.30 0.30 0.0 0 1 342.12 306.58
  L 341.15 309.39
  A 0.30 0.30 0.0 0 0 341.61 309.72
  L 343.99 307.95
  A 0.30 0.30 0.0 0 1 344.35 307.95
  L 346.71 309.73
  A 0.30 0.30 0.0 0 0 347.18 309.40
  L 346.22 306.59
  A 0.30 0.30 0.0 0 1 346.33 306.25
  L 348.76 304.55
  A 0.30 0.30 0.0 0 0 348.59 304.00
  L 345.62 304.05
  Z
  M 362.70 305.81
  A 0.34 0.34 0.0 0 1 362.35 305.56
  L 361.92 304.01
  A 0.34 0.34 0.0 0 0 361.26 304.01
  L 360.84 305.57
  A 0.34 0.34 0.0 0 1 360.50 305.82
  L 358.88 305.75
  A 0.34 0.34 0.0 0 0 358.68 306.38
  L 360.03 307.26
  A 0.34 0.34 0.0 0 1 360.17 307.66
  L 359.60 309.18
  A 0.34 0.34 0.0 0 0 360.13 309.56
  L 361.39 308.55
  A 0.34 0.34 0.0 0 1 361.82 308.55
  L 363.08 309.55
  A 0.34 0.34 0.0 0 0 363.61 309.16
  L 363.04 307.65
  A 0.34 0.34 0.0 0 1 363.17 307.25
  L 364.51 306.36
  A 0.34 0.34 0.0 0 0 364.31 305.73
  L 362.70 305.81
  Z
  M 185.64 315.54
  L 183.36 315.36
  Q 183.07 315.34 183.07 315.62
  Q 183.06 315.77 183.14 315.92
  Q 183.24 316.12 183.61 316.32
  Q 184.36 316.74 184.96 317.39
  A 0.68 0.67 -55.8 0 1 185.09 318.10
  L 184.49 319.66
  A 0.35 0.34 83.0 0 0 185.01 320.07
  L 186.56 319.00
  A 0.67 0.67 0.0 0 1 187.41 319.06
  L 188.68 320.26
  A 0.40 0.40 0.0 0 0 189.30 319.76
  Q 187.79 317.34 190.20 316.26
  A 0.40 0.40 0.0 0 0 190.04 315.50
  L 188.46 315.50
  Q 187.89 315.50 187.71 314.97
  L 187.10 313.19
  A 0.42 0.42 0.0 0 0 186.28 313.30
  L 186.21 315.04
  Q 186.19 315.59 185.64 315.54
  Z
  M 350.59 315.57
  A 0.32 0.32 0.0 0 1 350.28 315.33
  L 349.65 313.15
  A 0.32 0.32 0.0 0 0 349.04 313.15
  L 348.39 315.33
  A 0.32 0.32 0.0 0 1 348.08 315.56
  L 345.80 315.48
  A 0.32 0.32 0.0 0 0 345.61 316.06
  L 347.49 317.35
  A 0.32 0.32 0.0 0 1 347.61 317.72
  L 346.83 319.86
  A 0.32 0.32 0.0 0 0 347.33 320.22
  L 349.13 318.83
  A 0.32 0.32 0.0 0 1 349.52 318.83
  L 351.31 320.23
  A 0.32 0.32 0.0 0 0 351.81 319.87
  L 351.05 317.73
  A 0.32 0.32 0.0 0 1 351.17 317.36
  L 353.05 316.09
  A 0.32 0.32 0.0 0 0 352.87 315.50
  L 350.59 315.57
  Z
  M 257.44 316.48
  A 0.30 0.30 0.0 0 1 257.15 316.27
  L 256.28 313.47
  A 0.30 0.30 0.0 0 0 255.70 313.47
  L 254.83 316.27
  A 0.30 0.30 0.0 0 1 254.54 316.48
  L 251.61 316.45
  A 0.30 0.30 0.0 0 0 251.43 316.99
  L 253.83 318.68
  A 0.30 0.30 0.0 0 1 253.94 319.02
  L 253.00 321.80
  A 0.30 0.30 0.0 0 0 253.46 322.14
  L 255.81 320.38
  A 0.30 0.30 0.0 0 1 256.17 320.38
  L 258.52 322.14
  A 0.30 0.30 0.0 0 0 258.98 321.80
  L 258.04 319.02
  A 0.30 0.30 0.0 0 1 258.15 318.68
  L 260.55 316.99
  A 0.30 0.30 0.0 0 0 260.37 316.45
  L 257.44 316.48
  Z
  M 339.90 328.22
  L 339.35 329.62
  A 0.49 0.49 0.0 0 0 340.17 330.12
  Q 341.73 328.33 343.16 330.24
  Q 343.51 330.70 343.91 330.29
  Q 344.25 329.96 343.96 329.56
  Q 342.79 327.89 345.22 326.24
  A 0.32 0.31 19.6 0 0 344.95 325.68
  Q 342.17 326.46 342.03 323.71
  A 0.44 0.44 0.0 0 0 341.15 323.65
  L 340.87 325.13
  A 0.75 0.75 0.0 0 1 340.15 325.73
  L 338.25 325.76
  A 0.37 0.37 0.0 0 0 338.06 326.45
  L 339.64 327.45
  A 0.64 0.63 26.6 0 1 339.90 328.22
  Z
  M 206.97 326.97
  A 0.35 0.35 0.0 0 1 206.63 326.72
  L 205.84 323.99
  A 0.35 0.35 0.0 0 0 205.17 323.99
  L 204.37 326.71
  A 0.35 0.35 0.0 0 1 204.02 326.96
  L 201.19 326.86
  A 0.35 0.35 0.0 0 0 200.98 327.50
  L 203.31 329.10
  A 0.35 0.35 0.0 0 1 203.45 329.51
  L 202.48 332.17
  A 0.35 0.35 0.0 0 0 203.02 332.57
  L 205.27 330.85
  A 0.35 0.35 0.0 0 1 205.70 330.85
  L 207.93 332.59
  A 0.35 0.35 0.0 0 0 208.48 332.20
  L 207.53 329.53
  A 0.35 0.35 0.0 0 1 207.66 329.12
  L 210.01 327.53
  A 0.35 0.35 0.0 0 0 209.80 326.89
  L 206.97 326.97
  Z
  M 320.35 331.16
  L 321.16 330.93
  A 0.37 0.37 0.0 0 0 321.05 330.20
  Q 319.10 330.29 318.78 328.48
  A 0.39 0.39 0.0 0 0 318.00 328.54
  Q 317.96 330.42 316.05 329.97
  A 0.41 0.41 0.0 0 0 315.74 330.71
  L 316.73 331.33
  A 0.74 0.73 -60.3 0 1 316.99 332.31
  L 316.59 333.05
  Q 316.13 333.90 317.04 333.59
  Q 317.59 333.40 317.93 332.93
  A 0.57 0.57 0.0 0 1 318.74 332.81
  L 319.76 333.59
  A 0.32 0.32 0.0 0 0 320.27 333.26
  L 319.94 331.84
  Q 319.82 331.31 320.35 331.16
  Z
  M 283.97 334.19
  L 285.21 334.82
  A 0.34 0.34 0.0 0 0 285.65 334.32
  Q 284.47 332.60 286.34 331.81
  A 0.30 0.30 0.0 0 0 286.19 331.23
  Q 284.28 331.43 283.96 329.72
  A 0.35 0.35 0.0 0 0 283.28 329.71
  Q 282.90 331.56 281.03 331.23
  Q 280.13 331.07 280.81 331.69
  Q 281.11 331.96 281.50 332.14
  Q 282.08 332.40 282.03 333.04
  L 281.91 334.63
  Q 281.84 335.54 282.48 334.90
  L 283.04 334.33
  Q 283.45 333.92 283.97 334.19
  Z
  M 332.11 331.77
  L 331.94 330.86
  A 0.39 0.38 -46.3 0 0 331.18 330.88
  Q 330.90 332.79 329.01 332.45
  A 0.29 0.28 -18.3 0 0 328.76 332.94
  L 329.78 333.88
  Q 330.24 334.30 329.95 334.86
  L 329.58 335.56
  Q 329.10 336.50 330.07 336.09
  Q 330.67 335.84 331.06 335.30
  A 0.55 0.55 0.0 0 1 331.94 335.30
  Q 332.33 335.84 332.92 336.08
  Q 333.87 336.48 333.39 335.57
  Q 332.48 333.83 334.36 332.98
  A 0.38 0.38 0.0 0 0 334.20 332.25
  L 332.69 332.25
  Q 332.20 332.25 332.11 331.77
  Z
  M 302.93 336.45
  L 302.50 337.68
  A 0.34 0.34 0.0 0 0 303.01 338.07
  L 304.15 337.30
  A 0.66 0.65 -40.6 0 1 304.96 337.36
  L 305.93 338.25
  A 0.34 0.34 0.0 0 0 306.46 337.83
  Q 305.19 335.68 307.35 334.88
  A 0.25 0.25 0.0 0 0 307.29 334.39
  Q 305.02 334.13 304.82 332.87
  Q 304.79 332.68 304.70 332.60
  Q 304.60 332.51 304.48 332.48
  Q 304.15 332.42 304.09 332.75
  L 303.91 333.65
  Q 303.79 334.25 303.18 334.25
  L 301.95 334.25
  Q 301.04 334.25 301.71 334.86
  L 302.76 335.79
  Q 303.06 336.07 302.93 336.45
  Z
  M 320.31 342.21
  A 0.32 0.32 0.0 0 1 320.00 341.98
  L 319.34 339.82
  A 0.32 0.32 0.0 0 0 318.72 339.82
  L 318.04 341.97
  A 0.32 0.32 0.0 0 1 317.73 342.19
  L 315.47 342.16
  A 0.32 0.32 0.0 0 0 315.28 342.74
  L 317.11 344.06
  A 0.32 0.32 0.0 0 1 317.23 344.42
  L 316.50 346.55
  A 0.32 0.32 0.0 0 0 316.99 346.92
  L 318.81 345.58
  A 0.32 0.32 0.0 0 1 319.19 345.58
  L 321.00 346.94
  A 0.32 0.32 0.0 0 0 321.49 346.58
  L 320.78 344.44
  A 0.32 0.32 0.0 0 1 320.90 344.08
  L 322.75 342.78
  A 0.32 0.32 0.0 0 0 322.56 342.20
  L 320.31 342.21
  Z
  M 294.94 345.27
  A 0.32 0.32 0.0 0 1 294.63 345.05
  L 293.94 342.96
  A 0.32 0.32 0.0 0 0 293.34 342.97
  L 292.67 345.06
  A 0.32 0.32 0.0 0 1 292.37 345.29
  L 290.17 345.29
  A 0.32 0.32 0.0 0 0 289.98 345.88
  L 291.77 347.16
  A 0.32 0.32 0.0 0 1 291.89 347.51
  L 291.22 349.61
  A 0.32 0.32 0.0 0 0 291.71 349.97
  L 293.48 348.66
  A 0.32 0.32 0.0 0 1 293.86 348.66
  L 295.64 349.95
  A 0.32 0.32 0.0 0 0 296.13 349.58
  L 295.44 347.50
  A 0.32 0.32 0.0 0 1 295.55 347.14
  L 297.33 345.84
  A 0.32 0.32 0.0 0 0 297.14 345.26
  L 294.94 345.27
  Z
  M 319.44 354.69
  L 319.09 353.64
  A 0.42 0.42 0.0 0 0 318.27 353.78
  Q 318.29 355.69 316.31 355.22
  A 0.26 0.26 0.0 0 0 316.05 355.65
  L 317.30 357.05
  A 0.59 0.58 -40.4 0 1 317.23 357.90
  Q 316.91 358.15 316.99 358.52
  Q 317.12 359.14 317.60 358.74
  Q 318.99 357.57 320.15 358.96
  A 0.37 0.37 0.0 0 0 320.75 358.52
  Q 319.70 356.84 321.42 355.96
  A 0.36 0.35 34.2 0 0 321.29 355.29
  L 320.04 355.16
  Q 319.59 355.12 319.44 354.69
  Z
  M 254.84 360.07
  A 0.37 0.36 60.4 0 0 254.70 360.61
  L 255.21 361.38
  A 1.11 1.11 0.0 0 0 257.21 360.52
  Q 256.88 359.09 254.84 360.07
  Z"
/>
<path fill="#00923f" d="
  M 365.3064 285.6077
  A 5.93 5.27 125.5 0 1 364.4596 277.7197
  A 5.93 5.27 125.5 0 1 372.1936 275.9523
  A 5.93 5.27 125.5 0 1 373.0404 283.8403
  A 5.93 5.27 125.5 0 1 365.3064 285.6077
  Z
  M 366.5432 283.7523
  A 3.71 2.95 126.5 0 0 371.1214 282.5247
  A 3.71 2.95 126.5 0 0 370.9568 277.7877
  A 3.71 2.95 126.5 0 0 366.3786 279.0153
  A 3.71 2.95 126.5 0 0 366.5432 283.7523
  Z"
/>
<ellipse fill="#ececec" cx="0.00" cy="0.00" transform="translate(368.75,280.77) rotate(126.5)" rx="3.71" ry="2.95"/>
<path fill="#ececec" d="
  M 256.74 277.95
  Q 256.62 278.84 256.93 279.42
  Q 257.15 279.81 257.59 279.88
  L 259.33 280.14
  A 0.38 0.38 0.0 0 1 259.47 280.84
  L 258.09 281.71
  Q 257.57 282.04 257.80 282.61
  L 258.40 284.10
  A 0.41 0.41 0.0 0 1 257.71 284.52
  Q 255.91 282.47 254.14 284.63
  A 0.37 0.37 0.0 0 1 253.52 284.24
  L 254.20 282.72
  A 0.67 0.67 0.0 0 0 254.02 281.94
  L 252.49 280.64
  A 0.36 0.36 0.0 0 1 252.72 280.00
  L 254.25 280.00
  A 0.84 0.83 -76.9 0 0 255.00 279.53
  Q 255.35 278.83 255.31 277.93
  Q 255.62 277.43 256.00 277.45
  Q 256.37 277.46 256.74 277.95
  Z"
/>
<path fill="#ececec" d="
  M 175.78 284.71
  L 175.18 284.04
  Q 174.88 283.71 175.19 283.40
  L 176.24 282.36
  Q 176.40 282.19 176.60 282.31
  L 178.32 283.34
  Q 178.64 283.53 178.44 283.84
  L 177.72 284.98
  Q 177.38 285.51 176.84 285.19
  Q 176.09 284.76 175.77 285.59
  A 0.27 0.27 0.0 0 1 175.26 285.55
  Q 175.13 284.97 175.68 284.95
  A 0.15 0.14 68.2 0 0 175.78 284.71
  Z"
/>
<path fill="#ececec" d="
  M 165.89 290.03
  L 168.57 290.00
  A 0.35 0.35 0.0 0 1 168.78 290.64
  L 166.58 292.18
  A 0.35 0.35 0.0 0 0 166.45 292.58
  L 167.30 295.13
  A 0.35 0.35 0.0 0 1 166.76 295.52
  L 164.61 293.91
  A 0.35 0.35 0.0 0 0 164.19 293.91
  L 162.03 295.50
  A 0.35 0.35 0.0 0 1 161.50 295.11
  L 162.36 292.57
  A 0.35 0.35 0.0 0 0 162.24 292.17
  L 160.05 290.61
  A 0.35 0.35 0.0 0 1 160.26 289.97
  L 162.94 290.02
  A 0.35 0.35 0.0 0 0 163.28 289.77
  L 164.09 287.21
  A 0.35 0.35 0.0 0 1 164.76 287.21
  L 165.55 289.78
  A 0.35 0.35 0.0 0 0 165.89 290.03
  Z"
/>
<path fill="#ececec" d="
  M 271.80 291.46
  L 274.09 291.41
  A 0.32 0.32 0.0 0 1 274.28 291.99
  L 272.38 293.28
  A 0.32 0.32 0.0 0 0 272.25 293.65
  L 273.01 295.81
  A 0.32 0.32 0.0 0 1 272.51 296.17
  L 270.71 294.76
  A 0.32 0.32 0.0 0 0 270.31 294.76
  L 268.49 296.15
  A 0.32 0.32 0.0 0 1 268.00 295.79
  L 268.78 293.63
  A 0.32 0.32 0.0 0 0 268.66 293.26
  L 266.77 291.95
  A 0.32 0.32 0.0 0 1 266.97 291.37
  L 269.26 291.45
  A 0.32 0.32 0.0 0 0 269.58 291.22
  L 270.23 289.02
  A 0.32 0.32 0.0 0 1 270.85 289.03
  L 271.48 291.23
  A 0.32 0.32 0.0 0 0 271.80 291.46
  Z"
/>
<path fill="#ececec" d="
  M 244.67 291.75
  L 246.02 291.75
  A 0.28 0.28 0.0 0 1 246.15 292.27
  Q 244.49 293.21 245.24 295.09
  Q 245.63 296.05 244.79 295.45
  L 243.68 294.65
  A 0.59 0.58 -44.0 0 0 243.01 294.64
  L 241.79 295.49
  A 0.35 0.35 0.0 0 1 241.27 295.04
  L 241.81 293.98
  Q 242.14 293.34 241.54 292.93
  L 240.52 292.25
  A 0.33 0.33 0.0 0 1 240.78 291.65
  Q 242.79 292.15 243.17 290.10
  A 0.39 0.39 0.0 0 1 243.94 290.11
  L 244.10 291.25
  Q 244.17 291.75 244.67 291.75
  Z"
/>
<path fill="#00923f" d="
  M 500.36 295.96
  C 484.86 404.88 401.23 491.70 291.85 508.12
  C 155.30 528.62 31.18 431.71 11.64 296.27
  Q 11.77 296.26 11.91 296.25
  Q 12.00 296.25 12.08 296.30
  L 236.37 441.17
  C 232.31 443.80 220.07 442.38 216.49 441.95
  Q 212.66 441.49 206.77 442.79
  Q 190.99 446.27 178.90 452.07
  Q 165.51 458.49 165.73 470.73
  Q 171.28 480.56 182.34 485.15
  Q 200.37 492.63 218.79 495.32
  Q 263.82 501.89 308.39 492.96
  C 321.66 490.30 340.53 485.09 348.54 473.25
  C 357.94 454.30 317.49 444.26 306.31 442.31
  C 304.04 441.92 300.86 441.77 299.01 442.00
  Q 285.99 443.62 274.69 441.77
  L 500.36 295.96
  Z"
/>
<path fill="#ececec" d="
  M 147.32 303.38
  L 146.52 302.72
  Q 145.69 302.04 146.77 302.02
  Q 148.48 302.00 148.62 300.15
  A 0.39 0.38 47.6 0 1 149.39 300.19
  Q 149.38 302.35 151.54 302.03
  A 0.39 0.39 0.0 0 1 151.73 302.78
  L 150.89 303.09
  A 0.67 0.65 73.1 0 0 150.48 303.88
  L 150.82 305.22
  A 0.37 0.37 0.0 0 1 150.19 305.55
  Q 149.11 304.32 147.79 305.56
  A 0.43 0.43 0.0 0 1 147.09 305.11
  L 147.48 303.92
  A 0.50 0.48 29.4 0 0 147.32 303.38
  Z"
/>
<path fill="#ececec" d="
  M 248.53 302.36
  A 0.83 0.83 0.0 0 1 248.42 301.25
  L 249.16 300.26
  Q 249.40 299.94 249.73 300.19
  L 251.11 301.25
  Q 251.31 301.41 251.26 301.66
  Q 250.73 304.34 248.53 302.36
  Z"
/>
<path fill="#ececec" d="
  M 191.84 302.89
  L 194.06 302.84
  A 0.32 0.32 0.0 0 1 194.25 303.42
  L 192.44 304.71
  A 0.32 0.32 0.0 0 0 192.32 305.07
  L 193.05 307.17
  A 0.32 0.32 0.0 0 1 192.56 307.53
  L 190.78 306.20
  A 0.32 0.32 0.0 0 0 190.39 306.20
  L 188.63 307.54
  A 0.32 0.32 0.0 0 1 188.13 307.19
  L 188.84 305.08
  A 0.32 0.32 0.0 0 0 188.72 304.72
  L 186.90 303.45
  A 0.32 0.32 0.0 0 1 187.09 302.87
  L 189.31 302.89
  A 0.32 0.32 0.0 0 0 189.62 302.67
  L 190.26 300.55
  A 0.32 0.32 0.0 0 1 190.87 300.54
  L 191.53 302.66
  A 0.32 0.32 0.0 0 0 191.84 302.89
  Z"
/>
<path fill="#ececec" d="
  M 345.62 304.05
  L 348.59 304.00
  A 0.30 0.30 0.0 0 1 348.76 304.55
  L 346.33 306.25
  A 0.30 0.30 0.0 0 0 346.22 306.59
  L 347.18 309.40
  A 0.30 0.30 0.0 0 1 346.71 309.73
  L 344.35 307.95
  A 0.30 0.30 0.0 0 0 343.99 307.95
  L 341.61 309.72
  A 0.30 0.30 0.0 0 1 341.15 309.39
  L 342.12 306.58
  A 0.30 0.30 0.0 0 0 342.01 306.24
  L 339.58 304.53
  A 0.30 0.30 0.0 0 1 339.76 303.99
  L 342.72 304.04
  A 0.30 0.30 0.0 0 0 343.02 303.83
  L 343.89 300.99
  A 0.30 0.30 0.0 0 1 344.47 301.00
  L 345.33 303.83
  A 0.30 0.30 0.0 0 0 345.62 304.05
  Z"
/>
<path fill="#ececec" d="
  M 362.70 305.81
  L 364.31 305.73
  A 0.34 0.34 0.0 0 1 364.51 306.36
  L 363.17 307.25
  A 0.34 0.34 0.0 0 0 363.04 307.65
  L 363.61 309.16
  A 0.34 0.34 0.0 0 1 363.08 309.55
  L 361.82 308.55
  A 0.34 0.34 0.0 0 0 361.39 308.55
  L 360.13 309.56
  A 0.34 0.34 0.0 0 1 359.60 309.18
  L 360.17 307.66
  A 0.34 0.34 0.0 0 0 360.03 307.26
  L 358.68 306.38
  A 0.34 0.34 0.0 0 1 358.88 305.75
  L 360.50 305.82
  A 0.34 0.34 0.0 0 0 360.84 305.57
  L 361.26 304.01
  A 0.34 0.34 0.0 0 1 361.92 304.01
  L 362.35 305.56
  A 0.34 0.34 0.0 0 0 362.70 305.81
  Z"
/>
<path fill="#ececec" d="
  M 186.21 315.04
  L 186.28 313.30
  A 0.42 0.42 0.0 0 1 187.10 313.19
  L 187.71 314.97
  Q 187.89 315.50 188.46 315.50
  L 190.04 315.50
  A 0.40 0.40 0.0 0 1 190.20 316.26
  Q 187.79 317.34 189.30 319.76
  A 0.40 0.40 0.0 0 1 188.68 320.26
  L 187.41 319.06
  A 0.67 0.67 0.0 0 0 186.56 319.00
  L 185.01 320.07
  A 0.35 0.34 83.0 0 1 184.49 319.66
  L 185.09 318.10
  A 0.68 0.67 -55.8 0 0 184.96 317.39
  Q 184.36 316.74 183.61 316.32
  Q 183.24 316.12 183.14 315.92
  Q 183.06 315.77 183.07 315.62
  Q 183.07 315.34 183.36 315.36
  L 185.64 315.54
  Q 186.19 315.59 186.21 315.04
  Z"
/>
<path fill="#ececec" d="
  M 350.59 315.57
  L 352.87 315.50
  A 0.32 0.32 0.0 0 1 353.05 316.09
  L 351.17 317.36
  A 0.32 0.32 0.0 0 0 351.05 317.73
  L 351.81 319.87
  A 0.32 0.32 0.0 0 1 351.31 320.23
  L 349.52 318.83
  A 0.32 0.32 0.0 0 0 349.13 318.83
  L 347.33 320.22
  A 0.32 0.32 0.0 0 1 346.83 319.86
  L 347.61 317.72
  A 0.32 0.32 0.0 0 0 347.49 317.35
  L 345.61 316.06
  A 0.32 0.32 0.0 0 1 345.80 315.48
  L 348.08 315.56
  A 0.32 0.32 0.0 0 0 348.39 315.33
  L 349.04 313.15
  A 0.32 0.32 0.0 0 1 349.65 313.15
  L 350.28 315.33
  A 0.32 0.32 0.0 0 0 350.59 315.57
  Z"
/>
<path fill="#ececec" d="
  M 257.44 316.48
  L 260.37 316.45
  A 0.30 0.30 0.0 0 1 260.55 316.99
  L 258.15 318.68
  A 0.30 0.30 0.0 0 0 258.04 319.02
  L 258.98 321.80
  A 0.30 0.30 0.0 0 1 258.52 322.14
  L 256.17 320.38
  A 0.30 0.30 0.0 0 0 255.81 320.38
  L 253.46 322.14
  A 0.30 0.30 0.0 0 1 253.00 321.80
  L 253.94 319.02
  A 0.30 0.30 0.0 0 0 253.83 318.68
  L 251.43 316.99
  A 0.30 0.30 0.0 0 1 251.61 316.45
  L 254.54 316.48
  A 0.30 0.30 0.0 0 0 254.83 316.27
  L 255.70 313.47
  A 0.30 0.30 0.0 0 1 256.28 313.47
  L 257.15 316.27
  A 0.30 0.30 0.0 0 0 257.44 316.48
  Z"
/>
<path fill="#ececec" d="
  M 339.64 327.45
  L 338.06 326.45
  A 0.37 0.37 0.0 0 1 338.25 325.76
  L 340.15 325.73
  A 0.75 0.75 0.0 0 0 340.87 325.13
  L 341.15 323.65
  A 0.44 0.44 0.0 0 1 342.03 323.71
  Q 342.17 326.46 344.95 325.68
  A 0.32 0.31 19.6 0 1 345.22 326.24
  Q 342.79 327.89 343.96 329.56
  Q 344.25 329.96 343.91 330.29
  Q 343.51 330.70 343.16 330.24
  Q 341.73 328.33 340.17 330.12
  A 0.49 0.49 0.0 0 1 339.35 329.62
  L 339.90 328.22
  A 0.64 0.63 26.6 0 0 339.64 327.45
  Z"
/>
<path fill="#ececec" d="
  M 206.97 326.97
  L 209.80 326.89
  A 0.35 0.35 0.0 0 1 210.01 327.53
  L 207.66 329.12
  A 0.35 0.35 0.0 0 0 207.53 329.53
  L 208.48 332.20
  A 0.35 0.35 0.0 0 1 207.93 332.59
  L 205.70 330.85
  A 0.35 0.35 0.0 0 0 205.27 330.85
  L 203.02 332.57
  A 0.35 0.35 0.0 0 1 202.48 332.17
  L 203.45 329.51
  A 0.35 0.35 0.0 0 0 203.31 329.10
  L 200.98 327.50
  A 0.35 0.35 0.0 0 1 201.19 326.86
  L 204.02 326.96
  A 0.35 0.35 0.0 0 0 204.37 326.71
  L 205.17 323.99
  A 0.35 0.35 0.0 0 1 205.84 323.99
  L 206.63 326.72
  A 0.35 0.35 0.0 0 0 206.97 326.97
  Z"
/>
<path fill="#ececec" d="
  M 319.94 331.84
  L 320.27 333.26
  A 0.32 0.32 0.0 0 1 319.76 333.59
  L 318.74 332.81
  A 0.57 0.57 0.0 0 0 317.93 332.93
  Q 317.59 333.40 317.04 333.59
  Q 316.13 333.90 316.59 333.05
  L 316.99 332.31
  A 0.74 0.73 -60.3 0 0 316.73 331.33
  L 315.74 330.71
  A 0.41 0.41 0.0 0 1 316.05 329.97
  Q 317.96 330.42 318.00 328.54
  A 0.39 0.39 0.0 0 1 318.78 328.48
  Q 319.10 330.29 321.05 330.20
  A 0.37 0.37 0.0 0 1 321.16 330.93
  L 320.35 331.16
  Q 319.82 331.31 319.94 331.84
  Z"
/>
<path fill="#ececec" d="
  M 283.04 334.33
  L 282.48 334.90
  Q 281.84 335.54 281.91 334.63
  L 282.03 333.04
  Q 282.08 332.40 281.50 332.14
  Q 281.11 331.96 280.81 331.69
  Q 280.13 331.07 281.03 331.23
  Q 282.90 331.56 283.28 329.71
  A 0.35 0.35 0.0 0 1 283.96 329.72
  Q 284.28 331.43 286.19 331.23
  A 0.30 0.30 0.0 0 1 286.34 331.81
  Q 284.47 332.60 285.65 334.32
  A 0.34 0.34 0.0 0 1 285.21 334.82
  L 283.97 334.19
  Q 283.45 333.92 283.04 334.33
  Z"
/>
<path fill="#ececec" d="
  M 332.69 332.25
  L 334.20 332.25
  A 0.38 0.38 0.0 0 1 334.36 332.98
  Q 332.48 333.83 333.39 335.57
  Q 333.87 336.48 332.92 336.08
  Q 332.33 335.84 331.94 335.30
  A 0.55 0.55 0.0 0 0 331.06 335.30
  Q 330.67 335.84 330.07 336.09
  Q 329.10 336.50 329.58 335.56
  L 329.95 334.86
  Q 330.24 334.30 329.78 333.88
  L 328.76 332.94
  A 0.29 0.28 -18.3 0 1 329.01 332.45
  Q 330.90 332.79 331.18 330.88
  A 0.39 0.38 -46.3 0 1 331.94 330.86
  L 332.11 331.77
  Q 332.20 332.25 332.69 332.25
  Z"
/>
<path fill="#ececec" d="
  M 302.76 335.79
  L 301.71 334.86
  Q 301.04 334.25 301.95 334.25
  L 303.18 334.25
  Q 303.79 334.25 303.91 333.65
  L 304.09 332.75
  Q 304.15 332.42 304.48 332.48
  Q 304.60 332.51 304.70 332.60
  Q 304.79 332.68 304.82 332.87
  Q 305.02 334.13 307.29 334.39
  A 0.25 0.25 0.0 0 1 307.35 334.88
  Q 305.19 335.68 306.46 337.83
  A 0.34 0.34 0.0 0 1 305.93 338.25
  L 304.96 337.36
  A 0.66 0.65 -40.6 0 0 304.15 337.30
  L 303.01 338.07
  A 0.34 0.34 0.0 0 1 302.50 337.68
  L 302.93 336.45
  Q 303.06 336.07 302.76 335.79
  Z"
/>
<path fill="#ececec" d="
  M 320.31 342.21
  L 322.56 342.20
  A 0.32 0.32 0.0 0 1 322.75 342.78
  L 320.90 344.08
  A 0.32 0.32 0.0 0 0 320.78 344.44
  L 321.49 346.58
  A 0.32 0.32 0.0 0 1 321.00 346.94
  L 319.19 345.58
  A 0.32 0.32 0.0 0 0 318.81 345.58
  L 316.99 346.92
  A 0.32 0.32 0.0 0 1 316.50 346.55
  L 317.23 344.42
  A 0.32 0.32 0.0 0 0 317.11 344.06
  L 315.28 342.74
  A 0.32 0.32 0.0 0 1 315.47 342.16
  L 317.73 342.19
  A 0.32 0.32 0.0 0 0 318.04 341.97
  L 318.72 339.82
  A 0.32 0.32 0.0 0 1 319.34 339.82
  L 320.00 341.98
  A 0.32 0.32 0.0 0 0 320.31 342.21
  Z"
/>
<path fill="#ececec" d="
  M 294.94 345.27
  L 297.14 345.26
  A 0.32 0.32 0.0 0 1 297.33 345.84
  L 295.55 347.14
  A 0.32 0.32 0.0 0 0 295.44 347.50
  L 296.13 349.58
  A 0.32 0.32 0.0 0 1 295.64 349.95
  L 293.86 348.66
  A 0.32 0.32 0.0 0 0 293.48 348.66
  L 291.71 349.97
  A 0.32 0.32 0.0 0 1 291.22 349.61
  L 291.89 347.51
  A 0.32 0.32 0.0 0 0 291.77 347.16
  L 289.98 345.88
  A 0.32 0.32 0.0 0 1 290.17 345.29
  L 292.37 345.29
  A 0.32 0.32 0.0 0 0 292.67 345.06
  L 293.34 342.97
  A 0.32 0.32 0.0 0 1 293.94 342.96
  L 294.63 345.05
  A 0.32 0.32 0.0 0 0 294.94 345.27
  Z"
/>
<path fill="#ececec" d="
  M 320.04 355.16
  L 321.29 355.29
  A 0.36 0.35 34.2 0 1 321.42 355.96
  Q 319.70 356.84 320.75 358.52
  A 0.37 0.37 0.0 0 1 320.15 358.96
  Q 318.99 357.57 317.60 358.74
  Q 317.12 359.14 316.99 358.52
  Q 316.91 358.15 317.23 357.90
  A 0.59 0.58 -40.4 0 0 317.30 357.05
  L 316.05 355.65
  A 0.26 0.26 0.0 0 1 316.31 355.22
  Q 318.29 355.69 318.27 353.78
  A 0.42 0.42 0.0 0 1 319.09 353.64
  L 319.44 354.69
  Q 319.59 355.12 320.04 355.16
  Z"
/>
<path fill="#ececec" d="
  M 254.84 360.07
  Q 256.88 359.09 257.21 360.52
  A 1.11 1.11 0.0 0 1 255.21 361.38
  L 254.70 360.61
  A 0.37 0.36 60.4 0 1 254.84 360.07
  Z"
/>
<path fill="#22a059" d="
  M 236.37 441.17
  L 255.53 453.53
  Q 255.99 453.82 256.44 453.53
  L 274.69 441.77
  Q 285.99 443.62 299.01 442.00
  C 300.86 441.77 304.04 441.92 306.31 442.31
  C 317.49 444.26 357.94 454.30 348.54 473.25
  Q 348.13 470.75 346.50 470.75
  Q 256.81 470.77 165.73 470.73
  Q 165.51 458.49 178.90 452.07
  Q 190.99 446.27 206.77 442.79
  Q 212.66 441.49 216.49 441.95
  C 220.07 442.38 232.31 443.80 236.37 441.17
  Z"
/>
<path fill="#57b47f" d="
  M 348.54 473.25
  C 340.53 485.09 321.66 490.30 308.39 492.96
  Q 263.82 501.89 218.79 495.32
  Q 200.37 492.63 182.34 485.15
  Q 171.28 480.56 165.73 470.73
  Q 256.81 470.77 346.50 470.75
  Q 348.13 470.75 348.54 473.25
  Z"
/>
</svg>
