<?xml version="1.0" encoding="UTF-8" standalone="no"?>
<!DOCTYPE svg PUBLIC "-//W3C//DTD SVG 1.1//EN" "http://www.w3.org/Graphics/SVG/1.1/DTD/svg11.dtd">
<svg xmlns="http://www.w3.org/2000/svg" version="1.1" viewBox="0.00 0.00 640.00 640.00">
<g stroke-width="2.00" fill="none" stroke-linecap="butt">
<path stroke="#de8f8e" vector-effect="non-scaling-stroke" d="
  M 640.00 301.32
  C 627.40 106.14 443.96 -34.17 252.00 7.98
  C 110.06 39.14 3.77 166.27 0.70 311.56
  Q -1.44 413.27 54.24 497.33
  C 109.72 581.09 201.72 633.77 301.93 640.00"
/>
<path stroke="#de8f8e" vector-effect="non-scaling-stroke" d="
  M 640.00 338.58
  C 630.05 500.96 501.46 629.83 338.93 640.00"
/>
<path stroke="#e39493" vector-effect="non-scaling-stroke" d="
  M 320.34 387.99
  A 0.33 0.33 0.0 0 0 320.80 387.99
  L 490.57 218.31
  A 0.33 0.33 0.0 0 0 490.33 217.75
  L 150.93 217.75
  A 0.33 0.33 0.0 0 0 150.69 218.31
  L 320.34 387.99"
/>
<path stroke="#e39493" vector-effect="non-scaling-stroke" d="
  M 315.54 399.55
  C 258.22 341.54 200.32 284.01 142.38 226.59
  A 0.22 0.22 0.0 0 0 142.00 226.75
  L 141.99 423.03
  A 0.23 0.22 -0.0 0 0 142.22 423.25
  L 498.75 423.25
  A 0.50 0.50 0.0 0 0 499.25 422.75
  L 499.25 226.49
  A 0.26 0.26 0.0 0 0 498.81 226.31
  Q 411.55 313.57 324.44 400.69
  C 321.84 403.28 318.01 402.05 315.54 399.55"
/>
<path stroke="#fafafa" vector-effect="non-scaling-stroke" d="
  M 452.62 227.75
  A 0.81 0.80 -47.5 0 1 454.21 227.68
  Q 455.29 233.22 449.88 233.63
  A 0.68 0.68 0.0 0 0 449.50 234.83
  C 451.61 236.56 455.36 232.45 455.85 230.54
  C 456.62 227.49 452.79 224.92 451.42 222.69
  Q 451.15 222.24 450.66 222.05
  Q 449.30 221.53 448.74 220.23
  A 0.61 0.61 0.0 0 0 447.64 220.18
  Q 446.58 222.20 444.29 222.47
  A 1.08 1.06 14.0 0 0 443.56 222.90
  C 437.62 231.05 451.65 236.76 452.62 227.75"
/>
<path stroke="#fafafa" vector-effect="non-scaling-stroke" d="
  M 438.25 229.65
  C 435.54 229.59 434.74 232.68 433.27 234.46
  A 0.58 0.58 0.0 0 0 433.32 235.26
  L 439.88 241.37
  A 0.68 0.68 0.0 0 0 440.81 240.38
  L 435.79 235.60
  A 0.86 0.83 24.9 0 1 435.53 234.93
  Q 435.76 231.90 438.50 230.84
  A 0.98 0.98 0.0 0 1 439.54 231.05
  L 444.72 236.03
  A 0.48 0.48 0.0 0 0 445.27 236.12
  L 445.71 235.91
  A 0.50 0.49 55.4 0 0 445.85 235.12
  C 444.14 233.36 440.79 229.71 438.25 229.65"
/>
<path stroke="#fafafa" vector-effect="non-scaling-stroke" d="
  M 425.34 242.72
  L 424.50 242.76
  A 0.47 0.46 66.6 0 0 424.19 243.55
  L 432.92 252.58
  A 1.04 0.72 21.9 0 0 434.62 252.19
  Q 433.98 250.50 432.23 250.12
  A 0.72 0.71 11.9 0 1 431.68 249.28
  Q 432.01 247.65 433.52 247.98
  Q 434.05 248.09 434.47 247.75
  Q 437.71 245.11 436.58 241.21
  Q 436.45 240.74 436.08 240.43
  C 434.36 238.97 433.10 237.44 430.72 237.59
  Q 426.76 237.84 426.01 242.12
  Q 425.91 242.69 425.34 242.72"
/>
<path stroke="#fafafa" vector-effect="non-scaling-stroke" d="
  M 451.3914 228.6799
  A 4.18 4.00 24.9 0 0 449.2841 223.2918
  A 4.18 4.00 24.9 0 0 443.8086 225.1601
  A 4.18 4.00 24.9 0 0 445.9159 230.5482
  A 4.18 4.00 24.9 0 0 451.3914 228.6799"
/>
<path stroke="#fafafa" vector-effect="non-scaling-stroke" d="
  M 280.04 386.01
  L 278.95 384.50
  A 0.33 0.33 0.0 0 0 278.41 384.87
  C 282.93 391.57 266.98 392.99 273.51 400.12
  Q 276.96 403.89 281.54 400.39
  Q 281.94 400.08 282.07 399.60
  L 282.65 397.47
  A 0.64 0.64 0.0 0 1 283.77 397.24
  C 286.92 401.19 282.66 403.32 279.46 404.02
  A 0.28 0.28 0.0 0 0 279.50 404.58
  C 284.23 404.98 288.71 399.07 283.68 396.21
  Q 283.27 395.98 283.05 395.56
  Q 281.53 392.66 278.62 391.16
  Q 278.04 390.86 278.42 390.33
  L 280.21 387.86
  Q 280.59 387.35 281.03 387.80
  C 283.20 390.03 285.51 393.51 288.99 393.18
  Q 289.14 393.17 289.21 393.04
  L 289.46 392.62
  A 0.22 0.22 0.0 0 0 289.25 392.29
  C 286.32 392.54 283.81 389.20 281.73 387.42
  Q 281.24 387.01 281.72 386.59
  L 283.74 384.80
  A 0.59 0.59 0.0 0 1 284.58 384.86
  L 289.40 390.70
  Q 289.76 391.14 290.33 391.07
  Q 290.91 391.00 290.69 390.39
  Q 290.52 389.91 290.16 389.56
  L 285.24 384.79
  A 0.48 0.48 0.0 0 1 285.29 384.06
  Q 286.14 383.45 285.88 382.49
  A 0.40 0.40 0.0 0 0 285.16 382.38
  Q 283.53 384.92 280.68 386.18
  Q 280.29 386.35 280.04 386.01"
/>
<path stroke="#fafafa" vector-effect="non-scaling-stroke" d="
  M 431.00 238.91
  L 427.64 241.04
  A 1.82 1.82 0.0 0 0 427.07 243.55
  L 428.19 245.33
  A 3.94 3.69 57.7 0 0 433.42 246.69
  L 433.62 246.56
  A 3.94 3.69 57.7 0 0 434.64 241.26
  L 433.51 239.48
  A 1.82 1.82 0.0 0 0 431.00 238.91"
/>
<path stroke="#fafafa" vector-effect="non-scaling-stroke" d="
  M 280.7556 400.0289
  A 4.41 4.17 46.5 0 0 280.7448 393.9596
  A 4.41 4.17 46.5 0 0 274.6844 393.6311
  A 4.41 4.17 46.5 0 0 274.6952 399.7004
  A 4.41 4.17 46.5 0 0 280.7556 400.0289"
/>
</g>
<path fill="#f5f5f5" d="
  M 0.00 0.00
  L 640.00 0.00
  L 640.00 301.32
  C 627.40 106.14 443.96 -34.17 252.00 7.98
  C 110.06 39.14 3.77 166.27 0.70 311.56
  Q -1.44 413.27 54.24 497.33
  C 109.72 581.09 201.72 633.77 301.93 640.00
  L 0.00 640.00
  L 0.00 0.00
  Z"
/>
<path fill="#c62827" d="
  M 640.00 301.32
  L 640.00 338.58
  C 630.05 500.96 501.46 629.83 338.93 640.00
  L 301.93 640.00
  C 201.72 633.77 109.72 581.09 54.24 497.33
  Q -1.44 413.27 0.70 311.56
  C 3.77 166.27 110.06 39.14 252.00 7.98
  C 443.96 -34.17 627.40 106.14 640.00 301.32
  Z
  M 320.34 387.99
  A 0.33 0.33 0.0 0 0 320.80 387.99
  L 490.57 218.31
  A 0.33 0.33 0.0 0 0 490.33 217.75
  L 150.93 217.75
  A 0.33 0.33 0.0 0 0 150.69 218.31
  L 320.34 387.99
  Z
  M 315.54 399.55
  C 258.22 341.54 200.32 284.01 142.38 226.59
  A 0.22 0.22 0.0 0 0 142.00 226.75
  L 141.99 423.03
  A 0.23 0.22 -0.0 0 0 142.22 423.25
  L 498.75 423.25
  A 0.50 0.50 0.0 0 0 499.25 422.75
  L 499.25 226.49
  A 0.26 0.26 0.0 0 0 498.81 226.31
  Q 411.55 313.57 324.44 400.69
  C 321.84 403.28 318.01 402.05 315.54 399.55
  Z"
/>
<path fill="#ffffff" d="
  M 320.34 387.99
  L 150.69 218.31
  A 0.33 0.33 0.0 0 1 150.93 217.75
  L 490.33 217.75
  A 0.33 0.33 0.0 0 1 490.57 218.31
  L 320.80 387.99
  A 0.33 0.33 0.0 0 1 320.34 387.99
  Z
  M 452.62 227.75
  A 0.81 0.80 -47.5 0 1 454.21 227.68
  Q 455.29 233.22 449.88 233.63
  A 0.68 0.68 0.0 0 0 449.50 234.83
  C 451.61 236.56 455.36 232.45 455.85 230.54
  C 456.62 227.49 452.79 224.92 451.42 222.69
  Q 451.15 222.24 450.66 222.05
  Q 449.30 221.53 448.74 220.23
  A 0.61 0.61 0.0 0 0 447.64 220.18
  Q 446.58 222.20 444.29 222.47
  A 1.08 1.06 14.0 0 0 443.56 222.90
  C 437.62 231.05 451.65 236.76 452.62 227.75
  Z
  M 438.25 229.65
  C 435.54 229.59 434.74 232.68 433.27 234.46
  A 0.58 0.58 0.0 0 0 433.32 235.26
  L 439.88 241.37
  A 0.68 0.68 0.0 0 0 440.81 240.38
  L 435.79 235.60
  A 0.86 0.83 24.9 0 1 435.53 234.93
  Q 435.76 231.90 438.50 230.84
  A 0.98 0.98 0.0 0 1 439.54 231.05
  L 444.72 236.03
  A 0.48 0.48 0.0 0 0 445.27 236.12
  L 445.71 235.91
  A 0.50 0.49 55.4 0 0 445.85 235.12
  C 444.14 233.36 440.79 229.71 438.25 229.65
  Z
  M 425.34 242.72
  L 424.50 242.76
  A 0.47 0.46 66.6 0 0 424.19 243.55
  L 432.92 252.58
  A 1.04 0.72 21.9 0 0 434.62 252.19
  Q 433.98 250.50 432.23 250.12
  A 0.72 0.71 11.9 0 1 431.68 249.28
  Q 432.01 247.65 433.52 247.98
  Q 434.05 248.09 434.47 247.75
  Q 437.71 245.11 436.58 241.21
  Q 436.45 240.74 436.08 240.43
  C 434.36 238.97 433.10 237.44 430.72 237.59
  Q 426.76 237.84 426.01 242.12
  Q 425.91 242.69 425.34 242.72
  Z"
/>
<path fill="#f5f5f5" d="
  M 452.62 227.75
  C 451.65 236.76 437.62 231.05 443.56 222.90
  A 1.08 1.06 14.0 0 1 444.29 222.47
  Q 446.58 222.20 447.64 220.18
  A 0.61 0.61 0.0 0 1 448.74 220.23
  Q 449.30 221.53 450.66 222.05
  Q 451.15 222.24 451.42 222.69
  C 452.79 224.92 456.62 227.49 455.85 230.54
  C 455.36 232.45 451.61 236.56 449.50 234.83
  A 0.68 0.68 0.0 0 1 449.88 233.63
  Q 455.29 233.22 454.21 227.68
  A 0.81 0.80 -47.5 0 0 452.62 227.75
  Z
  M 451.3914 228.6799
  A 4.18 4.00 24.9 0 0 449.2841 223.2918
  A 4.18 4.00 24.9 0 0 443.8086 225.1601
  A 4.18 4.00 24.9 0 0 445.9159 230.5482
  A 4.18 4.00 24.9 0 0 451.3914 228.6799
  Z"
/>
<ellipse fill="#ffffff" cx="0.00" cy="0.00" transform="translate(447.60,226.92) rotate(24.9)" rx="4.18" ry="4.00"/>
<path fill="#ffffff" d="
  M 142.38 226.59
  C 200.32 284.01 258.22 341.54 315.54 399.55
  C 318.01 402.05 321.84 403.28 324.44 400.69
  Q 411.55 313.57 498.81 226.31
  A 0.26 0.26 0.0 0 1 499.25 226.49
  L 499.25 422.75
  A 0.50 0.50 0.0 0 1 498.75 423.25
  L 142.22 423.25
  A 0.23 0.22 0.0 0 1 141.99 423.03
  L 142.00 226.75
  A 0.22 0.22 0.0 0 1 142.38 226.59
  Z
  M 280.04 386.01
  L 278.95 384.50
  A 0.33 0.33 0.0 0 0 278.41 384.87
  C 282.93 391.57 266.98 392.99 273.51 400.12
  Q 276.96 403.89 281.54 400.39
  Q 281.94 400.08 282.07 399.60
  L 282.65 397.47
  A 0.64 0.64 0.0 0 1 283.77 397.24
  C 286.92 401.19 282.66 403.32 279.46 404.02
  A 0.28 0.28 0.0 0 0 279.50 404.58
  C 284.23 404.98 288.71 399.07 283.68 396.21
  Q 283.27 395.98 283.05 395.56
  Q 281.53 392.66 278.62 391.16
  Q 278.04 390.86 278.42 390.33
  L 280.21 387.86
  Q 280.59 387.35 281.03 387.80
  C 283.20 390.03 285.51 393.51 288.99 393.18
  Q 289.14 393.17 289.21 393.04
  L 289.46 392.62
  A 0.22 0.22 0.0 0 0 289.25 392.29
  C 286.32 392.54 283.81 389.20 281.73 387.42
  Q 281.24 387.01 281.72 386.59
  L 283.74 384.80
  A 0.59 0.59 0.0 0 1 284.58 384.86
  L 289.40 390.70
  Q 289.76 391.14 290.33 391.07
  Q 290.91 391.00 290.69 390.39
  Q 290.52 389.91 290.16 389.56
  L 285.24 384.79
  A 0.48 0.48 0.0 0 1 285.29 384.06
  Q 286.14 383.45 285.88 382.49
  A 0.40 0.40 0.0 0 0 285.16 382.38
  Q 283.53 384.92 280.68 386.18
  Q 280.29 386.35 280.04 386.01
  Z"
/>
<path fill="#f5f5f5" d="
  M 433.27 234.46
  C 434.74 232.68 435.54 229.59 438.25 229.65
  C 440.79 229.71 444.14 233.36 445.85 235.12
  A 0.50 0.49 55.4 0 1 445.71 235.91
  L 445.27 236.12
  A 0.48 0.48 0.0 0 1 444.72 236.03
  L 439.54 231.05
  A 0.98 0.98 0.0 0 0 438.50 230.84
  Q 435.76 231.90 435.53 234.93
  A 0.86 0.83 24.9 0 0 435.79 235.60
  L 440.81 240.38
  A 0.68 0.68 0.0 0 1 439.88 241.37
  L 433.32 235.26
  A 0.58 0.58 0.0 0 1 433.27 234.46
  Z"
/>
<path fill="#f5f5f5" d="
  M 426.01 242.12
  Q 426.76 237.84 430.72 237.59
  C 433.10 237.44 434.36 238.97 436.08 240.43
  Q 436.45 240.74 436.58 241.21
  Q 437.71 245.11 434.47 247.75
  Q 434.05 248.09 433.52 247.98
  Q 432.01 247.65 431.68 249.28
  A 0.72 0.71 11.9 0 0 432.23 250.12
  Q 433.98 250.50 434.62 252.19
  A 1.04 0.72 21.9 0 1 432.92 252.58
  L 424.19 243.55
  A 0.47 0.46 66.6 0 1 424.50 242.76
  L 425.34 242.72
  Q 425.91 242.69 426.01 242.12
  Z
  M 431.00 238.91
  L 427.64 241.04
  A 1.82 1.82 0.0 0 0 427.07 243.55
  L 428.19 245.33
  A 3.94 3.69 57.7 0 0 433.42 246.69
  L 433.62 246.56
  A 3.94 3.69 57.7 0 0 434.64 241.26
  L 433.51 239.48
  A 1.82 1.82 0.0 0 0 431.00 238.91
  Z"
/>
<path fill="#ffffff" d="
  M 431.00 238.91
  A 1.82 1.82 0.0 0 1 433.51 239.48
  L 434.64 241.26
  A 3.94 3.69 57.7 0 1 433.62 246.56
  L 433.42 246.69
  A 3.94 3.69 57.7 0 1 428.19 245.33
  L 427.07 243.55
  A 1.82 1.82 0.0 0 1 427.64 241.04
  L 431.00 238.91
  Z"
/>
<path fill="#f5f5f5" d="
  M 640.00 338.58
  L 640.00 640.00
  L 338.93 640.00
  C 501.46 629.83 630.05 500.96 640.00 338.58
  Z"
/>
<path fill="#f5f5f5" d="
  M 280.68 386.18
  Q 283.53 384.92 285.16 382.38
  A 0.40 0.40 0.0 0 1 285.88 382.49
  Q 286.14 383.45 285.29 384.06
  A 0.48 0.48 0.0 0 0 285.24 384.79
  L 290.16 389.56
  Q 290.52 389.91 290.69 390.39
  Q 290.91 391.00 290.33 391.07
  Q 289.76 391.14 289.40 390.70
  L 284.58 384.86
  A 0.59 0.59 0.0 0 0 283.74 384.80
  L 281.72 386.59
  Q 281.24 387.01 281.73 387.42
  C 283.81 389.20 286.32 392.54 289.25 392.29
  A 0.22 0.22 0.0 0 1 289.46 392.62
  L 289.21 393.04
  Q 289.14 393.17 288.99 393.18
  C 285.51 393.51 283.20 390.03 281.03 387.80
  Q 280.59 387.35 280.21 387.86
  L 278.42 390.33
  Q 278.04 390.86 278.62 391.16
  Q 281.53 392.66 283.05 395.56
  Q 283.27 395.98 283.68 396.21
  C 288.71 399.07 284.23 404.98 279.50 404.58
  A 0.28 0.28 0.0 0 1 279.46 404.02
  C 282.66 403.32 286.92 401.19 283.77 397.24
  A 0.64 0.64 0.0 0 0 282.65 397.47
  L 282.07 399.60
  Q 281.94 400.08 281.54 400.39
  Q 276.96 403.89 273.51 400.12
  C 266.98 392.99 282.93 391.57 278.41 384.87
  A 0.33 0.33 0.0 0 1 278.95 384.50
  L 280.04 386.01
  Q 280.29 386.35 280.68 386.18
  Z
  M 280.7556 400.0289
  A 4.41 4.17 46.5 0 0 280.7448 393.9596
  A 4.41 4.17 46.5 0 0 274.6844 393.6311
  A 4.41 4.17 46.5 0 0 274.6952 399.7004
  A 4.41 4.17 46.5 0 0 280.7556 400.0289
  Z"
/>
<ellipse fill="#ffffff" cx="0.00" cy="0.00" transform="translate(277.72,396.83) rotate(46.5)" rx="4.41" ry="4.17"/>
</svg>
