<?xml version="1.0" encoding="UTF-8" standalone="no"?>
<!DOCTYPE svg PUBLIC "-//W3C//DTD SVG 1.1//EN" "http://www.w3.org/Graphics/SVG/1.1/DTD/svg11.dtd">
<svg xmlns="http://www.w3.org/2000/svg" version="1.1" viewBox="0.00 0.00 256.00 256.00">
<g stroke-width="2.00" fill="none" stroke-linecap="butt">
<path stroke="#e56728" vector-effect="non-scaling-stroke" d="
  M 223.79 70.30
  C 211.80 70.71 197.00 70.32 188.17 70.29
  Q 99.67 70.04 26.75 70.54
  Q 25.38 70.55 24.43 70.15"
/>
<path stroke="#e56728" vector-effect="non-scaling-stroke" d="
  M 223.69 178.27
  L 24.36 178.26"
/>
<path stroke="#9b0015" stroke-opacity="0.655" vector-effect="non-scaling-stroke" d="
  M 68.22 223.04
  C 124.07 253.85 193.03 234.17 223.69 178.27"
/>
<path stroke="#c39e27" stroke-opacity="0.655" vector-effect="non-scaling-stroke" d="
  M 223.69 178.27
  C 239.77 148.84 241.47 113.53 229.43 82.39"
/>
</g>
<path fill="#cb001c" d="
  M 223.79 70.30
  C 211.80 70.71 197.00 70.32 188.17 70.29
  Q 99.67 70.04 26.75 70.54
  Q 25.38 70.55 24.43 70.15
  C 68.79 -7.68 179.78 -9.60 223.79 70.30
  Z"
/>
<path fill="#000000" fill-opacity="0.306" d="
  M 68.22 223.04
  C 124.07 253.85 193.03 234.17 223.69 178.27
  C 239.77 148.84 241.47 113.53 229.43 82.39
  L 227.50 74.60
  Q 227.38 74.11 226.98 73.82
  Q 226.54 73.48 226.35 72.93
  Q 225.00 69.04 222.44 65.86
  Q 222.05 65.38 222.25 65.05
  Q 222.53 64.59 222.87 65.00
  Q 224.08 66.47 225.42 67.81
  C 227.41 69.80 228.16 72.33 229.72 74.62
  Q 231.49 77.21 232.13 78.46
  C 279.07 169.15 193.72 270.94 96.24 239.11
  Q 84.56 235.30 70.99 227.03
  Q 68.60 225.58 67.69 224.61
  Q 67.11 224.00 67.95 224.00
  L 68.49 224.00
  Q 68.90 224.00 68.60 223.73
  Q 68.23 223.41 68.22 223.04
  Z"
/>
<path fill="#ffce33" d="
  M 24.43 70.15
  Q 25.38 70.55 26.75 70.54
  Q 99.67 70.04 188.17 70.29
  C 197.00 70.32 211.80 70.71 223.79 70.30
  L 229.43 82.39
  C 241.47 113.53 239.77 148.84 223.69 178.27
  L 24.36 178.26
  C 5.98 144.48 6.40 103.97 24.43 70.15
  Z"
/>
<path fill="#cb001c" d="
  M 24.36 178.26
  L 223.69 178.27
  C 193.03 234.17 124.07 253.85 68.22 223.04
  Q 40.23 206.90 24.36 178.26
  Z"
/>
</svg>
