<?xml version="1.0" encoding="UTF-8" standalone="no"?>
<!DOCTYPE svg PUBLIC "-//W3C//DTD SVG 1.1//EN" "http://www.w3.org/Graphics/SVG/1.1/DTD/svg11.dtd">
<svg xmlns="http://www.w3.org/2000/svg" version="1.1" viewBox="0.00 0.00 512.00 512.00">
<g stroke-width="2.00" fill="none" stroke-linecap="butt">
<path stroke="#78a1d2" vector-effect="non-scaling-stroke" d="
  M 255.99 0.00
  L 256.02 55.73"
/>
<path stroke="#6c296e" vector-effect="non-scaling-stroke" d="
  M 256.02 55.73
  L 256.00 121.95
  Q 256.00 122.15 256.15 122.27
  Q 256.26 122.36 256.29 122.50"
/>
<path stroke="#78a1d2" vector-effect="non-scaling-stroke" d="
  M 256.29 122.50
  L 256.03 189.25"
/>
<path stroke="#6c296e" vector-effect="non-scaling-stroke" d="
  M 256.03 189.25
  L 256.00 256.00"
/>
<path stroke="#78a1d2" vector-effect="non-scaling-stroke" d="
  M 256.00 256.00
  L 0.00 256.00"
/>
<path stroke="#78a1d2" vector-effect="non-scaling-stroke" d="
  M 1.97 224.09
  L 14.55 214.90
  Q 14.95 214.60 15.36 214.90
  L 35.93 229.84
  Q 36.65 230.36 36.37 229.52
  L 28.55 205.44
  Q 28.37 204.89 28.85 204.54
  L 49.41 189.64
  A 0.27 0.27 0.0 0 0 49.25 189.15
  L 23.80 189.29
  A 0.71 0.70 -9.1 0 1 23.13 188.81
  L 15.98 167.02"
/>
<path stroke="#78a1d2" vector-effect="non-scaling-stroke" d="
  M 24.39 146.87
  L 36.20 155.44
  A 0.17 0.17 0.0 0 0 36.47 155.25
  L 30.01 135.90"
/>
<path stroke="#78a1d2" vector-effect="non-scaling-stroke" d="
  M 36.61 124.13
  L 49.17 115.10
  Q 49.94 114.54 48.99 114.54
  L 42.61 114.51"
/>
<path stroke="#78a1d2" vector-effect="non-scaling-stroke" d="
  M 92.03 59.40
  L 85.29 80.42
  A 0.31 0.31 0.0 0 0 85.76 80.76
  L 106.32 65.87
  A 0.88 0.86 44.9 0 1 107.35 65.88
  L 127.66 80.61
  A 0.34 0.33 9.2 0 0 128.18 80.24
  L 120.40 56.28
  Q 120.22 55.74 120.68 55.41
  L 141.09 40.55
  Q 141.85 40.00 140.91 39.99
  L 118.94 39.73"
/>
<path stroke="#78a1d2" vector-effect="non-scaling-stroke" d="
  M 207.24 40.26
  A 0.57 0.57 0.0 0 1 206.69 39.86
  L 199.17 15.68
  A 0.57 0.57 0.0 0 0 198.09 15.68
  L 190.57 39.86
  A 0.57 0.57 0.0 0 1 190.02 40.26
  L 164.71 39.93
  A 0.57 0.57 0.0 0 0 164.37 40.97
  L 185.04 55.59
  A 0.57 0.57 0.0 0 1 185.25 56.23
  L 177.12 80.21
  A 0.57 0.57 0.0 0 0 178.00 80.85
  L 198.29 65.70
  A 0.57 0.57 0.0 0 1 198.97 65.70
  L 219.26 80.85
  A 0.57 0.57 0.0 0 0 220.14 80.21
  L 212.01 56.23
  A 0.57 0.57 0.0 0 1 212.22 55.59
  L 232.89 40.97
  A 0.57 0.57 0.0 0 0 232.55 39.93
  L 207.24 40.26"
/>
<path stroke="#78a1d2" vector-effect="non-scaling-stroke" d="
  M 115.39 114.74
  A 0.46 0.46 0.0 0 1 114.95 114.42
  L 107.26 90.09
  A 0.46 0.46 0.0 0 0 106.38 90.09
  L 98.69 114.42
  A 0.46 0.46 0.0 0 1 98.25 114.74
  L 72.73 114.53
  A 0.46 0.46 0.0 0 0 72.46 115.37
  L 93.23 130.20
  A 0.46 0.46 0.0 0 1 93.40 130.72
  L 85.32 154.92
  A 0.46 0.46 0.0 0 0 86.03 155.44
  L 106.55 140.27
  A 0.46 0.46 0.0 0 1 107.09 140.27
  L 127.61 155.44
  A 0.46 0.46 0.0 0 0 128.32 154.92
  L 120.24 130.72
  A 0.46 0.46 0.0 0 1 120.41 130.20
  L 141.18 115.37
  A 0.46 0.46 0.0 0 0 140.91 114.53
  L 115.39 114.74"
/>
<path stroke="#78a1d2" vector-effect="non-scaling-stroke" d="
  M 207.19 114.73
  A 0.45 0.45 0.0 0 1 206.75 114.42
  L 199.05 90.08
  A 0.45 0.45 0.0 0 0 198.19 90.08
  L 190.49 114.42
  A 0.45 0.45 0.0 0 1 190.05 114.73
  L 164.52 114.54
  A 0.45 0.45 0.0 0 0 164.25 115.36
  L 185.03 130.21
  A 0.45 0.45 0.0 0 1 185.19 130.71
  L 177.12 154.94
  A 0.45 0.45 0.0 0 0 177.81 155.44
  L 198.35 140.28
  A 0.45 0.45 0.0 0 1 198.89 140.28
  L 219.43 155.44
  A 0.45 0.45 0.0 0 0 220.12 154.94
  L 212.05 130.71
  A 0.45 0.45 0.0 0 1 212.21 130.21
  L 232.99 115.36
  A 0.45 0.45 0.0 0 0 232.72 114.54
  L 207.19 114.73"
/>
<path stroke="#78a1d2" vector-effect="non-scaling-stroke" d="
  M 115.34 189.40
  A 0.45 0.45 0.0 0 1 114.90 189.08
  L 107.24 164.71
  A 0.45 0.45 0.0 0 0 106.38 164.71
  L 98.72 189.08
  A 0.45 0.45 0.0 0 1 98.28 189.40
  L 72.74 189.16
  A 0.45 0.45 0.0 0 0 72.47 189.97
  L 93.28 204.79
  A 0.45 0.45 0.0 0 1 93.45 205.30
  L 85.32 229.52
  A 0.45 0.45 0.0 0 0 86.02 230.03
  L 106.54 214.82
  A 0.45 0.45 0.0 0 1 107.08 214.82
  L 127.60 230.03
  A 0.45 0.45 0.0 0 0 128.30 229.52
  L 120.17 205.30
  A 0.45 0.45 0.0 0 1 120.34 204.79
  L 141.15 189.97
  A 0.45 0.45 0.0 0 0 140.88 189.16
  L 115.34 189.40"
/>
<path stroke="#78a1d2" vector-effect="non-scaling-stroke" d="
  M 207.15 189.41
  A 0.45 0.45 0.0 0 1 206.71 189.09
  L 199.05 164.69
  A 0.45 0.45 0.0 0 0 198.19 164.69
  L 190.53 189.09
  A 0.45 0.45 0.0 0 1 190.09 189.41
  L 164.51 189.16
  A 0.45 0.45 0.0 0 0 164.25 189.97
  L 185.09 204.80
  A 0.45 0.45 0.0 0 1 185.26 205.31
  L 177.11 229.56
  A 0.45 0.45 0.0 0 0 177.81 230.07
  L 198.35 214.83
  A 0.45 0.45 0.0 0 1 198.89 214.83
  L 219.43 230.07
  A 0.45 0.45 0.0 0 0 220.13 229.56
  L 211.98 205.31
  A 0.45 0.45 0.0 0 1 212.15 204.80
  L 232.99 189.97
  A 0.45 0.45 0.0 0 0 232.73 189.16
  L 207.15 189.41"
/>
<path stroke="#e4788c" vector-effect="non-scaling-stroke" d="
  M 415.37 55.70
  L 256.02 55.73"
/>
<path stroke="#e4788c" vector-effect="non-scaling-stroke" d="
  M 474.27 122.22
  L 256.29 122.50"
/>
<path stroke="#e4788c" vector-effect="non-scaling-stroke" d="
  M 503.19 189.26
  L 256.03 189.25"
/>
<path stroke="#6c296e" vector-effect="non-scaling-stroke" d="
  M 511.84 246.00
  L 512.00 251.34"
/>
<path stroke="#e4788c" vector-effect="non-scaling-stroke" d="
  M 512.00 255.99
  L 256.00 256.00"
/>
<path stroke="#e4788c" vector-effect="non-scaling-stroke" d="
  M 503.12 323.02
  L 8.80 322.75"
/>
<path stroke="#e4788c" vector-effect="non-scaling-stroke" d="
  M 474.41 389.51
  L 39.36 389.50
  Q 38.87 389.50 38.41 389.67
  Q 38.10 389.79 37.72 389.80"
/>
<path stroke="#e4788c" vector-effect="non-scaling-stroke" d="
  M 415.04 456.64
  C 414.54 456.50 414.12 456.25 413.63 456.25
  Q 256.13 456.25 98.63 456.25
  Q 98.20 456.25 97.78 456.38
  L 96.97 456.63"
/>
</g>
<path fill="#0052b4" d="
  M 247.83 0.00
  L 255.99 0.00
  L 256.02 55.73
  L 256.00 121.95
  Q 256.00 122.15 256.15 122.27
  Q 256.26 122.36 256.29 122.50
  L 256.03 189.25
  L 256.00 256.00
  L 0.00 256.00
  L 0.00 245.20
  L 1.97 224.09
  L 14.55 214.90
  Q 14.95 214.60 15.36 214.90
  L 35.93 229.84
  Q 36.65 230.36 36.37 229.52
  L 28.55 205.44
  Q 28.37 204.89 28.85 204.54
  L 49.41 189.64
  A 0.27 0.27 0.0 0 0 49.25 189.15
  L 23.80 189.29
  A 0.71 0.70 -9.1 0 1 23.13 188.81
  L 15.98 167.02
  L 24.39 146.87
  L 36.20 155.44
  A 0.17 0.17 0.0 0 0 36.47 155.25
  L 30.01 135.90
  L 36.61 124.13
  L 49.17 115.10
  Q 49.94 114.54 48.99 114.54
  L 42.61 114.51
  Q 63.30 83.28 92.03 59.40
  L 85.29 80.42
  A 0.31 0.31 0.0 0 0 85.76 80.76
  L 106.32 65.87
  A 0.88 0.86 44.9 0 1 107.35 65.88
  L 127.66 80.61
  A 0.34 0.33 9.2 0 0 128.18 80.24
  L 120.40 56.28
  Q 120.22 55.74 120.68 55.41
  L 141.09 40.55
  Q 141.85 40.00 140.91 39.99
  L 118.94 39.73
  Q 177.87 2.58 247.83 0.00
  Z
  M 207.24 40.26
  A 0.57 0.57 0.0 0 1 206.69 39.86
  L 199.17 15.68
  A 0.57 0.57 0.0 0 0 198.09 15.68
  L 190.57 39.86
  A 0.57 0.57 0.0 0 1 190.02 40.26
  L 164.71 39.93
  A 0.57 0.57 0.0 0 0 164.37 40.97
  L 185.04 55.59
  A 0.57 0.57 0.0 0 1 185.25 56.23
  L 177.12 80.21
  A 0.57 0.57 0.0 0 0 178.00 80.85
  L 198.29 65.70
  A 0.57 0.57 0.0 0 1 198.97 65.70
  L 219.26 80.85
  A 0.57 0.57 0.0 0 0 220.14 80.21
  L 212.01 56.23
  A 0.57 0.57 0.0 0 1 212.22 55.59
  L 232.89 40.97
  A 0.57 0.57 0.0 0 0 232.55 39.93
  L 207.24 40.26
  Z
  M 115.39 114.74
  A 0.46 0.46 0.0 0 1 114.95 114.42
  L 107.26 90.09
  A 0.46 0.46 0.0 0 0 106.38 90.09
  L 98.69 114.42
  A 0.46 0.46 0.0 0 1 98.25 114.74
  L 72.73 114.53
  A 0.46 0.46 0.0 0 0 72.46 115.37
  L 93.23 130.20
  A 0.46 0.46 0.0 0 1 93.40 130.72
  L 85.32 154.92
  A 0.46 0.46 0.0 0 0 86.03 155.44
  L 106.55 140.27
  A 0.46 0.46 0.0 0 1 107.09 140.27
  L 127.61 155.44
  A 0.46 0.46 0.0 0 0 128.32 154.92
  L 120.24 130.72
  A 0.46 0.46 0.0 0 1 120.41 130.20
  L 141.18 115.37
  A 0.46 0.46 0.0 0 0 140.91 114.53
  L 115.39 114.74
  Z
  M 207.19 114.73
  A 0.45 0.45 0.0 0 1 206.75 114.42
  L 199.05 90.08
  A 0.45 0.45 0.0 0 0 198.19 90.08
  L 190.49 114.42
  A 0.45 0.45 0.0 0 1 190.05 114.73
  L 164.52 114.54
  A 0.45 0.45 0.0 0 0 164.25 115.36
  L 185.03 130.21
  A 0.45 0.45 0.0 0 1 185.19 130.71
  L 177.12 154.94
  A 0.45 0.45 0.0 0 0 177.81 155.44
  L 198.35 140.28
  A 0.45 0.45 0.0 0 1 198.89 140.28
  L 219.43 155.44
  A 0.45 0.45 0.0 0 0 220.12 154.94
  L 212.05 130.71
  A 0.45 0.45 0.0 0 1 212.21 130.21
  L 232.99 115.36
  A 0.45 0.45 0.0 0 0 232.72 114.54
  L 207.19 114.73
  Z
  M 115.34 189.40
  A 0.45 0.45 0.0 0 1 114.90 189.08
  L 107.24 164.71
  A 0.45 0.45 0.0 0 0 106.38 164.71
  L 98.72 189.08
  A 0.45 0.45 0.0 0 1 98.28 189.40
  L 72.74 189.16
  A 0.45 0.45 0.0 0 0 72.47 189.97
  L 93.28 204.79
  A 0.45 0.45 0.0 0 1 93.45 205.30
  L 85.32 229.52
  A 0.45 0.45 0.0 0 0 86.02 230.03
  L 106.54 214.82
  A 0.45 0.45 0.0 0 1 107.08 214.82
  L 127.60 230.03
  A 0.45 0.45 0.0 0 0 128.30 229.52
  L 120.17 205.30
  A 0.45 0.45 0.0 0 1 120.34 204.79
  L 141.15 189.97
  A 0.45 0.45 0.0 0 0 140.88 189.16
  L 115.34 189.40
  Z
  M 207.15 189.41
  A 0.45 0.45 0.0 0 1 206.71 189.09
  L 199.05 164.69
  A 0.45 0.45 0.0 0 0 198.19 164.69
  L 190.53 189.09
  A 0.45 0.45 0.0 0 1 190.09 189.41
  L 164.51 189.16
  A 0.45 0.45 0.0 0 0 164.25 189.97
  L 185.09 204.80
  A 0.45 0.45 0.0 0 1 185.26 205.31
  L 177.11 229.56
  A 0.45 0.45 0.0 0 0 177.81 230.07
  L 198.35 214.83
  A 0.45 0.45 0.0 0 1 198.89 214.83
  L 219.43 230.07
  A 0.45 0.45 0.0 0 0 220.13 229.56
  L 211.98 205.31
  A 0.45 0.45 0.0 0 1 212.15 204.80
  L 232.99 189.97
  A 0.45 0.45 0.0 0 0 232.73 189.16
  L 207.15 189.41
  Z"
/>
<path fill="#f0f0f0" d="
  M 255.99 0.00
  L 260.06 0.00
  Q 347.15 2.21 415.37 55.70
  L 256.02 55.73
  L 255.99 0.00
  Z"
/>
<path fill="#f0f0f0" d="
  M 207.24 40.26
  L 232.55 39.93
  A 0.57 0.57 0.0 0 1 232.89 40.97
  L 212.22 55.59
  A 0.57 0.57 0.0 0 0 212.01 56.23
  L 220.14 80.21
  A 0.57 0.57 0.0 0 1 219.26 80.85
  L 198.97 65.70
  A 0.57 0.57 0.0 0 0 198.29 65.70
  L 178.00 80.85
  A 0.57 0.57 0.0 0 1 177.12 80.21
  L 185.25 56.23
  A 0.57 0.57 0.0 0 0 185.04 55.59
  L 164.37 40.97
  A 0.57 0.57 0.0 0 1 164.71 39.93
  L 190.02 40.26
  A 0.57 0.57 0.0 0 0 190.57 39.86
  L 198.09 15.68
  A 0.57 0.57 0.0 0 1 199.17 15.68
  L 206.69 39.86
  A 0.57 0.57 0.0 0 0 207.24 40.26
  Z"
/>
<path fill="#f0f0f0" d="
  M 118.94 39.73
  L 140.91 39.99
  Q 141.85 40.00 141.09 40.55
  L 120.68 55.41
  Q 120.22 55.74 120.40 56.28
  L 128.18 80.24
  A 0.34 0.33 9.2 0 1 127.66 80.61
  L 107.35 65.88
  A 0.88 0.86 44.9 0 0 106.32 65.87
  L 85.76 80.76
  A 0.31 0.31 0.0 0 1 85.29 80.42
  L 92.03 59.40
  Q 104.94 48.95 118.94 39.73
  Z"
/>
<path fill="#d80027" d="
  M 256.02 55.73
  L 415.37 55.70
  Q 450.61 83.63 474.27 122.22
  L 256.29 122.50
  Q 256.26 122.36 256.15 122.27
  Q 256.00 122.15 256.00 121.95
  L 256.02 55.73
  Z"
/>
<path fill="#f0f0f0" d="
  M 115.39 114.74
  L 140.91 114.53
  A 0.46 0.46 0.0 0 1 141.18 115.37
  L 120.41 130.20
  A 0.46 0.46 0.0 0 0 120.24 130.72
  L 128.32 154.92
  A 0.46 0.46 0.0 0 1 127.61 155.44
  L 107.09 140.27
  A 0.46 0.46 0.0 0 0 106.55 140.27
  L 86.03 155.44
  A 0.46 0.46 0.0 0 1 85.32 154.92
  L 93.40 130.72
  A 0.46 0.46 0.0 0 0 93.23 130.20
  L 72.46 115.37
  A 0.46 0.46 0.0 0 1 72.73 114.53
  L 98.25 114.74
  A 0.46 0.46 0.0 0 0 98.69 114.42
  L 106.38 90.09
  A 0.46 0.46 0.0 0 1 107.26 90.09
  L 114.95 114.42
  A 0.46 0.46 0.0 0 0 115.39 114.74
  Z"
/>
<path fill="#f0f0f0" d="
  M 207.19 114.73
  L 232.72 114.54
  A 0.45 0.45 0.0 0 1 232.99 115.36
  L 212.21 130.21
  A 0.45 0.45 0.0 0 0 212.05 130.71
  L 220.12 154.94
  A 0.45 0.45 0.0 0 1 219.43 155.44
  L 198.89 140.28
  A 0.45 0.45 0.0 0 0 198.35 140.28
  L 177.81 155.44
  A 0.45 0.45 0.0 0 1 177.12 154.94
  L 185.19 130.71
  A 0.45 0.45 0.0 0 0 185.03 130.21
  L 164.25 115.36
  A 0.45 0.45 0.0 0 1 164.52 114.54
  L 190.05 114.73
  A 0.45 0.45 0.0 0 0 190.49 114.42
  L 198.19 90.08
  A 0.45 0.45 0.0 0 1 199.05 90.08
  L 206.75 114.42
  A 0.45 0.45 0.0 0 0 207.19 114.73
  Z"
/>
<path fill="#f0f0f0" d="
  M 42.61 114.51
  L 48.99 114.54
  Q 49.94 114.54 49.17 115.10
  L 36.61 124.13
  L 42.61 114.51
  Z"
/>
<path fill="#f0f0f0" d="
  M 474.27 122.22
  Q 493.48 153.93 503.19 189.26
  L 256.03 189.25
  L 256.29 122.50
  L 474.27 122.22
  Z"
/>
<path fill="#f0f0f0" d="
  M 30.01 135.90
  L 36.47 155.25
  A 0.17 0.17 0.0 0 1 36.20 155.44
  L 24.39 146.87
  L 30.01 135.90
  Z"
/>
<path fill="#f0f0f0" d="
  M 115.34 189.40
  L 140.88 189.16
  A 0.45 0.45 0.0 0 1 141.15 189.97
  L 120.34 204.79
  A 0.45 0.45 0.0 0 0 120.17 205.30
  L 128.30 229.52
  A 0.45 0.45 0.0 0 1 127.60 230.03
  L 107.08 214.82
  A 0.45 0.45 0.0 0 0 106.54 214.82
  L 86.02 230.03
  A 0.45 0.45 0.0 0 1 85.32 229.52
  L 93.45 205.30
  A 0.45 0.45 0.0 0 0 93.28 204.79
  L 72.47 189.97
  A 0.45 0.45 0.0 0 1 72.74 189.16
  L 98.28 189.40
  A 0.45 0.45 0.0 0 0 98.72 189.08
  L 106.38 164.71
  A 0.45 0.45 0.0 0 1 107.24 164.71
  L 114.90 189.08
  A 0.45 0.45 0.0 0 0 115.34 189.40
  Z"
/>
<path fill="#f0f0f0" d="
  M 207.15 189.41
  L 232.73 189.16
  A 0.45 0.45 0.0 0 1 232.99 189.97
  L 212.15 204.80
  A 0.45 0.45 0.0 0 0 211.98 205.31
  L 220.13 229.56
  A 0.45 0.45 0.0 0 1 219.43 230.07
  L 198.89 214.83
  A 0.45 0.45 0.0 0 0 198.35 214.83
  L 177.81 230.07
  A 0.45 0.45 0.0 0 1 177.11 229.56
  L 185.26 205.31
  A 0.45 0.45 0.0 0 0 185.09 204.80
  L 164.25 189.97
  A 0.45 0.45 0.0 0 1 164.51 189.16
  L 190.09 189.41
  A 0.45 0.45 0.0 0 0 190.53 189.09
  L 198.19 164.69
  A 0.45 0.45 0.0 0 1 199.05 164.69
  L 206.71 189.09
  A 0.45 0.45 0.0 0 0 207.15 189.41
  Z"
/>
<path fill="#f0f0f0" d="
  M 15.98 167.02
  L 23.13 188.81
  A 0.71 0.70 -9.1 0 0 23.80 189.29
  L 49.25 189.15
  A 0.27 0.27 0.0 0 1 49.41 189.64
  L 28.85 204.54
  Q 28.37 204.89 28.55 205.44
  L 36.37 229.52
  Q 36.65 230.36 35.93 229.84
  L 15.36 214.90
  Q 14.95 214.60 14.55 214.90
  L 1.97 224.09
  Q 5.77 194.90 15.98 167.02
  Z"
/>
<path fill="#d80027" d="
  M 256.03 189.25
  L 503.19 189.26
  Q 510.84 217.36 511.84 246.00
  L 512.00 251.34
  L 512.00 255.99
  L 256.00 256.00
  L 256.03 189.25
  Z"
/>
<path fill="#0052b4" d="
  M 511.84 246.00
  Q 511.92 246.03 512.00 246.06
  L 512.00 251.34
  L 511.84 246.00
  Z"
/>
<path fill="#f0f0f0" d="
  M 512.00 255.99
  L 512.00 260.30
  Q 511.20 292.28 503.12 323.02
  L 8.80 322.75
  Q 0.69 291.60 0.00 259.93
  L 0.00 256.00
  L 256.00 256.00
  L 512.00 255.99
  Z"
/>
<path fill="#d80027" d="
  M 8.80 322.75
  L 503.12 323.02
  Q 493.61 358.61 474.41 389.51
  L 39.36 389.50
  Q 38.87 389.50 38.41 389.67
  Q 38.10 389.79 37.72 389.80
  Q 18.21 358.20 8.80 322.75
  Z"
/>
<path fill="#f0f0f0" d="
  M 474.41 389.51
  Q 450.44 428.19 415.04 456.64
  C 414.54 456.50 414.12 456.25 413.63 456.25
  Q 256.13 456.25 98.63 456.25
  Q 98.20 456.25 97.78 456.38
  L 96.97 456.63
  Q 61.65 428.22 37.72 389.80
  Q 38.10 389.79 38.41 389.67
  Q 38.87 389.50 39.36 389.50
  L 474.41 389.51
  Z"
/>
<path fill="#d80027" d="
  M 415.04 456.64
  Q 348.61 508.79 263.42 512.00
  L 247.20 512.00
  Q 162.84 508.33 96.97 456.63
  L 97.78 456.38
  Q 98.20 456.25 98.63 456.25
  Q 256.13 456.25 413.63 456.25
  C 414.12 456.25 414.54 456.50 415.04 456.64
  Z"
/>
</svg>
