<?xml version="1.0" encoding="UTF-8" standalone="no"?>
<!DOCTYPE svg PUBLIC "-//W3C//DTD SVG 1.1//EN" "http://www.w3.org/Graphics/SVG/1.1/DTD/svg11.dtd">
<svg xmlns="http://www.w3.org/2000/svg" version="1.1" viewBox="0.00 0.00 300.00 307.00">
<g stroke-width="2.00" fill="none" stroke-linecap="butt">
<path stroke="#7e7e7e" vector-effect="non-scaling-stroke" d="
  M 286.62 130.13
  C 277.11 61.79 218.27 11.13 148.74 12.96
  C 46.03 15.66 -15.29 127.02 35.01 215.99
  C 35.96 217.66 36.59 217.99 35.89 220.05
  Q 24.00 255.24 12.19 290.65
  Q 12.03 291.15 12.53 290.99
  L 86.35 267.32
  A 1.46 1.44 -39.7 0 1 87.50 267.42
  Q 125.97 287.91 168.62 282.97
  C 243.32 274.31 297.01 204.69 286.62 130.13"
/>
<path stroke="#94d58b" vector-effect="non-scaling-stroke" d="
  M 79.18 61.17
  Q 59.97 77.54 49.18 100.46"
/>
<path stroke="#89cb83" vector-effect="non-scaling-stroke" d="
  M 49.18 100.46
  C 34.39 132.69 35.18 170.10 51.76 201.52"
/>
<path stroke="#94d58b" vector-effect="non-scaling-stroke" d="
  M 51.76 201.52
  L 59.80 214.58
  A 1.76 1.76 0.0 0 1 59.97 216.06
  L 46.20 256.98
  A 0.41 0.40 0.3 0 0 46.71 257.49
  L 64.62 251.65"
/>
<path stroke="#9ddd93" vector-effect="non-scaling-stroke" d="
  M 64.62 251.65
  L 89.25 243.76
  Q 89.74 243.60 90.18 243.88
  C 120.52 263.35 159.15 268.38 192.92 254.71"
/>
<path stroke="#94d58b" vector-effect="non-scaling-stroke" d="
  M 192.92 254.71
  Q 222.30 243.64 241.75 219.02"
/>
<path stroke="#89cb83" vector-effect="non-scaling-stroke" d="
  M 241.75 219.02
  C 268.91 184.03 274.10 137.82 254.49 97.92"
/>
<path stroke="#94d58b" vector-effect="non-scaling-stroke" d="
  M 254.49 97.92
  Q 245.03 78.77 229.02 64.03"
/>
<path stroke="#9ddd93" vector-effect="non-scaling-stroke" d="
  M 229.02 64.03
  C 185.86 25.56 123.81 24.70 79.18 61.17"
/>
<path stroke="#35b622" vector-effect="non-scaling-stroke" d="
  M 229.02 64.03
  Q 228.02 70.82 221.78 73.00
  C 216.80 74.74 211.63 76.88 206.57 77.18
  C 202.12 77.45 197.34 76.67 193.46 76.67
  C 181.79 76.66 170.17 76.32 158.50 76.80
  Q 153.92 76.98 147.51 76.28
  Q 141.23 75.58 125.50 76.41
  C 122.33 76.57 118.28 75.86 114.14 76.36
  C 111.81 76.65 109.42 76.03 107.21 76.60
  Q 105.98 76.92 104.99 76.78
  Q 99.01 75.95 92.95 75.63
  C 89.01 75.42 85.46 73.51 81.42 72.09
  Q 77.37 70.67 79.24 66.45
  A 0.87 0.86 -46.6 0 0 79.22 65.72
  Q 78.21 63.63 79.82 61.87
  Q 80.28 61.37 79.62 61.22
  Q 79.44 61.18 79.18 61.17"
/>
<path stroke="#20a412" vector-effect="non-scaling-stroke" d="
  M 254.49 97.92
  Q 252.67 99.98 252.07 102.29
  Q 250.42 108.74 244.25 110.82
  C 236.60 113.41 226.74 113.19 217.99 113.57
  C 206.55 114.07 194.85 113.25 183.31 113.28
  C 168.53 113.33 154.91 112.83 140.69 112.70
  Q 139.75 112.69 136.89 113.34
  Q 133.05 114.21 128.82 111.11"
/>
<path stroke="#94d58b" vector-effect="non-scaling-stroke" d="
  M 128.82 111.11
  Q 125.06 102.08 120.91 92.13
  C 120.11 90.19 118.14 87.27 116.27 87.25
  C 110.02 87.20 104.17 86.13 99.34 90.83
  Q 87.97 101.91 87.29 117.48"
/>
<path stroke="#20a412" vector-effect="non-scaling-stroke" d="
  M 87.29 117.48
  L 87.20 113.42
  Q 87.20 113.21 87.11 113.40
  Q 87.06 113.52 86.98 113.64
  A 0.25 0.25 0.0 0 1 86.52 113.54
  L 86.46 113.13
  A 0.18 0.18 0.0 0 0 86.12 113.06
  L 83.31 117.64
  Q 82.96 118.20 82.31 118.15
  Q 74.93 117.59 67.61 116.92
  C 64.12 116.61 59.31 112.73 55.56 110.46
  Q 50.29 107.26 50.20 101.05
  Q 50.19 100.52 49.66 100.49
  L 49.18 100.46"
/>
<path stroke="#20a412" vector-effect="non-scaling-stroke" d="
  M 241.75 219.02
  Q 241.40 217.98 240.22 217.52
  Q 239.94 217.41 239.96 217.71
  L 240.00 218.58
  A 0.35 0.35 0.0 0 1 239.30 218.64
  L 238.74 214.01
  A 1.92 1.91 8.5 0 0 237.61 212.49
  C 233.07 210.54 228.81 208.19 223.90 207.36
  C 219.32 206.59 213.71 208.03 208.49 207.92
  Q 207.98 207.91 207.53 208.16
  C 199.82 212.44 191.28 214.07 182.51 212.27
  C 172.94 210.32 163.22 206.55 154.00 202.96
  Q 153.53 202.78 151.35 201.47
  C 149.31 200.25 147.02 199.77 144.45 198.38
  Q 143.18 197.69 140.80 195.84
  Q 135.94 192.08 129.78 191.29
  C 125.82 190.79 122.03 189.10 118.09 189.79
  C 115.27 190.29 112.13 189.91 109.70 190.24
  Q 97.23 191.93 84.71 190.74
  C 80.72 190.36 76.89 190.98 72.84 190.88
  C 70.40 190.83 68.90 191.54 66.80 192.52
  Q 66.58 192.63 66.54 192.38
  L 66.49 191.99
  Q 66.45 191.68 66.14 191.69
  Q 61.57 191.83 57.62 194.06
  Q 57.15 194.33 56.88 194.80
  Q 55.29 197.54 52.89 199.64
  Q 52.51 199.97 52.52 200.48
  Q 52.56 202.11 51.76 201.52"
/>
<path stroke="#89cb83" vector-effect="non-scaling-stroke" d="
  M 128.82 111.11
  Q 130.39 115.15 131.65 118.08
  C 134.09 123.73 126.37 131.31 122.04 136.38
  C 120.72 137.92 121.04 139.21 121.95 140.80
  Q 137.72 168.55 166.92 180.56
  C 170.09 181.86 171.79 182.33 174.35 179.51
  Q 179.67 173.66 184.42 167.30
  C 186.37 164.70 187.96 163.38 191.13 164.78
  Q 204.95 170.88 218.43 177.71
  C 223.18 180.11 221.08 189.31 219.56 193.74
  C 215.39 205.81 199.49 212.12 188.07 211.92
  C 179.97 211.77 171.29 208.06 162.76 204.98
  C 135.49 195.14 116.45 176.09 100.45 152.82
  C 93.11 142.15 87.39 130.80 87.29 117.48"
/>
<path stroke="#35b622" vector-effect="non-scaling-stroke" d="
  M 192.92 254.71
  Q 201.47 250.77 209.01 245.90
  C 211.52 244.28 212.50 241.58 215.39 239.89
  Q 215.86 239.62 216.02 239.11
  C 217.06 235.83 214.55 234.87 211.77 234.39
  Q 202.87 232.88 194.00 231.26
  C 189.77 230.50 182.88 231.59 177.27 230.83
  C 172.01 230.12 166.77 230.54 161.07 230.24
  Q 155.24 229.94 150.42 230.06
  C 127.98 230.61 105.43 229.84 83.03 230.91
  C 78.19 231.14 73.54 233.01 68.45 233.44
  Q 66.96 233.57 66.22 234.75
  Q 65.96 235.16 65.51 235.34
  C 57.80 238.34 59.26 246.93 64.62 251.65"
/>
</g>
<path fill="#000000" d="
  M 0.00 0.00
  L 300.00 0.00
  L 300.00 307.00
  L 0.00 307.00
  L 0.00 0.00
  Z
  M 286.62 130.13
  C 277.11 61.79 218.27 11.13 148.74 12.96
  C 46.03 15.66 -15.29 127.02 35.01 215.99
  C 35.96 217.66 36.59 217.99 35.89 220.05
  Q 24.00 255.24 12.19 290.65
  Q 12.03 291.15 12.53 290.99
  L 86.35 267.32
  A 1.46 1.44 -39.7 0 1 87.50 267.42
  Q 125.97 287.91 168.62 282.97
  C 243.32 274.31 297.01 204.69 286.62 130.13
  Z"
/>
<path fill="#fcfcfc" d="
  M 148.74 12.96
  C 218.27 11.13 277.11 61.79 286.62 130.13
  C 297.01 204.69 243.32 274.31 168.62 282.97
  Q 125.97 287.91 87.50 267.42
  A 1.46 1.44 -39.7 0 0 86.35 267.32
  L 12.53 290.99
  Q 12.03 291.15 12.19 290.65
  Q 24.00 255.24 35.89 220.05
  C 36.59 217.99 35.96 217.66 35.01 215.99
  C -15.29 127.02 46.03 15.66 148.74 12.96
  Z
  M 79.18 61.17
  Q 59.97 77.54 49.18 100.46
  C 34.39 132.69 35.18 170.10 51.76 201.52
  L 59.80 214.58
  A 1.76 1.76 0.0 0 1 59.97 216.06
  L 46.20 256.98
  A 0.41 0.40 0.3 0 0 46.71 257.49
  L 64.62 251.65
  L 89.25 243.76
  Q 89.74 243.60 90.18 243.88
  C 120.52 263.35 159.15 268.38 192.92 254.71
  Q 222.30 243.64 241.75 219.02
  C 268.91 184.03 274.10 137.82 254.49 97.92
  Q 245.03 78.77 229.02 64.03
  C 185.86 25.56 123.81 24.70 79.18 61.17
  Z"
/>
<path fill="#3ebe2a" d="
  M 229.02 64.03
  Q 228.02 70.82 221.78 73.00
  C 216.80 74.74 211.63 76.88 206.57 77.18
  C 202.12 77.45 197.34 76.67 193.46 76.67
  C 181.79 76.66 170.17 76.32 158.50 76.80
  Q 153.92 76.98 147.51 76.28
  Q 141.23 75.58 125.50 76.41
  C 122.33 76.57 118.28 75.86 114.14 76.36
  C 111.81 76.65 109.42 76.03 107.21 76.60
  Q 105.98 76.92 104.99 76.78
  Q 99.01 75.95 92.95 75.63
  C 89.01 75.42 85.46 73.51 81.42 72.09
  Q 77.37 70.67 79.24 66.45
  A 0.87 0.86 -46.6 0 0 79.22 65.72
  Q 78.21 63.63 79.82 61.87
  Q 80.28 61.37 79.62 61.22
  Q 79.44 61.18 79.18 61.17
  C 123.81 24.70 185.86 25.56 229.02 64.03
  Z"
/>
<path fill="#2bad1a" d="
  M 79.18 61.17
  Q 79.44 61.18 79.62 61.22
  Q 80.28 61.37 79.82 61.87
  Q 78.21 63.63 79.22 65.72
  A 0.87 0.86 -46.6 0 1 79.24 66.45
  Q 77.37 70.67 81.42 72.09
  C 85.46 73.51 89.01 75.42 92.95 75.63
  Q 99.01 75.95 104.99 76.78
  Q 105.98 76.92 107.21 76.60
  C 109.42 76.03 111.81 76.65 114.14 76.36
  C 118.28 75.86 122.33 76.57 125.50 76.41
  Q 141.23 75.58 147.51 76.28
  Q 153.92 76.98 158.50 76.80
  C 170.17 76.32 181.79 76.66 193.46 76.67
  C 197.34 76.67 202.12 77.45 206.57 77.18
  C 211.63 76.88 216.80 74.74 221.78 73.00
  Q 228.02 70.82 229.02 64.03
  Q 245.03 78.77 254.49 97.92
  Q 252.67 99.98 252.07 102.29
  Q 250.42 108.74 244.25 110.82
  C 236.60 113.41 226.74 113.19 217.99 113.57
  C 206.55 114.07 194.85 113.25 183.31 113.28
  C 168.53 113.33 154.91 112.83 140.69 112.70
  Q 139.75 112.69 136.89 113.34
  Q 133.05 114.21 128.82 111.11
  Q 125.06 102.08 120.91 92.13
  C 120.11 90.19 118.14 87.27 116.27 87.25
  C 110.02 87.20 104.17 86.13 99.34 90.83
  Q 87.97 101.91 87.29 117.48
  L 87.20 113.42
  Q 87.20 113.21 87.11 113.40
  Q 87.06 113.52 86.98 113.64
  A 0.25 0.25 0.0 0 1 86.52 113.54
  L 86.46 113.13
  A 0.18 0.18 0.0 0 0 86.12 113.06
  L 83.31 117.64
  Q 82.96 118.20 82.31 118.15
  Q 74.93 117.59 67.61 116.92
  C 64.12 116.61 59.31 112.73 55.56 110.46
  Q 50.29 107.26 50.20 101.05
  Q 50.19 100.52 49.66 100.49
  L 49.18 100.46
  Q 59.97 77.54 79.18 61.17
  Z"
/>
<path fill="#fcfcfc" d="
  M 128.82 111.11
  Q 130.39 115.15 131.65 118.08
  C 134.09 123.73 126.37 131.31 122.04 136.38
  C 120.72 137.92 121.04 139.21 121.95 140.80
  Q 137.72 168.55 166.92 180.56
  C 170.09 181.86 171.79 182.33 174.35 179.51
  Q 179.67 173.66 184.42 167.30
  C 186.37 164.70 187.96 163.38 191.13 164.78
  Q 204.95 170.88 218.43 177.71
  C 223.18 180.11 221.08 189.31 219.56 193.74
  C 215.39 205.81 199.49 212.12 188.07 211.92
  C 179.97 211.77 171.29 208.06 162.76 204.98
  C 135.49 195.14 116.45 176.09 100.45 152.82
  C 93.11 142.15 87.39 130.80 87.29 117.48
  Q 87.97 101.91 99.34 90.83
  C 104.17 86.13 110.02 87.20 116.27 87.25
  C 118.14 87.27 120.11 90.19 120.91 92.13
  Q 125.06 102.08 128.82 111.11
  Z"
/>
<path fill="#159a0a" d="
  M 254.49 97.92
  C 274.10 137.82 268.91 184.03 241.75 219.02
  Q 241.40 217.98 240.22 217.52
  Q 239.94 217.41 239.96 217.71
  L 240.00 218.58
  A 0.35 0.35 0.0 0 1 239.30 218.64
  L 238.74 214.01
  A 1.92 1.91 8.5 0 0 237.61 212.49
  C 233.07 210.54 228.81 208.19 223.90 207.36
  C 219.32 206.59 213.71 208.03 208.49 207.92
  Q 207.98 207.91 207.53 208.16
  C 199.82 212.44 191.28 214.07 182.51 212.27
  C 172.94 210.32 163.22 206.55 154.00 202.96
  Q 153.53 202.78 151.35 201.47
  C 149.31 200.25 147.02 199.77 144.45 198.38
  Q 143.18 197.69 140.80 195.84
  Q 135.94 192.08 129.78 191.29
  C 125.82 190.79 122.03 189.10 118.09 189.79
  C 115.27 190.29 112.13 189.91 109.70 190.24
  Q 97.23 191.93 84.71 190.74
  C 80.72 190.36 76.89 190.98 72.84 190.88
  C 70.40 190.83 68.90 191.54 66.80 192.52
  Q 66.58 192.63 66.54 192.38
  L 66.49 191.99
  Q 66.45 191.68 66.14 191.69
  Q 61.57 191.83 57.62 194.06
  Q 57.15 194.33 56.88 194.80
  Q 55.29 197.54 52.89 199.64
  Q 52.51 199.97 52.52 200.48
  Q 52.56 202.11 51.76 201.52
  C 35.18 170.10 34.39 132.69 49.18 100.46
  L 49.66 100.49
  Q 50.19 100.52 50.20 101.05
  Q 50.29 107.26 55.56 110.46
  C 59.31 112.73 64.12 116.61 67.61 116.92
  Q 74.93 117.59 82.31 118.15
  Q 82.96 118.20 83.31 117.64
  L 86.12 113.06
  A 0.18 0.18 0.0 0 1 86.46 113.13
  L 86.52 113.54
  A 0.25 0.25 0.0 0 0 86.98 113.64
  Q 87.06 113.52 87.11 113.40
  Q 87.20 113.21 87.20 113.42
  L 87.29 117.48
  C 87.39 130.80 93.11 142.15 100.45 152.82
  C 116.45 176.09 135.49 195.14 162.76 204.98
  C 171.29 208.06 179.97 211.77 188.07 211.92
  C 199.49 212.12 215.39 205.81 219.56 193.74
  C 221.08 189.31 223.18 180.11 218.43 177.71
  Q 204.95 170.88 191.13 164.78
  C 187.96 163.38 186.37 164.70 184.42 167.30
  Q 179.67 173.66 174.35 179.51
  C 171.79 182.33 170.09 181.86 166.92 180.56
  Q 137.72 168.55 121.95 140.80
  C 121.04 139.21 120.72 137.92 122.04 136.38
  C 126.37 131.31 134.09 123.73 131.65 118.08
  Q 130.39 115.15 128.82 111.11
  Q 133.05 114.21 136.89 113.34
  Q 139.75 112.69 140.69 112.70
  C 154.91 112.83 168.53 113.33 183.31 113.28
  C 194.85 113.25 206.55 114.07 217.99 113.57
  C 226.74 113.19 236.60 113.41 244.25 110.82
  Q 250.42 108.74 252.07 102.29
  Q 252.67 99.98 254.49 97.92
  Z"
/>
<path fill="#2bad1a" d="
  M 241.75 219.02
  Q 222.30 243.64 192.92 254.71
  Q 201.47 250.77 209.01 245.90
  C 211.52 244.28 212.50 241.58 215.39 239.89
  Q 215.86 239.62 216.02 239.11
  C 217.06 235.83 214.55 234.87 211.77 234.39
  Q 202.87 232.88 194.00 231.26
  C 189.77 230.50 182.88 231.59 177.27 230.83
  C 172.01 230.12 166.77 230.54 161.07 230.24
  Q 155.24 229.94 150.42 230.06
  C 127.98 230.61 105.43 229.84 83.03 230.91
  C 78.19 231.14 73.54 233.01 68.45 233.44
  Q 66.96 233.57 66.22 234.75
  Q 65.96 235.16 65.51 235.34
  C 57.80 238.34 59.26 246.93 64.62 251.65
  L 46.71 257.49
  A 0.41 0.40 0.3 0 1 46.20 256.98
  L 59.97 216.06
  A 1.76 1.76 0.0 0 0 59.80 214.58
  L 51.76 201.52
  Q 52.56 202.11 52.52 200.48
  Q 52.51 199.97 52.89 199.64
  Q 55.29 197.54 56.88 194.80
  Q 57.15 194.33 57.62 194.06
  Q 61.57 191.83 66.14 191.69
  Q 66.45 191.68 66.49 191.99
  L 66.54 192.38
  Q 66.58 192.63 66.80 192.52
  C 68.90 191.54 70.40 190.83 72.84 190.88
  C 76.89 190.98 80.72 190.36 84.71 190.74
  Q 97.23 191.93 109.70 190.24
  C 112.13 189.91 115.27 190.29 118.09 189.79
  C 122.03 189.10 125.82 190.79 129.78 191.29
  Q 135.94 192.08 140.80 195.84
  Q 143.18 197.69 144.45 198.38
  C 147.02 199.77 149.31 200.25 151.35 201.47
  Q 153.53 202.78 154.00 202.96
  C 163.22 206.55 172.94 210.32 182.51 212.27
  C 191.28 214.07 199.82 212.44 207.53 208.16
  Q 207.98 207.91 208.49 207.92
  C 213.71 208.03 219.32 206.59 223.90 207.36
  C 228.81 208.19 233.07 210.54 237.61 212.49
  A 1.92 1.91 8.5 0 1 238.74 214.01
  L 239.30 218.64
  A 0.35 0.35 0.0 0 0 240.00 218.58
  L 239.96 217.71
  Q 239.94 217.41 240.22 217.52
  Q 241.40 217.98 241.75 219.02
  Z"
/>
<path fill="#3ebe2a" d="
  M 192.92 254.71
  C 159.15 268.38 120.52 263.35 90.18 243.88
  Q 89.74 243.60 89.25 243.76
  L 64.62 251.65
  C 59.26 246.93 57.80 238.34 65.51 235.34
  Q 65.96 235.16 66.22 234.75
  Q 66.96 233.57 68.45 233.44
  C 73.54 233.01 78.19 231.14 83.03 230.91
  C 105.43 229.84 127.98 230.61 150.42 230.06
  Q 155.24 229.94 161.07 230.24
  C 166.77 230.54 172.01 230.12 177.27 230.83
  C 182.88 231.59 189.77 230.50 194.00 231.26
  Q 202.87 232.88 211.77 234.39
  C 214.55 234.87 217.06 235.83 216.02 239.11
  Q 215.86 239.62 215.39 239.89
  C 212.50 241.58 211.52 244.28 209.01 245.90
  Q 201.47 250.77 192.92 254.71
  Z"
/>
</svg>
